<svg id="components" xmlns="http://www.w3.org/2000/svg" xmlns:xlink="http://www.w3.org/1999/xlink" width="253.408" height="73.493" viewBox="0 0 253.408 73.493">
  <defs>
    <clipPath id="clip-path">
      <rect id="Rectangle_78" data-name="Rectangle 78" width="53.295" height="67.208" fill="none"/>
    </clipPath>
    <clipPath id="clip-path-2">
      <rect id="Rectangle_79" data-name="Rectangle 79" width="71.086" height="61.119" fill="none"/>
    </clipPath>
    <clipPath id="clip-path-3">
      <rect id="Rectangle_80" data-name="Rectangle 80" width="50.336" height="63.407" fill="none"/>
    </clipPath>
  </defs>
  <g id="Group_1475" data-name="Group 1475">
    <g id="Group_1474" data-name="Group 1474" clip-path="url(#clip-path)">
      <path id="Path_1883" data-name="Path 1883" d="M66.634,16.259c.143.555-1.343,1.916-3.46,2.781a7.284,7.284,0,0,0,1.113-2.3c1.317-.244,2.347-.486,2.347-.486" transform="translate(-13.349 -3.691)" fill="#5a5e28"/>
      <path id="Path_1884" data-name="Path 1884" d="M64.569,16.057c1.35-.054,2.239-.258,2.343.142,0,0-1.03.242-2.347.486a1.085,1.085,0,0,0,0-.627" transform="translate(-13.627 -3.631)" fill="#9c9e7e"/>
      <path id="Path_1885" data-name="Path 1885" d="M64.367,16.082a1.085,1.085,0,0,1,0,.627c-.261.05-.535.1-.81.138.322-.354.567-.631.69-.76l.124-.006" transform="translate(-13.425 -3.656)" fill="#9c9e7e"/>
      <path id="Path_1886" data-name="Path 1886" d="M62.912,17c.275-.042.55-.088.81-.138a7.3,7.3,0,0,1-1.113,2.295,10.686,10.686,0,0,1-2.266.642c.832-.884,1.871-2.03,2.568-2.8" transform="translate(-12.784 -3.812)" fill="#5a5e28"/>
      <path id="Path_1887" data-name="Path 1887" d="M63.8,16.089c-.123.129-.368.407-.69.76-.593.1-1.209.19-1.794.256.763-.414,1.368-.8,1.808-1.009.235.006.46,0,.676-.007" transform="translate(-12.977 -3.657)" fill="#9c9e7e"/>
      <path id="Path_1888" data-name="Path 1888" d="M61.958,17.039c-.7.768-1.736,1.914-2.568,2.8a7.981,7.981,0,0,1-2.877-.03,5.294,5.294,0,0,1-.951-.279c.053-.235.111-.472.17-.716a12.532,12.532,0,0,0,4.432-1.517c.586-.066,1.2-.155,1.794-.255" transform="translate(-11.829 -3.847)" fill="#5a5e28"/>
      <path id="Path_1889" data-name="Path 1889" d="M58.577,14.974a9.89,9.89,0,0,0,3.563.705c-.441.207-1.045.6-1.809,1.009a6.7,6.7,0,0,1-2.608-.067c-.379-.153-.832-.363-1.317-.619.052-.23.1-.459.157-.7.085-.4.182-.827.283-1.3a7.155,7.155,0,0,0,1.73.973" transform="translate(-11.998 -3.24)" fill="#9c9e7e"/>
      <path id="Path_1890" data-name="Path 1890" d="M59.083,20.375a10.686,10.686,0,0,0,2.266-.642,13.176,13.176,0,0,1-4.75,4.26,10.427,10.427,0,0,1-2.565.933c.2-.788.443-1.71.718-2.82,1.7-.117,2.96-.332,3.33-.692.242-.238.6-.606,1-1.04" transform="translate(-11.524 -4.384)" fill="#9c9e7e"/>
      <path id="Path_1891" data-name="Path 1891" d="M59.263,20.458c-.4.434-.76.8-1,1.04-.37.359-1.634.575-3.33.692.155-.617.323-1.294.5-2.04a5.286,5.286,0,0,0,.95.279,8,8,0,0,0,2.877.03" transform="translate(-11.703 -4.467)" fill="#5a5e28"/>
      <path id="Path_1892" data-name="Path 1892" d="M43.09,44.138a9.612,9.612,0,0,1-.367,3.31A20.94,20.94,0,0,1,40.6,53.459c-4.093,7.355-14.127,14.37-14.127,14.37-5.663,4.273-12.71,9.453-20.464,8.265C4.144,75.8.883,74.945.921,74.151c.03-.7,2.649-.916,4.994-1.47,9.736-2.3,15.886-10.758,16.957-12.234a61.977,61.977,0,0,0,5.062-8.892,31.655,31.655,0,0,1,5.611-8.394.033.033,0,0,0,.014-.017,3.906,3.906,0,0,0,2.011.57c.86-.01,1.293-.353,1.9-.07.595.274.515.738,1.05.928.691.247,1.154-.4,1.91-.4.505.006,1.257.306,2.179,1.81a18.64,18.64,0,0,0,.475-1.846" transform="translate(-0.921 -9.058)" fill="#7a121c"/>
      <path id="Path_1893" data-name="Path 1893" d="M51.231,43.576a18.642,18.642,0,0,1-.475,1.846c-.923-1.5-1.674-1.8-2.179-1.81-.756,0-1.219.643-1.91.4-.535-.19-.455-.654-1.05-.928-.612-.283-1.044.06-1.9.07a3.906,3.906,0,0,1-2.011-.57,6.463,6.463,0,0,1,3.059-2.06c2.211-.6,5.148.2,6.172,2.162a2.779,2.779,0,0,1,.3.893" transform="translate(-9.062 -8.496)" fill="#e5e06d"/>
      <path id="Path_1894" data-name="Path 1894" d="M51.482,38.907a18.288,18.288,0,0,1-.272,1.851,2.81,2.81,0,0,0-.3-.893c-1.024-1.965-3.962-2.758-6.172-2.162a6.469,6.469,0,0,0-3.059,2.06l-.082-.047a21.94,21.94,0,0,0,5.642-6.951A20.941,20.941,0,0,0,49.195,26.5a12.262,12.262,0,0,0,2.356-.281c-.752,2.936-.972,4.051-.619,6.05a21.277,21.277,0,0,1,.55,6.637" transform="translate(-9.041 -5.679)" fill="#5a5e28"/>
      <path id="Path_1895" data-name="Path 1895" d="M57.6,17.121a6.685,6.685,0,0,0,2.608.067A12.538,12.538,0,0,1,55.774,18.7c.157-.678.331-1.409.506-2.2.485.255.939.465,1.317.618" transform="translate(-11.872 -3.74)" fill="#5a5e28"/>
      <path id="Path_1896" data-name="Path 1896" d="M57.768,5.278c-.514,2.768-.992,5.115-1.377,6.914a12.808,12.808,0,0,1-2.263-2.384c.366-1.505.8-3.136,1.29-4.871.785.113,1.565.229,2.349.342" transform="translate(-11.543 -1.43)" fill="#5a5e28"/>
      <path id="Path_1897" data-name="Path 1897" d="M56.232,13.406c-.1.475-.2.906-.283,1.3-.054.24-.1.47-.157.7a13.724,13.724,0,0,1-2.461-1.658c.189-.856.4-1.763.639-2.728a12.757,12.757,0,0,0,2.263,2.384" transform="translate(-11.384 -2.645)" fill="#9c9e7e"/>
      <path id="Path_1898" data-name="Path 1898" d="M55.638,16.089c-.175.792-.349,1.524-.507,2.2a10.336,10.336,0,0,1-1.411.078,8.319,8.319,0,0,1-1.165-.941c.173-.905.38-1.906.621-3a13.724,13.724,0,0,0,2.461,1.658" transform="translate(-11.229 -3.326)" fill="#5a5e28"/>
      <path id="Path_1899" data-name="Path 1899" d="M55.422,19.254c-.059.244-.118.483-.17.717a6,6,0,0,1-1.241-.639,10.334,10.334,0,0,0,1.411-.078" transform="translate(-11.52 -4.289)" fill="#5a5e28"/>
      <path id="Path_1900" data-name="Path 1900" d="M54.794,19.961c-.182.746-.349,1.422-.5,2.04-.783.056-1.654.089-2.572.109.111-.678.237-1.4.379-2.178.042-.231.086-.479.132-.73a7.773,7.773,0,0,0,1.092.114c.075,0,.157.006.234.006a5.961,5.961,0,0,0,1.241.639" transform="translate(-11.062 -4.278)" fill="#5a5e28"/>
      <path id="Path_1901" data-name="Path 1901" d="M54.164,22.7c-.275,1.11-.518,2.032-.718,2.819a12.254,12.254,0,0,1-2.356.281c.162-.908.32-1.887.5-2.991.919-.019,1.789-.053,2.572-.109" transform="translate(-10.937 -4.976)" fill="#9c9e7e"/>
      <path id="Path_1902" data-name="Path 1902" d="M53.68,19.117c-.077,0-.158,0-.234-.006A7.767,7.767,0,0,1,52.355,19c.054-.266.1-.536.161-.822a8.172,8.172,0,0,0,1.165.941" transform="translate(-11.189 -4.074)" fill="#5a5e28"/>
      <path id="Path_1903" data-name="Path 1903" d="M45.7,22.012c-.182,1.1-.339,2.084-.5,2.991-2.955.078-6.456-.732-11.3-1.878-6.184-1.469-12.5-3.711-12.332-4.408,0,0,10.816,2.88,15.464,3.124,2.336.124,5.735.228,8.67.172" transform="translate(-5.041 -4.181)" fill="#9c9e7e"/>
      <path id="Path_1904" data-name="Path 1904" d="M45.7,21.63c-2.935.056-6.333-.048-8.67-.172-4.648-.244-15.464-3.124-15.464-3.124.124-.512,3.557.739,9.2.12,5.165-.567,6.2-2.049,9.974-1.553,2.957.388,3.478,1.454,5.474,1.822-.046.251-.09.5-.132.729-.142.78-.267,1.5-.379,2.178" transform="translate(-5.042 -3.799)" fill="#5a5e28"/>
      <path id="Path_1905" data-name="Path 1905" d="M51.7,8.938q-.354,1.448-.638,2.728a8.323,8.323,0,0,1-1.716-1.956C48.007,7.523,41.972.585,41.972.585c1.325.267,4.561,3.021,5.045,3.432A32.532,32.532,0,0,1,51.7,8.938" transform="translate(-9.116 -0.562)" fill="#9c9e7e"/>
      <path id="Path_1906" data-name="Path 1906" d="M50.922,11.661c-.241,1.091-.448,2.092-.621,3a44.2,44.2,0,0,1-5.038-6.533C44.19,6.581,40.569,1.357,41.378.64A.514.514,0,0,1,41.83.579s6.035,6.938,7.376,9.127a8.375,8.375,0,0,0,1.716,1.956" transform="translate(-8.974 -0.556)" fill="#5a5e28"/>
      <path id="Path_1907" data-name="Path 1907" d="M32.813,12.629a8.4,8.4,0,0,0,5.1-1.985,16.736,16.736,0,0,1-8.873,4C24,15.3,20.217,13.4,17.554,12.061,13.428,9.99,9.574,6.7,10.024,5.843c0,0,10.429,3.936,15.906,5.687s6.875,1.389,6.875,1.389Z" transform="translate(-2.731 -1.611)" fill="#9c9e7e"/>
      <path id="Path_1908" data-name="Path 1908" d="M32.822,12.588l-.007.29s-1.4.365-6.875-1.389S10.033,5.8,10.033,5.8c.314-.591,2.383.5,9.115,1.841,5.109,1.022,6.035.816,8.123,1.989C29.694,11,30.1,12.2,32.079,12.519a5.839,5.839,0,0,0,.743.069" transform="translate(-2.74 -1.57)" fill="#5a5e28"/>
    </g>
  </g>
  <g id="Group_1477" data-name="Group 1477" transform="translate(96.027 6.089)">
    <g id="Group_1476" data-name="Group 1476" clip-path="url(#clip-path-2)">
      <path id="Path_1909" data-name="Path 1909" d="M210.413,19.151c.073.219.182.985-3.61,3.847-9.062,6.838-13.765,5.579-21.35,10.065-.948.564-3.629,2.205-4.649,1.33l.018-.018,29.555-15.207Z" transform="translate(-139.349 -10.87)" fill="#9c9e7e"/>
      <path id="Path_1910" data-name="Path 1910" d="M210.338,18.9l-.036.018c-.8.165-13.6,2.881-18.343,6.272-4.74,3.373-10.83,8.606-11.213,8.934l-.018.018a1.426,1.426,0,0,1-.419-1.04c-.11-2.3,4.266-9.589,13.383-13.272,7.329-2.954,16.063-2.9,16.646-.93" transform="translate(-139.274 -10.622)" fill="#9c9e7e"/>
      <path id="Path_1911" data-name="Path 1911" d="M210.379,19.173,180.824,34.379c.383-.329,6.473-5.561,11.213-8.934,4.741-3.391,17.54-6.109,18.342-6.272" transform="translate(-139.352 -10.874)" fill="#5a5e28"/>
      <path id="Path_1912" data-name="Path 1912" d="M175.852,36.635c5.288,0,9.591,5.761,9.591,12.891a14.6,14.6,0,0,1-3.865,10.32c0-1.113-.036-2.28-.128-3.483a55.557,55.557,0,0,0-3.373-15.37,18.377,18.377,0,0,0-2.443,3.5c-3.7,6.8-2.152,14.057-1.313,17.74-4.576-.966-8.058-6.29-8.058-12.708a15.608,15.608,0,0,1,2.48-8.642,4.873,4.873,0,0,0,2.206-2.425,7.738,7.738,0,0,1,4.9-1.823" transform="translate(-137.152 -13.512)" fill="#e5e06d"/>
      <path id="Path_1913" data-name="Path 1913" d="M183.859,63.978a54.547,54.547,0,0,1-1.878,14.787l-.621-12.982a8.165,8.165,0,0,0,2.5-1.8" transform="translate(-139.433 -17.645)" fill="#9c9e7e"/>
      <path id="Path_1914" data-name="Path 1914" d="M183.552,57.139c.091,1.2.127,2.37.127,3.483a8.179,8.179,0,0,1-2.5,1.8l-1-20.657a55.547,55.547,0,0,1,3.373,15.37" transform="translate(-139.255 -14.288)" fill="#e5e06d"/>
      <path id="Path_1915" data-name="Path 1915" d="M181.179,66.1l.62,12.982s-.893-6.838-1.641-12.58a4.395,4.395,0,0,0,1.021-.4" transform="translate(-139.252 -17.966)" fill="#9c9e7e"/>
      <path id="Path_1916" data-name="Path 1916" d="M180.026,41.769l1,20.657a4.4,4.4,0,0,1-1.02.4c-.238-1.768-.457-3.428-.621-4.759-.766-5.707.638-16.3.638-16.3" transform="translate(-139.101 -14.288)" fill="#e5e06d"/>
      <path id="Path_1917" data-name="Path 1917" d="M179.493,66.576c.748,5.743,1.641,12.58,1.641,12.58a35.377,35.377,0,0,1-5.342-12.215c-.019-.055-.019-.128-.036-.183a6.087,6.087,0,0,0,1.531.183,6.918,6.918,0,0,0,2.206-.365" transform="translate(-138.586 -18.037)" fill="#5a5e28"/>
      <path id="Path_1918" data-name="Path 1918" d="M178.687,58.069c.164,1.33.383,2.99.62,4.758a6.887,6.887,0,0,1-2.206.365,6.053,6.053,0,0,1-1.531-.183c-.839-3.683-2.388-10.939,1.313-17.74a18.416,18.416,0,0,1,2.443-3.5s-1.4,10.592-.638,16.3" transform="translate(-138.4 -14.288)" fill="#e5e06d"/>
      <path id="Path_1919" data-name="Path 1919" d="M170.139,29.2c1.313,1.4,2.316,1.823,2.225,2.1a.055.055,0,0,1-.036-.019l-.019-.018c-.018,0-.037-.019-.054-.037l-.2-.128c-.109-.054-.237-.145-.383-.237l-.291-.183L139.235,10.039,139.2,10c1.386-1.769,7.494.747,11.286,2.334,1.222.51,14.313,6.035,16.865,12.215a14.035,14.035,0,0,0,2.789,4.649" transform="translate(-133.061 -9.396)" fill="#5a5e28"/>
      <path id="Path_1920" data-name="Path 1920" d="M172.277,31.387a.056.056,0,0,0,.036.018c-.273.693-7.165-1.094-14.094-3.847-6.29-2.5-10.283-4.139-14.076-8.022-2.716-2.79-6.271-7.731-5.013-9.426h.019l.036.037c.821.619,12.034,9.024,17.3,11.832,4.449,2.37,12.107,7.11,14.842,8.806l.292.183c.145.091.273.183.383.237l.2.128c.019.018.036.037.055.037Z" transform="translate(-133.012 -9.504)" fill="#9c9e7e"/>
      <path id="Path_1921" data-name="Path 1921" d="M139.241,10.152l32.144,20.639c-2.735-1.7-10.393-6.436-14.842-8.806-5.269-2.807-16.482-11.214-17.3-11.832" transform="translate(-133.068 -9.51)" fill="#9c9e7e"/>
      <path id="Path_1922" data-name="Path 1922" d="M168.18,38.354a.867.867,0,0,1-.037.365,9.748,9.748,0,0,0-2.206,2.424,22.565,22.565,0,0,1-13.584,3.373,31,31,0,0,1-4.649-.912Z" transform="translate(-134.347 -13.772)" fill="#9c9e7e"/>
      <path id="Path_1923" data-name="Path 1923" d="M165.856,38.351,145.38,43.6a11.3,11.3,0,0,0-3.847-.128,18.071,18.071,0,0,0-7.585,3.064l-1.623.419a47.165,47.165,0,0,1,5.562-6.2c2.407-2.024,7.712-2.534,11.669-2.407,3.957.11,16.3,0,16.3,0" transform="translate(-132.023 -13.769)" fill="#9c9e7e"/>
      <path id="Path_1924" data-name="Path 1924" d="M169.182,41.208a9.748,9.748,0,0,1,2.206-2.424,4.867,4.867,0,0,1-2.206,2.424" transform="translate(-137.593 -13.837)" fill="#e5e06d"/>
      <path id="Path_1925" data-name="Path 1925" d="M165.8,37.653s-12.344.11-16.3,0c-3.957-.127-9.262.383-11.669,2.407a47.168,47.168,0,0,0-5.562,6.2c-1.221-1.058,1.277-8.423,7.111-11.4.967-.511,3.118-1.441,9.883-1.058,3.318.183,16.245.912,16.537,3.847" transform="translate(-131.969 -13.071)" fill="#5a5e28"/>
      <path id="Path_1926" data-name="Path 1926" d="M145.669,44.5l-11.432,2.935a18.062,18.062,0,0,1,7.585-3.063,11.284,11.284,0,0,1,3.847.127" transform="translate(-132.312 -14.665)" fill="#9c9e7e"/>
      <path id="Path_1927" data-name="Path 1927" d="M132.325,48.416,133.948,48c-.766.474-1.295.711-1.623.419" transform="translate(-132.023 -15.23)" fill="#9c9e7e"/>
    </g>
  </g>
  <g id="Group_1479" data-name="Group 1479" transform="translate(203.072 10.086)">
    <g id="Group_1478" data-name="Group 1478" clip-path="url(#clip-path-3)">
      <path id="Path_1928" data-name="Path 1928" d="M317.347,11.331v.606a3.271,3.271,0,0,1-.028.415c-6.4,1.279-16.148,2.921-25.479,2.817A144.029,144.029,0,0,1,267.047,12.4a2.8,2.8,0,0,1-.037-.468v-.178a3.506,3.506,0,0,1,3.507-3.505h43.752a3.075,3.075,0,0,1,3.077,3.077" transform="translate(-267.009 -8.254)" fill="#7a121c"/>
      <path id="Path_1929" data-name="Path 1929" d="M317.321,12.686a3.047,3.047,0,0,1-.206.762,3.158,3.158,0,0,1-.4.7,130.7,130.7,0,0,1-25.464,2.507,131.461,131.461,0,0,1-23.544-2.435h0a3.074,3.074,0,0,1-.656-1.476A144.213,144.213,0,0,0,291.841,15.5c9.332.1,19.078-1.539,25.479-2.818" transform="translate(-267.012 -8.588)" fill="#bdbfa9"/>
      <path id="Path_1930" data-name="Path 1930" d="M275.838,20.251c-2.9-.368-5.583-.8-7.846-1.264h-.022l0-.063a3.074,3.074,0,0,0,0-4.359,2.669,2.669,0,0,1-.205-.231,131.556,131.556,0,0,0,23.545,2.434,130.62,130.62,0,0,0,25.463-2.507,3.633,3.633,0,0,1-.267.3,3.081,3.081,0,0,0,0,4.359l-.014.234c-2.291.422-4.961.843-7.871,1.209a124.079,124.079,0,0,1-18.269,1.012c-4.862-.131-9.956-.55-14.509-1.127" transform="translate(-267.066 -8.707)" fill="#5a5e28"/>
      <path id="Path_1931" data-name="Path 1931" d="M316.5,19.544,314.19,68.952a3.726,3.726,0,0,1-3.723,3.547h-36.14a3.725,3.725,0,0,1-3.721-3.526l-2.619-49.6h.022c2.263.465,4.946.9,7.846,1.265L277.1,54.979l.955.26a4.185,4.185,0,0,1,2.778,2.468l.252.631h22.331l.255-.631a4.177,4.177,0,0,1,2.778-2.468l.955-.26L308.653,20.9l-.019-.143c2.91-.365,5.58-.787,7.871-1.209" transform="translate(-267.083 -9.092)" fill="#bdbfa9"/>
      <path id="Path_1932" data-name="Path 1932" d="M309.276,20.855l.019.143-1.248,34.084-.955.259a4.174,4.174,0,0,0-2.778,2.469l-.256.63h-22.33l-.252-.63a4.186,4.186,0,0,0-2.778-2.469l-.956-.259L276.5,20.739c4.554.577,9.647,1,14.509,1.127a124.084,124.084,0,0,0,18.27-1.012" transform="translate(-267.724 -9.195)" fill="#7a121c"/>
    </g>
  </g>
</svg>
