<svg id="components" xmlns="http://www.w3.org/2000/svg" xmlns:xlink="http://www.w3.org/1999/xlink" width="284.921" height="67.208" viewBox="0 0 284.921 67.208">
  <defs>
    <clipPath id="clip-path">
      <rect id="Rectangle_78" data-name="Rectangle 78" width="53.295" height="67.208" fill="none"/>
    </clipPath>
    <clipPath id="clip-path-2">
      <rect id="Rectangle_79" data-name="Rectangle 79" width="71.086" height="61.119" fill="none"/>
    </clipPath>
  </defs>
  <g id="Group_1474" data-name="Group 1474" clip-path="url(#clip-path)">
    <path id="Path_1883" data-name="Path 1883" d="M66.634,16.259c.143.555-1.343,1.916-3.46,2.781a7.284,7.284,0,0,0,1.113-2.3c1.317-.244,2.347-.486,2.347-.486" transform="translate(-13.349 -3.691)" fill="#5a5e28"/>
    <path id="Path_1884" data-name="Path 1884" d="M64.569,16.057c1.35-.054,2.239-.258,2.343.142,0,0-1.03.242-2.347.486a1.085,1.085,0,0,0,0-.627" transform="translate(-13.627 -3.631)" fill="#9c9e7e"/>
    <path id="Path_1885" data-name="Path 1885" d="M64.367,16.082a1.085,1.085,0,0,1,0,.627c-.261.05-.535.1-.81.138.322-.354.567-.631.69-.76l.124-.006" transform="translate(-13.425 -3.656)" fill="#9c9e7e"/>
    <path id="Path_1886" data-name="Path 1886" d="M62.912,17c.275-.042.55-.088.81-.138a7.3,7.3,0,0,1-1.113,2.295,10.686,10.686,0,0,1-2.266.642c.832-.884,1.871-2.03,2.568-2.8" transform="translate(-12.784 -3.812)" fill="#5a5e28"/>
    <path id="Path_1887" data-name="Path 1887" d="M63.8,16.089c-.123.129-.368.407-.69.76-.593.1-1.209.19-1.794.256.763-.414,1.368-.8,1.808-1.009.235.006.46,0,.676-.007" transform="translate(-12.977 -3.657)" fill="#9c9e7e"/>
    <path id="Path_1888" data-name="Path 1888" d="M61.958,17.039c-.7.768-1.736,1.914-2.568,2.8a7.981,7.981,0,0,1-2.877-.03,5.294,5.294,0,0,1-.951-.279c.053-.235.111-.472.17-.716a12.532,12.532,0,0,0,4.432-1.517c.586-.066,1.2-.155,1.794-.255" transform="translate(-11.829 -3.847)" fill="#5a5e28"/>
    <path id="Path_1889" data-name="Path 1889" d="M58.577,14.974a9.89,9.89,0,0,0,3.563.705c-.441.207-1.045.6-1.809,1.009a6.7,6.7,0,0,1-2.608-.067c-.379-.153-.832-.363-1.317-.619.052-.23.1-.459.157-.7.085-.4.182-.827.283-1.3a7.155,7.155,0,0,0,1.73.973" transform="translate(-11.998 -3.24)" fill="#9c9e7e"/>
    <path id="Path_1890" data-name="Path 1890" d="M59.083,20.375a10.686,10.686,0,0,0,2.266-.642,13.176,13.176,0,0,1-4.75,4.26,10.427,10.427,0,0,1-2.565.933c.2-.788.443-1.71.718-2.82,1.7-.117,2.96-.332,3.33-.692.242-.238.6-.606,1-1.04" transform="translate(-11.524 -4.384)" fill="#9c9e7e"/>
    <path id="Path_1891" data-name="Path 1891" d="M59.263,20.458c-.4.434-.76.8-1,1.04-.37.359-1.634.575-3.33.692.155-.617.323-1.294.5-2.04a5.286,5.286,0,0,0,.95.279,8,8,0,0,0,2.877.03" transform="translate(-11.703 -4.467)" fill="#5a5e28"/>
    <path id="Path_1892" data-name="Path 1892" d="M43.09,44.138a9.612,9.612,0,0,1-.367,3.31A20.94,20.94,0,0,1,40.6,53.459c-4.093,7.355-14.127,14.37-14.127,14.37-5.663,4.273-12.71,9.453-20.464,8.265C4.144,75.8.883,74.945.921,74.151c.03-.7,2.649-.916,4.994-1.47,9.736-2.3,15.886-10.758,16.957-12.234a61.977,61.977,0,0,0,5.062-8.892,31.655,31.655,0,0,1,5.611-8.394.033.033,0,0,0,.014-.017,3.906,3.906,0,0,0,2.011.57c.86-.01,1.293-.353,1.9-.07.595.274.515.738,1.05.928.691.247,1.154-.4,1.91-.4.505.006,1.257.306,2.179,1.81a18.64,18.64,0,0,0,.475-1.846" transform="translate(-0.921 -9.058)" fill="#7a121c"/>
    <path id="Path_1893" data-name="Path 1893" d="M51.231,43.576a18.642,18.642,0,0,1-.475,1.846c-.923-1.5-1.674-1.8-2.179-1.81-.756,0-1.219.643-1.91.4-.535-.19-.455-.654-1.05-.928-.612-.283-1.044.06-1.9.07a3.906,3.906,0,0,1-2.011-.57,6.463,6.463,0,0,1,3.059-2.06c2.211-.6,5.148.2,6.172,2.162a2.779,2.779,0,0,1,.3.893" transform="translate(-9.062 -8.496)" fill="#e5e06d"/>
    <path id="Path_1894" data-name="Path 1894" d="M51.482,38.907a18.288,18.288,0,0,1-.272,1.851,2.81,2.81,0,0,0-.3-.893c-1.024-1.965-3.962-2.758-6.172-2.162a6.469,6.469,0,0,0-3.059,2.06l-.082-.047a21.94,21.94,0,0,0,5.642-6.951A20.941,20.941,0,0,0,49.195,26.5a12.262,12.262,0,0,0,2.356-.281c-.752,2.936-.972,4.051-.619,6.05a21.277,21.277,0,0,1,.55,6.637" transform="translate(-9.041 -5.679)" fill="#5a5e28"/>
    <path id="Path_1895" data-name="Path 1895" d="M57.6,17.121a6.685,6.685,0,0,0,2.608.067A12.538,12.538,0,0,1,55.774,18.7c.157-.678.331-1.409.506-2.2.485.255.939.465,1.317.618" transform="translate(-11.872 -3.74)" fill="#5a5e28"/>
    <path id="Path_1896" data-name="Path 1896" d="M57.768,5.278c-.514,2.768-.992,5.115-1.377,6.914a12.808,12.808,0,0,1-2.263-2.384c.366-1.505.8-3.136,1.29-4.871.785.113,1.565.229,2.349.342" transform="translate(-11.543 -1.43)" fill="#5a5e28"/>
    <path id="Path_1897" data-name="Path 1897" d="M56.232,13.406c-.1.475-.2.906-.283,1.3-.054.24-.1.47-.157.7a13.724,13.724,0,0,1-2.461-1.658c.189-.856.4-1.763.639-2.728a12.757,12.757,0,0,0,2.263,2.384" transform="translate(-11.384 -2.645)" fill="#9c9e7e"/>
    <path id="Path_1898" data-name="Path 1898" d="M55.638,16.089c-.175.792-.349,1.524-.507,2.2a10.336,10.336,0,0,1-1.411.078,8.319,8.319,0,0,1-1.165-.941c.173-.905.38-1.906.621-3a13.724,13.724,0,0,0,2.461,1.658" transform="translate(-11.229 -3.326)" fill="#5a5e28"/>
    <path id="Path_1899" data-name="Path 1899" d="M55.422,19.254c-.059.244-.118.483-.17.717a6,6,0,0,1-1.241-.639,10.334,10.334,0,0,0,1.411-.078" transform="translate(-11.52 -4.289)" fill="#5a5e28"/>
    <path id="Path_1900" data-name="Path 1900" d="M54.794,19.961c-.182.746-.349,1.422-.5,2.04-.783.056-1.654.089-2.572.109.111-.678.237-1.4.379-2.178.042-.231.086-.479.132-.73a7.773,7.773,0,0,0,1.092.114c.075,0,.157.006.234.006a5.961,5.961,0,0,0,1.241.639" transform="translate(-11.062 -4.278)" fill="#5a5e28"/>
    <path id="Path_1901" data-name="Path 1901" d="M54.164,22.7c-.275,1.11-.518,2.032-.718,2.819a12.254,12.254,0,0,1-2.356.281c.162-.908.32-1.887.5-2.991.919-.019,1.789-.053,2.572-.109" transform="translate(-10.937 -4.976)" fill="#9c9e7e"/>
    <path id="Path_1902" data-name="Path 1902" d="M53.68,19.117c-.077,0-.158,0-.234-.006A7.767,7.767,0,0,1,52.355,19c.054-.266.1-.536.161-.822a8.172,8.172,0,0,0,1.165.941" transform="translate(-11.189 -4.074)" fill="#5a5e28"/>
    <path id="Path_1903" data-name="Path 1903" d="M45.7,22.012c-.182,1.1-.339,2.084-.5,2.991-2.955.078-6.456-.732-11.3-1.878-6.184-1.469-12.5-3.711-12.332-4.408,0,0,10.816,2.88,15.464,3.124,2.336.124,5.735.228,8.67.172" transform="translate(-5.041 -4.181)" fill="#9c9e7e"/>
    <path id="Path_1904" data-name="Path 1904" d="M45.7,21.63c-2.935.056-6.333-.048-8.67-.172-4.648-.244-15.464-3.124-15.464-3.124.124-.512,3.557.739,9.2.12,5.165-.567,6.2-2.049,9.974-1.553,2.957.388,3.478,1.454,5.474,1.822-.046.251-.09.5-.132.729-.142.78-.267,1.5-.379,2.178" transform="translate(-5.042 -3.799)" fill="#5a5e28"/>
    <path id="Path_1905" data-name="Path 1905" d="M51.7,8.938q-.354,1.448-.638,2.728a8.323,8.323,0,0,1-1.716-1.956C48.007,7.523,41.972.585,41.972.585c1.325.267,4.561,3.021,5.045,3.432A32.532,32.532,0,0,1,51.7,8.938" transform="translate(-9.116 -0.562)" fill="#9c9e7e"/>
    <path id="Path_1906" data-name="Path 1906" d="M50.922,11.661c-.241,1.091-.448,2.092-.621,3a44.2,44.2,0,0,1-5.038-6.533C44.19,6.581,40.569,1.357,41.378.64A.514.514,0,0,1,41.83.579s6.035,6.938,7.376,9.127a8.375,8.375,0,0,0,1.716,1.956" transform="translate(-8.974 -0.556)" fill="#5a5e28"/>
    <path id="Path_1907" data-name="Path 1907" d="M32.813,12.629a8.4,8.4,0,0,0,5.1-1.985,16.736,16.736,0,0,1-8.873,4C24,15.3,20.217,13.4,17.554,12.061,13.428,9.99,9.574,6.7,10.024,5.843c0,0,10.429,3.936,15.906,5.687s6.875,1.389,6.875,1.389Z" transform="translate(-2.731 -1.611)" fill="#9c9e7e"/>
    <path id="Path_1908" data-name="Path 1908" d="M32.822,12.588l-.007.29s-1.4.365-6.875-1.389S10.033,5.8,10.033,5.8c.314-.591,2.383.5,9.115,1.841,5.109,1.022,6.035.816,8.123,1.989C29.694,11,30.1,12.2,32.079,12.519a5.839,5.839,0,0,0,.743.069" transform="translate(-2.74 -1.57)" fill="#5a5e28"/>
  </g>
  <g id="Group_1476" data-name="Group 1476" transform="translate(96.027 6.088)" clip-path="url(#clip-path-2)">
    <path id="Path_1909" data-name="Path 1909" d="M210.413,19.151c.073.219.182.985-3.61,3.847-9.062,6.838-13.765,5.579-21.35,10.065-.948.564-3.629,2.205-4.649,1.33l.018-.018,29.555-15.207Z" transform="translate(-139.349 -10.87)" fill="#9c9e7e"/>
    <path id="Path_1910" data-name="Path 1910" d="M210.338,18.9l-.036.018c-.8.165-13.6,2.881-18.343,6.272-4.74,3.373-10.83,8.606-11.213,8.934l-.018.018a1.426,1.426,0,0,1-.419-1.04c-.11-2.3,4.266-9.589,13.383-13.272,7.329-2.954,16.063-2.9,16.646-.93" transform="translate(-139.274 -10.622)" fill="#9c9e7e"/>
    <path id="Path_1911" data-name="Path 1911" d="M210.379,19.173,180.824,34.379c.383-.329,6.473-5.561,11.213-8.934,4.741-3.391,17.54-6.109,18.342-6.272" transform="translate(-139.352 -10.874)" fill="#5a5e28"/>
    <path id="Path_1912" data-name="Path 1912" d="M175.852,36.635c5.288,0,9.591,5.761,9.591,12.891a14.6,14.6,0,0,1-3.865,10.32c0-1.113-.036-2.28-.128-3.483a55.557,55.557,0,0,0-3.373-15.37,18.377,18.377,0,0,0-2.443,3.5c-3.7,6.8-2.152,14.057-1.313,17.74-4.576-.966-8.058-6.29-8.058-12.708a15.608,15.608,0,0,1,2.48-8.642,4.873,4.873,0,0,0,2.206-2.425,7.738,7.738,0,0,1,4.9-1.823" transform="translate(-137.152 -13.512)" fill="#e5e06d"/>
    <path id="Path_1913" data-name="Path 1913" d="M183.859,63.978a54.547,54.547,0,0,1-1.878,14.787l-.621-12.982a8.165,8.165,0,0,0,2.5-1.8" transform="translate(-139.433 -17.645)" fill="#9c9e7e"/>
    <path id="Path_1914" data-name="Path 1914" d="M183.552,57.139c.091,1.2.127,2.37.127,3.483a8.179,8.179,0,0,1-2.5,1.8l-1-20.657a55.547,55.547,0,0,1,3.373,15.37" transform="translate(-139.255 -14.288)" fill="#e5e06d"/>
    <path id="Path_1915" data-name="Path 1915" d="M181.179,66.1l.62,12.982s-.893-6.838-1.641-12.58a4.395,4.395,0,0,0,1.021-.4" transform="translate(-139.252 -17.966)" fill="#9c9e7e"/>
    <path id="Path_1916" data-name="Path 1916" d="M180.026,41.769l1,20.657a4.4,4.4,0,0,1-1.02.4c-.238-1.768-.457-3.428-.621-4.759-.766-5.707.638-16.3.638-16.3" transform="translate(-139.101 -14.288)" fill="#e5e06d"/>
    <path id="Path_1917" data-name="Path 1917" d="M179.493,66.576c.748,5.743,1.641,12.58,1.641,12.58a35.377,35.377,0,0,1-5.342-12.215c-.019-.055-.019-.128-.036-.183a6.087,6.087,0,0,0,1.531.183,6.918,6.918,0,0,0,2.206-.365" transform="translate(-138.586 -18.037)" fill="#5a5e28"/>
    <path id="Path_1918" data-name="Path 1918" d="M178.687,58.069c.164,1.33.383,2.99.62,4.758a6.887,6.887,0,0,1-2.206.365,6.053,6.053,0,0,1-1.531-.183c-.839-3.683-2.388-10.939,1.313-17.74a18.416,18.416,0,0,1,2.443-3.5s-1.4,10.592-.638,16.3" transform="translate(-138.4 -14.288)" fill="#e5e06d"/>
    <path id="Path_1919" data-name="Path 1919" d="M170.139,29.2c1.313,1.4,2.316,1.823,2.225,2.1a.055.055,0,0,1-.036-.019l-.019-.018c-.018,0-.037-.019-.054-.037l-.2-.128c-.109-.054-.237-.145-.383-.237l-.291-.183L139.235,10.039,139.2,10c1.386-1.769,7.494.747,11.286,2.334,1.222.51,14.313,6.035,16.865,12.215a14.035,14.035,0,0,0,2.789,4.649" transform="translate(-133.061 -9.396)" fill="#5a5e28"/>
    <path id="Path_1920" data-name="Path 1920" d="M172.277,31.387a.056.056,0,0,0,.036.018c-.273.693-7.165-1.094-14.094-3.847-6.29-2.5-10.283-4.139-14.076-8.022-2.716-2.79-6.271-7.731-5.013-9.426h.019l.036.037c.821.619,12.034,9.024,17.3,11.832,4.449,2.37,12.107,7.11,14.842,8.806l.292.183c.145.091.273.183.383.237l.2.128c.019.018.036.037.055.037Z" transform="translate(-133.012 -9.504)" fill="#9c9e7e"/>
    <path id="Path_1921" data-name="Path 1921" d="M139.241,10.152l32.144,20.639c-2.735-1.7-10.393-6.436-14.842-8.806-5.269-2.807-16.482-11.214-17.3-11.832" transform="translate(-133.068 -9.51)" fill="#9c9e7e"/>
    <path id="Path_1922" data-name="Path 1922" d="M168.18,38.354a.867.867,0,0,1-.037.365,9.748,9.748,0,0,0-2.206,2.424,22.565,22.565,0,0,1-13.584,3.373,31,31,0,0,1-4.649-.912Z" transform="translate(-134.347 -13.772)" fill="#9c9e7e"/>
    <path id="Path_1923" data-name="Path 1923" d="M165.856,38.351,145.38,43.6a11.3,11.3,0,0,0-3.847-.128,18.071,18.071,0,0,0-7.585,3.064l-1.623.419a47.165,47.165,0,0,1,5.562-6.2c2.407-2.024,7.712-2.534,11.669-2.407,3.957.11,16.3,0,16.3,0" transform="translate(-132.023 -13.769)" fill="#9c9e7e"/>
    <path id="Path_1924" data-name="Path 1924" d="M169.182,41.208a9.748,9.748,0,0,1,2.206-2.424,4.867,4.867,0,0,1-2.206,2.424" transform="translate(-137.593 -13.837)" fill="#e5e06d"/>
    <path id="Path_1925" data-name="Path 1925" d="M165.8,37.653s-12.344.11-16.3,0c-3.957-.127-9.262.383-11.669,2.407a47.168,47.168,0,0,0-5.562,6.2c-1.221-1.058,1.277-8.423,7.111-11.4.967-.511,3.118-1.441,9.883-1.058,3.318.183,16.245.912,16.537,3.847" transform="translate(-131.969 -13.071)" fill="#5a5e28"/>
    <path id="Path_1926" data-name="Path 1926" d="M145.669,44.5l-11.432,2.935a18.062,18.062,0,0,1,7.585-3.063,11.284,11.284,0,0,1,3.847.127" transform="translate(-132.312 -14.665)" fill="#9c9e7e"/>
    <path id="Path_1927" data-name="Path 1927" d="M132.325,48.416,133.948,48c-.766.474-1.295.711-1.623.419" transform="translate(-132.023 -15.23)" fill="#9c9e7e"/>
  </g>
  <g id="Group_2058" data-name="Group 2058" transform="translate(181.968 -4789.134)">
    <path id="Path_2251" data-name="Path 2251" d="M215.627,161.559c-1.408,3.5-1.51,7.9,1.4,10.716,2.368,2.293,5.55,1.727,7.523-.751,2.285-2.869,3.515-7.363,1.673-10.749A7.341,7.341,0,0,0,219.132,157c-3.841.434-5.279,4.074-4.54,7.484.109.506.827.355.86-.116.2-2.937,1.413-6.11,4.889-5.865a6.035,6.035,0,0,1,5.464,6.075c.01,3.167-2.579,9.714-6.791,7.8-3.845-1.749-3.957-7.268-2.791-10.657.131-.382-.451-.525-.6-.164" transform="translate(-166.582 4659.037)" fill="#90c3dd"/>
    <path id="Path_2252" data-name="Path 2252" d="M227.766,162.543c.574.339,1.321.069,1.98.237a7.072,7.072,0,0,1,3.145,2c1.979,2.017,3.54,5.547,1.109,7.878-1.7,1.632-4.668,1.585-6.771.923-2.39-.751-2.828-1.9-3.4-4.1a.521.521,0,0,0-.756-.307c-3.039,1.836.121,5.181,2.206,6.12,2.925,1.32,7,1.408,9.641-.61,3-2.291,2.57-6.467.653-9.324-1.51-2.253-4.77-5.227-7.661-3.66a.534.534,0,0,0-.267.464c0,.056,0,.112,0,.167a.249.249,0,0,0,.122.212" transform="translate(-163.065 4661.077)" fill="#90c3dd"/>
    <path id="Path_2253" data-name="Path 2253" d="M224.472,157.409c.829-2.069.625-4.481,3.4-4.876,2.265-.321,4.721.79,6.529,2.055,1.9,1.331,3.757,3.393,3.878,5.828.174,3.506-3.248,5.2-5.231,7.489a.566.566,0,0,0,.547.936,8.238,8.238,0,0,0,4.849-13.152c-2.555-3.239-8.3-6.52-12.456-4.434-2.126,1.069-3.232,4.154-1.774,6.187a.144.144,0,0,0,.258-.034" transform="translate(-162.243 4656.019)" fill="#90c3dd"/>
    <path id="Path_2254" data-name="Path 2254" d="M205.073,169.709c-1.609-.413-3.024,1.452-3.6,2.723a7.454,7.454,0,0,0-.305,5.022c.848,3.123,3.665,6.35,7.157,6.165,4.077-.217,6.659-5.138,6.809-8.767a8.035,8.035,0,0,0-5.481-8.033c-4.88-1.374-8.089,3.213-8.111,7.567a.764.764,0,0,0,1.492.2c1.168-3,3.2-6.871,6.98-4.979,3.648,1.825,3.609,6.479,1.687,9.546-2.193,3.5-5.882,3.117-7.989-.249a6.685,6.685,0,0,1-1.02-4.8c.352-1.737,2.07-2.644,2.467-4.236a.133.133,0,0,0-.09-.158" transform="translate(-173 4663.596)" fill="#90c3dd"/>
    <path id="Path_2257" data-name="Path 2257" d="M227.522,161.865c-1.933-.865-4.4,2.182-5.218,3.661-1.211,2.194-1.65,5.775.153,7.741a.694.694,0,0,0,1.153-.3c.33-2.277-.512-4.282.512-6.529a7.538,7.538,0,0,1,2.011-2.611c.652-.553,1.314-.865,1.474-1.746a.2.2,0,0,0-.086-.212" transform="translate(-163.336 4661.291)" fill="#90c3dd"/>
    <path id="Path_2258" data-name="Path 2258" d="M224.517,153.328c-1.892,1.24-1.856,5.591-1.578,7.536.332,2.319,2.2,6.414,5.113,5.761a.641.641,0,0,0,.376-.927c-.485-1.06-1.52-1.4-2.257-2.284a7.113,7.113,0,0,1-1.436-4.236c-.088-1.651.752-4.327,0-5.79a.163.163,0,0,0-.223-.059" transform="translate(-162.6 4657.302)" fill="#90c3dd"/>
    <path id="Path_2259" data-name="Path 2259" d="M245.546,176.363c.547.715,2.769,4.441,1.326,5.01a2.056,2.056,0,0,1-2.589-1.62c.021-1.345,1.486-1.392,2.293-2.083a.651.651,0,0,0-.13-1.01c-1.812-1.356-4.03,1.166-4.151,2.885-.162,2.325,1.909,3.729,4.049,3.751A2.548,2.548,0,0,0,249,180.131a6.584,6.584,0,0,0-2.813-4.407c-.373-.243-.926.262-.64.64" transform="translate(-153.354 4667.908)" fill="#90c3dd"/>
    <path id="Path_2260" data-name="Path 2260" d="M246.418,165.681a4.618,4.618,0,0,1,1.659-.913,4.13,4.13,0,0,1,1.976.23.474.474,0,0,0,.363-.863c-3.114-1.575-7.018,3.464-4.652,6.051a3.606,3.606,0,0,0,4.625.336,4.38,4.38,0,0,0,1.594-3.963c-.19-1.368-2-3.108-3.257-1.634a.393.393,0,0,0,.171.647c.473.142,1.081-.021,1.492.279a1.679,1.679,0,0,1,.485,1.352,2.985,2.985,0,0,1-2.06,2.974,2.091,2.091,0,0,1-2.563-2.835c.484-1.387,2.073-3.146,3.688-2.392l.363-.861c-1.349-.367-3.842-.466-4.195,1.354a.215.215,0,0,0,.311.237" transform="translate(-152.049 4662.299)" fill="#90c3dd"/>
    <path id="Path_2262" data-name="Path 2262" d="M216.034,161.9c-1.327,2.529-.1,6.6,1.451,8.8.081.111.316.091.295-.081a25.984,25.984,0,0,0-1.159-3.814,17.234,17.234,0,0,1-.38-4.848.112.112,0,0,0-.206-.056" transform="translate(-166.077 4661.356)" fill="#90c3dd"/>
    <path id="Path_2263" data-name="Path 2263" d="M216.564,162.741c-.8,2.207-.066,6.644,1.747,8.232a.2.2,0,0,0,.33-.193c-.242-1.374-.954-2.632-1.225-4.021-.258-1.32-.142-2.768-.662-4.018a.1.1,0,0,0-.19,0" transform="translate(-165.711 4661.745)" fill="#90c3dd"/>
    <path id="Path_2264" data-name="Path 2264" d="M217.4,163.711c-.715.56-.181,2.619-.016,3.359.223.975.652,2.925,1.824,3.176a.2.2,0,0,0,.245-.245,5.579,5.579,0,0,0-.633-1.292,9.04,9.04,0,0,1-.709-2.176c-.124-.59-.209-1.194-.3-1.79-.058-.364.009-.767-.268-1.032a.1.1,0,0,0-.139,0" transform="translate(-165.331 4662.226)" fill="#90c3dd"/>
    <path id="Path_2265" data-name="Path 2265" d="M218.562,164.932a2.307,2.307,0,0,0-.212,2.076,3.411,3.411,0,0,0,1.165,2.057.19.19,0,0,0,.282-.162,3.822,3.822,0,0,0-.546-1.694,3.911,3.911,0,0,1-.369-2.142.176.176,0,0,0-.32-.134" transform="translate(-164.78 4662.778)" fill="#90c3dd"/>
    <path id="Path_2266" data-name="Path 2266" d="M219.47,165.18a4.148,4.148,0,0,0-.2,1.985c.077.528.156,1.241.681,1.5a.149.149,0,0,0,.215-.087c.173-.444-.072-.868-.162-1.315a5.077,5.077,0,0,1-.025-1.939.263.263,0,0,0-.507-.14" transform="translate(-164.295 4662.848)" fill="#90c3dd"/>
    <path id="Path_2267" data-name="Path 2267" d="M220.124,165.175c-.018.111-.121.177-.153.3a3,3,0,0,0-.034.641c0,.346-.093.807.19,1.056a.234.234,0,0,0,.323,0c.283-.249.193-.711.19-1.056a4.058,4.058,0,0,0-.029-.6c-.025-.146-.14-.223-.158-.344a.172.172,0,0,0-.329,0" transform="translate(-163.965 4662.876)" fill="#90c3dd"/>
    <path id="Path_2268" data-name="Path 2268" d="M223.832,165.173c-.73,1.995,0,5.538,1.794,6.788a.217.217,0,0,0,.317-.243,23.749,23.749,0,0,1-1.306-3.2,24.564,24.564,0,0,0-.582-3.349.116.116,0,0,0-.223,0" transform="translate(-162.242 4662.893)" fill="#90c3dd"/>
    <path id="Path_2269" data-name="Path 2269" d="M225.236,166.482c-.746.908-.345,2.458-.016,3.452s1.035,2.773,2.352,2.586a.172.172,0,0,0,.1-.249,14.341,14.341,0,0,1-1.572-2.58c-.261-.715-.777-2.12-.422-2.869.125-.264-.226-.6-.442-.339" transform="translate(-161.644 4663.508)" fill="#90c3dd"/>
    <path id="Path_2270" data-name="Path 2270" d="M226.337,167.407a4.184,4.184,0,0,0,.4,2.744c.364.811.93,1.7,1.9,1.659.112,0,.223-.139.142-.245a8.918,8.918,0,0,1-1.358-2.057c-.271-.69-.4-1.432-.661-2.1a.223.223,0,0,0-.426,0" transform="translate(-160.966 4663.917)" fill="#90c3dd"/>
    <path id="Path_2271" data-name="Path 2271" d="M227.641,167.5c-.084,1.476.218,3.478,1.8,4.018.127.043.209-.1.158-.206a8.94,8.94,0,0,1-1.268-3.811.344.344,0,0,0-.689,0" transform="translate(-160.308 4663.88)" fill="#90c3dd"/>
    <path id="Path_2272" data-name="Path 2272" d="M228.684,167.89c.055.86.571,3.376,1.833,3.163a.185.185,0,0,0,.127-.223c-.094-.481-.6-.839-.821-1.28a15.693,15.693,0,0,1-.563-1.737c-.108-.289-.6-.273-.575.077" transform="translate(-159.808 4664.089)" fill="#90c3dd"/>
    <path id="Path_2273" data-name="Path 2273" d="M229.7,167.375a10.488,10.488,0,0,0,1.354,3.048.206.206,0,0,0,.349-.143,7.5,7.5,0,0,0-1.128-3.146c-.172-.3-.7-.1-.575.242" transform="translate(-159.337 4663.792)" fill="#90c3dd"/>
    <path id="Path_2274" data-name="Path 2274" d="M225.171,155.008c-.939,1.314-.728,4.45-.635,5.992.084,1.4.358,3.639,1.917,4.139.18.057.289-.146.223-.292a12.116,12.116,0,0,1-1.122-2.54,13.147,13.147,0,0,1-.174-3.052c.04-1.234.641-3.117.072-4.246a.164.164,0,0,0-.28,0" transform="translate(-161.817 4658.072)" fill="#90c3dd"/>
    <path id="Path_2275" data-name="Path 2275" d="M226.094,157.375c-.758.9-.52,2.269-.279,3.34.248,1.1.615,3.049,1.553,3.8a.138.138,0,0,0,.226-.059c.316-.936-.345-2.077-.628-2.964a13.355,13.355,0,0,1-.453-3.944c-.006-.195-.273-.344-.419-.173" transform="translate(-161.281 4659.197)" fill="#90c3dd"/>
    <path id="Path_2276" data-name="Path 2276" d="M227.031,158.789a25.51,25.51,0,0,0,.375,3.306,3.326,3.326,0,0,0,1.34,2.571.235.235,0,0,0,.351-.2c-.1-1.022-.537-1.985-.7-3a7.229,7.229,0,0,0-.737-2.843.342.342,0,0,0-.633.171" transform="translate(-160.592 4659.748)" fill="#90c3dd"/>
    <path id="Path_2277" data-name="Path 2277" d="M228.265,159.31c-.162.879-.134,5.56,1.591,5.071a.2.2,0,0,0,.143-.143,1.142,1.142,0,0,0-.237-.777,4.758,4.758,0,0,1-.47-1.343,25.386,25.386,0,0,0-.341-2.807c-.1-.308-.619-.369-.686,0" transform="translate(-160.036 4660.03)" fill="#90c3dd"/>
    <path id="Path_2278" data-name="Path 2278" d="M229.269,160.206c-.05.577.413,4.114,1.56,3.463.49-.279-.22-1.1-.339-1.4a12.837,12.837,0,0,0-.612-2.226.329.329,0,0,0-.609.164" transform="translate(-159.532 4660.423)" fill="#90c3dd"/>
    <path id="Path_2279" data-name="Path 2279" d="M230.5,160.288a8.536,8.536,0,0,0,.994,3.323c.128.174.457.14.447-.121a8.8,8.8,0,0,0-.864-3.444c-.173-.332-.646-.094-.577.242" transform="translate(-158.949 4660.424)" fill="#90c3dd"/>
    <path id="Path_2283" data-name="Path 2283" d="M202.625,171.987l-.013.018c.133.433.8.149.569-.239a3.2,3.2,0,0,0-.3-.382.351.351,0,0,0-.594.246,14.432,14.432,0,0,0,3.205,7.225.229.229,0,0,0,.38-.221c-.375-1.289-.979-2.517-1.476-3.763a19.088,19.088,0,0,0-1.46-3.416c-.184.139-.366.28-.549.42a1.379,1.379,0,0,1,.3.265c.043-.173.088-.345.137-.519-.055.012-.109.024-.162.032-.192-.015-.229.292-.044.333" transform="translate(-172.332 4665.831)" fill="#90c3dd"/>
    <path id="Path_2284" data-name="Path 2284" d="M203.824,172.384c.419,2.1.924,4.746,2.465,6.349a.189.189,0,0,0,.313-.183c-.317-1.073-.9-2.057-1.3-3.1s-.755-2.1-1.063-3.179a.216.216,0,0,0-.416.114" transform="translate(-171.605 4666.226)" fill="#90c3dd"/>
    <path id="Path_2285" data-name="Path 2285" d="M206.044,173.033a4.149,4.149,0,0,0-.305,3.281c.234.978.641,2.421,1.56,2.946a.19.19,0,0,0,.283-.162,13.023,13.023,0,0,0-.982-2.626,10.89,10.89,0,0,1-.22-3.347.182.182,0,0,0-.336-.091" transform="translate(-170.784 4666.622)" fill="#90c3dd"/>
    <path id="Path_2286" data-name="Path 2286" d="M206.686,173.687a5.888,5.888,0,0,0,1,4.345c.086.108.258.015.26-.106a7.2,7.2,0,0,0-.38-2.013c-.2-.733-.232-1.511-.46-2.226a.218.218,0,0,0-.417,0" transform="translate(-170.286 4666.898)" fill="#90c3dd"/>
    <path id="Path_2287" data-name="Path 2287" d="M207.677,173.81a3.142,3.142,0,0,0,.428,3.058c.155.186.436.024.448-.187a13.18,13.18,0,0,0-.118-1.415,5.022,5.022,0,0,0-.1-1.367.368.368,0,0,0-.662-.088" transform="translate(-169.887 4666.948)" fill="#90c3dd"/>
    <path id="Path_2294" data-name="Path 2294" d="M226.269,174.447c-.644-.209-1.348.659-1.592,1.168a3.37,3.37,0,0,0-.229,2.179,3.8,3.8,0,0,0,3.3,2.946,4.749,4.749,0,0,0,4.553-2.909,3.087,3.087,0,0,0-1.989-3.7c-1.514-.656-4.832-.571-5,1.589a.345.345,0,0,0,.344.345,19.109,19.109,0,0,0,2.117-.82,3.245,3.245,0,0,1,2.176.231c1.713.836,1.43,2.508.006,3.517a2.79,2.79,0,0,1-4.2-.7,2.619,2.619,0,0,1-.318-1.973c.162-.622.876-1.188.9-1.79a.086.086,0,0,0-.059-.08" transform="translate(-161.857 4667.012)" fill="#90c3dd"/>
    <path id="Path_2295" data-name="Path 2295" d="M225.431,175.675a2.427,2.427,0,0,0,.062,2.2c.14.348.647,1.474,1.2,1.314.531-.158-.052-.854-.2-1.116a5.075,5.075,0,0,1-.479-1.286,3.1,3.1,0,0,0-.321-1.112.148.148,0,0,0-.252,0" transform="translate(-161.467 4667.881)" fill="#90c3dd"/>
    <path id="Path_2296" data-name="Path 2296" d="M226.18,176.321c-.018.049-.034.1-.052.146l.178-.177a.385.385,0,0,0-.346.4,2.681,2.681,0,0,0,1.2,2.591.255.255,0,0,0,.369-.285,19.481,19.481,0,0,1-.748-2.306.426.426,0,0,0-.3-.4l-.035-.007.178.177c-.009-.049-.016-.1-.025-.146-.037-.229-.354-.183-.416,0" transform="translate(-161.103 4668.148)" fill="#90c3dd"/>
    <path id="Path_2297" data-name="Path 2297" d="M227.091,176.251a.674.674,0,0,0-.3.494,3.071,3.071,0,0,0,.006.814,2.236,2.236,0,0,0,.644,1.333c.255.237.765.006.628-.366-.143-.391-.32-.753-.432-1.154a4.14,4.14,0,0,1-.1-.627.853.853,0,0,0-.206-.463.154.154,0,0,0-.237-.031" transform="translate(-160.718 4668.168)" fill="#90c3dd"/>
    <path id="Path_2298" data-name="Path 2298" d="M227.624,176.421a4.564,4.564,0,0,0,.267,1.529,2.6,2.6,0,0,0,.314.61,1.457,1.457,0,0,0,.582.411.188.188,0,0,0,.274-.209c-.041-.155-.035-.283-.063-.432a2.845,2.845,0,0,0-.27-.571,4.328,4.328,0,0,1-.382-1.339c-.052-.45-.736-.476-.722,0" transform="translate(-160.31 4668.104)" fill="#90c3dd"/>
    <path id="Path_2299" data-name="Path 2299" d="M215.37,172.548c.955-4.286,7.474-1.243,9.413.644,2.337,2.278,1.054,6.265-1.926,7.2a7.188,7.188,0,0,1-6.016-1.02c-2.212-1.553-2.01-3.315-1.768-5.7.063-.627-.781-.706-1.078-.29-1.958,2.753.251,6.3,2.788,7.683,2.726,1.482,6.613,1.6,8.894-.765,2.965-3.079,1.62-7.263-1.753-9.209-1.892-1.09-4.161-2.128-6.395-1.7-1.625.313-2.914,1.318-2.723,3.085.032.295.485.416.563.075" transform="translate(-167.132 4664.885)" fill="#90c3dd"/>
    <path id="Path_2300" data-name="Path 2300" d="M215.707,171c-1.134.268-1.271,2.85-1.272,3.779,0,1.278.36,3.309,1.83,3.654a.211.211,0,0,0,.258-.258c-.195-.579-.6-1.029-.829-1.6a5.342,5.342,0,0,1-.311-2.358c.06-.843.86-2.445.4-3.185a.062.062,0,0,0-.071-.029" transform="translate(-166.568 4665.697)" fill="#90c3dd"/>
    <path id="Path_2301" data-name="Path 2301" d="M216.031,172.992c-.839.5-.422,2.414-.257,3.191.2.957.669,2.408,1.821,2.5a.2.2,0,0,0,.186-.243c-.209-.983-.893-1.794-1.081-2.824-.128-.7.109-2.122-.5-2.6a.145.145,0,0,0-.17-.022" transform="translate(-166.051 4666.633)" fill="#90c3dd"/>
    <path id="Path_2302" data-name="Path 2302" d="M217.159,173.963c-.64.519-.563,1.952-.448,2.67.14.9.512,2.007,1.5,2.218a.206.206,0,0,0,.251-.249c-.193-.78-.637-1.438-.79-2.234a4.761,4.761,0,0,1-.091-1.277,3.414,3.414,0,0,0,.075-1c-.044-.24-.341-.258-.5-.131" transform="translate(-165.525 4667.066)" fill="#90c3dd"/>
    <path id="Path_2303" data-name="Path 2303" d="M217.876,174.814a6.677,6.677,0,0,0,.277,2.479c.167.487.413,1.272,1.023,1.287a.189.189,0,0,0,.174-.133c.17-.459-.242-1.06-.37-1.5a7.163,7.163,0,0,1-.3-2.135.4.4,0,0,0-.807,0" transform="translate(-164.942 4667.322)" fill="#90c3dd"/>
    <path id="Path_2304" data-name="Path 2304" d="M219.168,174.91c-.134.914-.426,3.292.9,3.537a.164.164,0,0,0,.2-.115,3.507,3.507,0,0,0-.261-1.374,7.308,7.308,0,0,1-.137-1.955c.019-.392-.641-.494-.7-.093" transform="translate(-164.381 4667.431)" fill="#90c3dd"/>
    <path id="Path_2305" data-name="Path 2305" d="M219.773,175.315a3.067,3.067,0,0,0,.22,1.812c.168.463.392,1.087.936,1.184a.232.232,0,0,0,.28-.159c.1-.481-.2-.908-.361-1.348a14.065,14.065,0,0,0-.467-1.569.336.336,0,0,0-.607.08" transform="translate(-164.068 4667.629)" fill="#90c3dd"/>
    <path id="Path_2306" data-name="Path 2306" d="M232.289,177.12c2.306-1.107,3.021-3.859,5.271-5.11,1.339-.743,2.479-1.243,3.427.145.553.808.81,1.825,1.324,2.664.793,1.295,1.62,2.931-.391,3.695-1,.382-2.063.637-3.086.969a6.607,6.607,0,0,1-2.573.627c-1.239-.171-1.784-1.634-2.278-2.614-.4-.8-1.6-.1-1.2.7,1.5,3,2.922,3.792,6.137,2.741,1.949-.64,7.273-1.582,5.973-4.793a14.446,14.446,0,0,0-1.466-1.977c-.5-.776-.809-1.657-1.256-2.459a2.847,2.847,0,0,0-1.951-1.73c-3.677-.612-6.611,4.379-8.205,6.871-.115.181.106.352.273.273" transform="translate(-158.242 4665.187)" fill="#90c3dd"/>
    <path id="Path_2307" data-name="Path 2307" d="M234.174,174.771a6.348,6.348,0,0,0,.768,2.3c.267.512.6,1.544,1.287,1.528a.248.248,0,0,0,.211-.122c.3-.575-.3-1.156-.577-1.647-.407-.73-.768-1.479-1.2-2.194-.125-.206-.519-.14-.49.133" transform="translate(-157.203 4667.366)" fill="#90c3dd"/>
    <path id="Path_2308" data-name="Path 2308" d="M235.468,174.559c-.518.6.171,1.934.5,2.538.3.547.938,1.349,1.623.852a.2.2,0,0,0,.04-.3,6.7,6.7,0,0,1-.93-1.361c-.236-.492-.308-1.529-.83-1.778a.342.342,0,0,0-.4.052" transform="translate(-156.677 4667.341)" fill="#90c3dd"/>
    <path id="Path_2309" data-name="Path 2309" d="M236.262,174.975c.158,1,.521,2.458,1.6,2.8a.246.246,0,0,0,.31-.237,3.452,3.452,0,0,0-.475-1.256,5.389,5.389,0,0,1-.491-1.563c-.111-.624-1.044-.354-.947.261" transform="translate(-156.215 4667.291)" fill="#90c3dd"/>
    <path id="Path_2310" data-name="Path 2310" d="M237.578,174.506a3.078,3.078,0,0,0,1.2,2.787c.382.264.874-.255.633-.633-.229-.355-.492-.681-.7-1.054s-.28-.812-.487-1.187a.36.36,0,0,0-.65.087" transform="translate(-155.609 4667.238)" fill="#90c3dd"/>
    <path id="Path_2311" data-name="Path 2311" d="M234.1,167.143c1.383-1.737,2.978,1.374,2.7,2.666a1.6,1.6,0,0,1-2.551.87,2.284,2.284,0,0,1-.888-1.37c-.1-.522.214-1.065.015-1.556a.389.389,0,0,0-.46-.259c-.87.152-.877,1.38-.733,2.048a3.491,3.491,0,0,0,1.427,2.086,2.686,2.686,0,0,0,4.089-1.278,4.033,4.033,0,0,0-1.252-3.931c-.986-.9-2.278-.88-2.79.469-.09.239.279.46.439.255" transform="translate(-158.177 4663.229)" fill="#90c3dd"/>
    <path id="Path_2312" data-name="Path 2312" d="M233.653,167.547c-.643.218-.338,1.124-.162,1.559.149.369.566,1.384,1.134,1.1.506-.254-.088-1.034-.221-1.339-.087-.2-.346-1.46-.75-1.324" transform="translate(-157.635 4664.054)" fill="#90c3dd"/>
    <path id="Path_2313" data-name="Path 2313" d="M233.749,167.891c.029.3-.027.544.031.855s.122.649.211.964a2.024,2.024,0,0,0,.848,1.334.2.2,0,0,0,.292-.167,4.088,4.088,0,0,0-.357-1.591c-.075-.251-.143-.506-.2-.759s-.195-.475-.249-.714c-.072-.316-.606-.255-.574.077" transform="translate(-157.405 4664.087)" fill="#90c3dd"/>
    <path id="Path_2314" data-name="Path 2314" d="M234.272,168.26a4.378,4.378,0,0,0,.839,2.451.253.253,0,0,0,.428-.177,11.8,11.8,0,0,0-.426-2.507c-.078-.553-.93-.323-.84.233" transform="translate(-157.159 4664.136)" fill="#90c3dd"/>
    <path id="Path_2315" data-name="Path 2315" d="M210.269,161.058c-1.24-.354-3.732,6.517.236,6.7,1.638.075,3.872-.843,4.14-2.651a3.853,3.853,0,0,0-2.094-3.592c-1.277-.727-3.78-.594-3.571,1.424a.374.374,0,0,0,.628.261c.438-.389.781-.882,1.421-.854a2.682,2.682,0,0,1,1.569.793c1.27,1.175,1.047,2.6-.587,3.245-.7.277-1.862.618-2.442-.065a2.719,2.719,0,0,1-.251-2.1,7.783,7.783,0,0,1,.693-2.223c.052-.1.615-.842.257-.944" transform="translate(-169.455 4660.974)" fill="#90c3dd"/>
    <path id="Path_2316" data-name="Path 2316" d="M208.9,163.1c-.146,1.084.349,3.357,1.7,3.477.264.024.369-.285.277-.484a4.33,4.33,0,0,0-.509-.684,3.212,3.212,0,0,1-.431-.891,6.385,6.385,0,0,0-.6-1.538.239.239,0,0,0-.442.119" transform="translate(-169.207 4661.838)" fill="#90c3dd"/>
    <path id="Path_2317" data-name="Path 2317" d="M209.4,163.455a2.908,2.908,0,0,0,.375,1.75c.268.445.653,1,1.228.824a.2.2,0,0,0,.14-.186c-.027-.475-.372-.621-.616-1a2.672,2.672,0,0,1-.416-1.39.356.356,0,0,0-.711,0" transform="translate(-168.963 4661.954)" fill="#90c3dd"/>
    <path id="Path_2318" data-name="Path 2318" d="M209.987,163.366A2.4,2.4,0,0,0,211,166.1a.358.358,0,0,0,.432-.559,2.321,2.321,0,0,1-.627-1.948c.087-.532-.72-.768-.823-.226" transform="translate(-168.71 4661.929)" fill="#90c3dd"/>
    <path id="Path_2319" data-name="Path 2319" d="M210.6,163.461a1.884,1.884,0,0,0,.759,1.967.284.284,0,0,0,.385-.386,2.844,2.844,0,0,1-.385-1.581c.044-.492-.7-.475-.759,0" transform="translate(-168.397 4661.948)" fill="#90c3dd"/>
    <path id="Path_2320" data-name="Path 2320" d="M211.034,163.676a8.794,8.794,0,0,1,.355.913c.044.128.08.258.127.383a3.9,3.9,0,0,0,.239.422.265.265,0,0,0,.49-.133,1.962,1.962,0,0,0,.01-.492,4.386,4.386,0,0,0-.121-.454c-.1-.324-.223-.641-.355-.954a.406.406,0,1,0-.745.315" transform="translate(-168.205 4661.939)" fill="#90c3dd"/>
    <path id="Path_2328" data-name="Path 2328" d="M248.97,147.647c-.633.037-.933,1.1-1.025,1.6a5.728,5.728,0,0,0,.125,2.588c.376,1.337,1.427,2.844,3.011,2.291a4.075,4.075,0,0,0-.316-7.7,1.9,1.9,0,0,0-1.932.487,1.935,1.935,0,0,0-.091,2.484.323.323,0,0,0,.5-.066c.283-.416.232-1.281.677-1.561.358-.224.895.065,1.2.265a2.653,2.653,0,0,1,1.066,3.463c-.313.579-1.035,1.626-1.8,1.594-.563-.024-.905-.669-1.094-1.122a5.7,5.7,0,0,1-.4-2.2,5.955,5.955,0,0,1,.1-1.1c.058-.295.242-.6.14-.9a.176.176,0,0,0-.168-.13" transform="translate(-150.713 4654.004)" fill="#90c3dd"/>
    <path id="Path_2329" data-name="Path 2329" d="M248.9,148.613c-.013.211-.178.379-.2.643a3.278,3.278,0,0,0,.1.926,3.134,3.134,0,0,0,.948,1.877.335.335,0,0,0,.5-.288,6.49,6.49,0,0,0-.571-1.831c-.08-.259-.147-.526-.243-.781-.06-.167-.28-.416-.3-.577-.021-.144-.233-.1-.239.031" transform="translate(-150.312 4655.018)" fill="#90c3dd"/>
    <path id="Path_2330" data-name="Path 2330" d="M249.368,148.72c.06.234.038.456.116.7.094.293.187.588.29.879a2.179,2.179,0,0,0,.666,1.184.14.14,0,0,0,.2-.084,2.444,2.444,0,0,0-.249-1.379c-.086-.26-.17-.522-.252-.783-.072-.239-.217-.423-.293-.649a.251.251,0,0,0-.484.134" transform="translate(-149.999 4654.979)" fill="#90c3dd"/>
    <path id="Path_2363" data-name="Path 2363" d="M241.844,158.61c-.032-.025-.1-.125-.06-.046.057.128,0-.321,0,.015a1.571,1.571,0,0,0,.04.3.951.951,0,0,0,.223.515c.609.59,1.09-.46,1.284-.874a.533.533,0,0,0-.189-.717c-.532-.27-1.343-.484-1.539.313a1.047,1.047,0,0,0-.019.339c.006.081.022.164.032.245.015.108,0-.044,0,.024a2.124,2.124,0,0,1,.019.257c0-.221.021.46-.006.2a.456.456,0,0,0,.318.42c.557.183.8-.438.78-.877,0-.075-.018-.147-.022-.221,0-.031,0-.062-.007-.094-.01-.077.009-.047,0-.049.083,0-.249.267-.156.2a.191.191,0,0,1-.186.094h.052s.262.081.332.109c-.122-.215-.245-.429-.367-.646a5.624,5.624,0,0,0-.273.634c.551.211.767.208.647-.006.027.062.031.065.01.013a1,1,0,0,0-.052-.168.954.954,0,0,0-.578-.64c-.425-.134-.578.431-.277.662" transform="translate(-153.692 4659.319)" fill="#90c3dd"/>
    <path id="Path_2364" data-name="Path 2364" d="M248.9,158.506c.184-.547-.448-.674-.83-.538a.486.486,0,0,0-.336.59,2.843,2.843,0,0,0,.2.565.977.977,0,0,0,.547.518c.324.121.574-.184.607-.464-.022.173.007-.086,0-.146a.717.717,0,0,0-.047-.186,1.9,1.9,0,0,0-.153-.317,2.113,2.113,0,0,0-.349-.435v.68a2.792,2.792,0,0,0,.2-.2c.171-.237-.416-.2-.4-.065.046.308.482.245.565,0" transform="translate(-150.778 4659.49)" fill="#90c3dd"/>
    <path id="Path_2410" data-name="Path 2410" d="M219.022,151.8c-.546.088-.783.936-.857,1.387a1.8,1.8,0,0,0,.5,1.66,2.4,2.4,0,0,0,3.592-.445c1.231-1.793-.644-3.689-2.558-3.151-.994.28-1.927,1.533-1.075,2.449a.259.259,0,0,0,.363,0c.416-.444.643-1.056,1.185-1.138.462-.071,1.09.108,1.228.532.363,1.109-1.289,1.778-2.06,1.078-.478-.435-.2-1.028-.127-1.57.019-.124.1-.848-.19-.8" transform="translate(-164.813 4656.284)" fill="#90c3dd"/>
    <path id="Path_2411" data-name="Path 2411" d="M219.25,153.724a5.5,5.5,0,0,1,.737.469.437.437,0,0,0,.652-.375,4.512,4.512,0,0,0-.122-.992l-.942.258a9.277,9.277,0,0,0,.466,1.048.522.522,0,0,0,1.02-.137.7.7,0,0,1,.162-.507l-.74.195a1.482,1.482,0,0,0,1.007.226.327.327,0,0,0,.192-.479,1.649,1.649,0,0,0-.655-.678.55.55,0,0,0-.737.193,1.656,1.656,0,0,0-.267,1.051c.323-.087.644-.175.969-.261a5.442,5.442,0,0,1-.475-.908.489.489,0,0,0-.942.258,3.511,3.511,0,0,0,.257.954c.162-.214.327-.425.49-.638a5.22,5.22,0,0,0-.877-.383.367.367,0,0,0-.193.708" transform="translate(-164.409 4656.91)" fill="#90c3dd"/>
    <path id="Path_2412" data-name="Path 2412" d="M239.542,165.016c-.516.1-.823.907-.37,1.249a1.694,1.694,0,0,0,1.654.052,2.618,2.618,0,0,0,1.342-3.232,1.881,1.881,0,0,0-3.157-.392c-.722.814-1.368,2.881-.066,3.493a.34.34,0,0,0,.507-.29,5,5,0,0,1,.121-1.831c.173-.445.571-1.059,1.126-.854,1.342.5.081,2.877-1.109,2.337.065.083.128.167.192.248-.037-.171.215-.87-.24-.779" transform="translate(-155.294 4661.431)" fill="#90c3dd"/>
    <path id="Path_2413" data-name="Path 2413" d="M239.459,163.9a1,1,0,0,0-.156.842c.057.391.63.4.8.106a2.075,2.075,0,0,0,.206-.849l-.609.464c-.239-.047-.153-.236-.147-.081a.663.663,0,0,0,.093.23.64.64,0,0,0,.432.311.51.51,0,0,0,.61-.348,1.144,1.144,0,0,0,.069-.5l-.867.36c.136.146.115.389.229.562a.407.407,0,0,0,.556.173.841.841,0,0,0,.3-.662,1.021,1.021,0,0,0-.369-.79.514.514,0,0,0-.851.494c-.01.032-.019.066-.027.1l.478-.366c.345.046.32.3.248.058a.738.738,0,0,0-.112-.217.591.591,0,0,0-.388-.251.491.491,0,0,0-.609.463,4.828,4.828,0,0,1-.049.509c.27-.034.537-.071.8-.1a.976.976,0,0,0-.523-.535.121.121,0,0,0-.124.032" transform="translate(-154.782 4662.151)" fill="#90c3dd"/>
  </g>
</svg>
