<?xml version="1.0" encoding="utf-8"?>
<!-- Generator: Adobe Illustrator 26.0.1, SVG Export Plug-In . SVG Version: 6.00 Build 0)  -->
<svg version="1.1" xmlns="http://www.w3.org/2000/svg" xmlns:xlink="http://www.w3.org/1999/xlink" x="0px" y="0px"
	 viewBox="0 0 640 640" style="enable-background:new 0 0 640 640;" xml:space="preserve">
<style type="text/css">
	.st0{fill:#5B5F2A;}
	.st1{fill:#6F1518;}
	.st2{fill:#FFFFFF;}
</style>
<g id="bottom_00000065048473674140850230000012885402372745079702_">
	<g id="bottomg">
		<path class="st0" d="M396.1,343.5c-0.2-12.7-0.4-25.4-0.6-38.1c-0.3,12.7-0.4,25.4-0.6,38.1l-0.4,38.1c0,0-0.1,4.8-0.1,9.5
			c0,9.5-5.8,12.1-10.7,12.1c-3.6,0-31.7-5.8-52.9-5.8c-21.2,0-49.4,5.8-52.9,5.8c-4.8,0-10.7-2.6-10.7-12.1c0-4.7-0.1-9.5-0.1-9.5
			l-0.4-38.1c-0.2-12.7-0.3-11-0.6-23.7c-0.3,12.7-0.4,11-0.6,23.7l-0.4,38.1l-0.1,12.4c0,9.8,4.9,14.6,11.9,14.6
			c4.6,0,29.1-5.2,53.9-5.4c24.8,0.2,49.3,5.4,53.9,5.4c7,0,11.9-4.8,11.9-14.6l-0.1-12.4L396.1,343.5z"/>
	</g>
</g>
<g id="top_00000173869147372879864250000003349428965749270194_">
	<g id="topg">
		<path class="st0" d="M396.4,235.4c-0.2-1-0.7-2-1.3-2.7c-0.7-0.8-1.6-1.4-2.5-1.7c-0.5-0.2-1-0.3-1.5-0.3c-0.5,0-0.9,0-1.3,0
			H271.7c-0.4,0-0.8,0-1.3,0c-0.5,0-1,0.1-1.5,0.3c-1,0.3-1.9,0.9-2.5,1.7c-0.7,0.8-1.1,1.7-1.3,2.7c-0.1,0.5-0.1,2.5-0.1,2.9l0.3,4
			c0.3,3.5,4.2,5,4.2,7.3c0,3-3.5,4.4-3.5,4.4s4.8-1.7,4.8-4.4c0-3.5-3.1-4.6-3.2-7.4c-0.1-2.2-0.2-2.9-0.1-3.5
			c0.1-0.6,0.4-1.2,0.8-1.6c0.4-0.5,1-0.8,1.5-1c0.3-0.1,0.6-0.1,0.9-0.2c0.3,0,0.8,0,1.2,0h117.5c0.4,0,0.9,0,1.2,0
			c0.3,0,0.6,0.1,0.9,0.2c0.6,0.2,1.1,0.5,1.5,1c0.4,0.5,0.7,1,0.8,1.6c0.1,0.5,0,1.3-0.1,3.5c-0.1,2.7-3.2,3.9-3.2,7.4
			c0,2.7,4.8,4.4,4.8,4.4s-3.5-1.4-3.5-4.4c0-2.3,3.9-3.9,4.2-7.3l0.3-4C396.6,237.9,396.5,235.9,396.4,235.4"/>
	</g>
</g>
<g id="wordmark_00000026843080611690486050000015499680763261525947_">
	<g id="wordmarkg">
		<rect x="376.1" y="343.7" class="st0" width="2" height="12.8"/>
		<rect x="356.5" y="343.7" class="st0" width="2" height="12.8"/>
		<path class="st0" d="M356.4,339.9c0.1,0.1,0.3,0.3,0.5,0.3c0.4,0.2,0.9,0.2,1.2,0c0.2-0.1,0.4-0.2,0.5-0.4
			c0.1-0.1,0.3-0.3,0.3-0.5c0.1-0.2,0.1-0.4,0.1-0.6c0-0.2,0-0.4-0.1-0.6c-0.1-0.2-0.2-0.4-0.3-0.5c-0.1-0.1-0.3-0.3-0.5-0.3
			c-0.4-0.2-0.9-0.2-1.2,0c-0.2,0.1-0.4,0.2-0.5,0.3c-0.1,0.1-0.3,0.3-0.3,0.5c-0.1,0.2-0.1,0.4-0.1,0.6c0,0.2,0,0.4,0.1,0.6
			C356.1,339.6,356.2,339.8,356.4,339.9"/>
		<path class="st0" d="M375.9,339.9c0.1,0.1,0.3,0.3,0.5,0.3c0.4,0.2,0.9,0.2,1.2,0c0.2-0.1,0.4-0.2,0.5-0.4
			c0.1-0.1,0.3-0.3,0.3-0.5c0.1-0.2,0.1-0.4,0.1-0.6c0-0.2,0-0.4-0.1-0.6c-0.1-0.2-0.2-0.4-0.3-0.5c-0.1-0.1-0.3-0.3-0.5-0.3
			c-0.4-0.2-0.9-0.2-1.2,0c-0.2,0.1-0.4,0.2-0.5,0.3c-0.1,0.1-0.3,0.3-0.3,0.5c-0.1,0.2-0.1,0.4-0.1,0.6c0,0.2,0,0.4,0.1,0.6
			C375.7,339.6,375.8,339.8,375.9,339.9"/>
		<rect x="362.9" y="337.8" class="st0" width="2" height="18.6"/>
		<polygon class="st0" points="293.1,338.7 279.2,338.7 279.2,340.8 285.1,340.8 285.1,356.5 287.3,356.5 287.3,340.8 293.1,340.8 
					"/>
		<path class="st0" d="M303.1,345c-0.3-0.3-0.6-0.5-0.9-0.7c-0.3-0.2-0.7-0.5-1.1-0.7c-0.4-0.2-0.8-0.3-1.2-0.4
			c-0.4-0.1-0.8-0.1-1.2-0.1c-0.9,0-1.8,0.2-2.6,0.5c-0.8,0.3-1.5,0.8-2.1,1.4c-0.6,0.6-1.1,1.3-1.4,2.2l0,0
			c-0.3,0.8-0.5,1.8-0.5,2.8c0,1.1,0.2,2.1,0.5,2.9c0.3,0.8,0.8,1.5,1.4,2.1c0.6,0.6,1.3,1,2.1,1.3c1.1,0.4,2.5,0.6,3.8,0.3
			c0.4-0.1,0.8-0.2,1.2-0.4c0.4-0.2,0.8-0.4,1.1-0.6c0.3-0.2,0.6-0.5,0.9-0.7l0.9-0.8l1.3,1.8v-11.7l-1.4,1.6L303.1,345z
			 M298.7,354.8c-0.6,0-1.2-0.1-1.7-0.3c-0.6-0.2-1.1-0.6-1.5-1c-0.4-0.4-0.7-0.9-1-1.6c-0.2-0.6-0.3-1.3-0.3-2c0-0.7,0.1-1.4,0.3-2
			c0.2-0.6,0.6-1.1,1-1.6c0.4-0.4,0.9-0.8,1.5-1c1.1-0.4,2.5-0.4,3.6,0.1c0.5,0.3,1,0.6,1.4,1.1c0.4,0.4,0.7,1,1,1.5
			c0.2,0.6,0.4,1.2,0.4,1.8c0,0.6-0.1,1.2-0.4,1.8c-0.2,0.6-0.6,1.1-1,1.5c-0.4,0.5-0.9,0.8-1.4,1.1
			C300,354.7,299.4,354.8,298.7,354.8"/>
		<path class="st0" d="M335.9,353.2c-0.3,0.3-0.6,0.6-1,0.9c-0.4,0.2-0.8,0.4-1.2,0.5c-1,0.3-2.1,0.2-3.1-0.2
			c-0.6-0.2-1.1-0.6-1.5-1c-0.4-0.4-0.7-0.9-1-1.4c-0.2-0.6-0.4-1.2-0.4-1.8c0-0.7,0.1-1.4,0.3-2c0.2-0.6,0.5-1.2,1-1.6
			c0.4-0.5,0.9-0.8,1.5-1.1c1-0.4,2.1-0.5,3.2-0.2c0.4,0.1,0.8,0.3,1.2,0.6c0.4,0.3,0.7,0.6,1,1c0,0,0,0.1,0.1,0.1l1.4-1.4
			c-0.2-0.3-0.4-0.5-0.6-0.7c-0.4-0.4-0.8-0.7-1.3-0.9c-0.5-0.3-1-0.5-1.5-0.6c-0.5-0.1-1-0.2-1.6-0.2c-0.9,0-1.7,0.2-2.5,0.5
			c-0.8,0.4-1.5,0.9-2.1,1.5c-0.6,0.6-1.1,1.4-1.4,2.3c-0.3,0.9-0.5,1.8-0.5,2.8c0,0.9,0.2,1.8,0.5,2.5c0.3,0.8,0.8,1.5,1.4,2.1l0,0
			c0.6,0.6,1.3,1.1,2.1,1.4c1.3,0.5,2.7,0.7,4.1,0.3c0.5-0.1,1-0.3,1.4-0.5c0.5-0.2,0.9-0.5,1.3-0.9c0.2-0.2,0.4-0.4,0.6-0.6
			L335.9,353.2C335.9,353.2,335.9,353.2,335.9,353.2"/>
		<path class="st0" d="M345.2,345.6c0.9-0.4,2-0.4,2.9,0c0.4,0.2,0.8,0.5,1.2,0.8c0.3,0.3,0.6,0.7,0.8,1.2c0.2,0.4,0.3,0.8,0.3,1.2
			l0.1,1.1h-0.1v6.6h2V349c0-0.8-0.1-1.5-0.4-2.2c-0.3-0.7-0.7-1.3-1.2-1.8c-0.5-0.5-1.1-0.9-1.8-1.2c-1-0.4-2.2-0.6-3.4-0.3
			c-0.3,0.1-0.6,0.2-0.9,0.4L343,345v-7.2h-1.9v18.6h1.9V349c0-0.5,0.1-1,0.3-1.4c0.2-0.4,0.5-0.8,0.8-1.2
			C344.4,346.1,344.8,345.8,345.2,345.6"/>
		<path class="st0" d="M362.6,391.9c0.1-0.2,0.1-0.4,0.1-0.6c0-0.2,0-0.4-0.1-0.6c-0.1-0.2-0.2-0.4-0.3-0.5
			c-0.1-0.1-0.3-0.3-0.5-0.3c-0.2-0.1-0.4-0.1-0.6-0.1c-0.2,0-0.4,0-0.6,0.1c-0.2,0.1-0.4,0.2-0.5,0.4c-0.1,0.1-0.3,0.3-0.3,0.5
			c-0.1,0.2-0.1,0.4-0.1,0.6c0,0.2,0,0.4,0.1,0.6c0.1,0.2,0.2,0.4,0.3,0.5c0.1,0.1,0.3,0.3,0.5,0.3c0.4,0.2,0.9,0.2,1.2,0
			c0.2-0.1,0.4-0.2,0.5-0.3C362.4,392.3,362.5,392.1,362.6,391.9"/>
		<path class="st0" d="M325.8,389.8c-0.2-0.1-0.4-0.1-0.6-0.1c-0.2,0-0.4,0-0.6,0.1c-0.2,0.1-0.4,0.2-0.5,0.4
			c-0.1,0.1-0.3,0.3-0.3,0.5c-0.1,0.2-0.1,0.4-0.1,0.6c0,0.2,0,0.4,0.1,0.6c0.1,0.2,0.2,0.4,0.3,0.5c0.2,0.1,0.3,0.3,0.5,0.3
			c0.4,0.2,0.9,0.2,1.2,0c0.2-0.1,0.4-0.2,0.5-0.3c0.1-0.1,0.3-0.3,0.3-0.5c0.1-0.2,0.1-0.4,0.1-0.6c0-0.2,0-0.4-0.1-0.6
			c-0.1-0.2-0.2-0.4-0.3-0.5C326.2,390,326,389.9,325.8,389.8"/>
		<path class="st0" d="M320.6,391.9c0.1-0.2,0.1-0.4,0.1-0.6c0-0.2,0-0.4-0.1-0.6c-0.1-0.2-0.2-0.4-0.3-0.5
			c-0.1-0.1-0.3-0.3-0.5-0.3c-0.2-0.1-0.4-0.1-0.6-0.1c-0.2,0-0.4,0-0.6,0.1c-0.2,0.1-0.4,0.2-0.5,0.4c-0.1,0.1-0.3,0.3-0.3,0.5
			c-0.1,0.2-0.1,0.4-0.1,0.6c0,0.2,0,0.4,0.1,0.6c0.1,0.2,0.2,0.4,0.3,0.5c0.1,0.1,0.3,0.3,0.5,0.3c0.4,0.2,0.9,0.2,1.2,0
			c0.2-0.1,0.4-0.2,0.5-0.3C320.3,392.3,320.5,392.1,320.6,391.9"/>
		<path class="st0" d="M291.8,391.9c0.1-0.2,0.1-0.4,0.1-0.6c0-0.2,0-0.4-0.1-0.6c-0.1-0.2-0.2-0.4-0.3-0.5
			c-0.1-0.1-0.3-0.3-0.5-0.3c-0.2-0.1-0.4-0.1-0.6-0.1s-0.4,0-0.6,0.1c-0.2,0.1-0.4,0.2-0.5,0.4c-0.1,0.1-0.3,0.3-0.3,0.5
			c-0.1,0.2-0.1,0.4-0.1,0.6c0,0.2,0,0.4,0.1,0.6c0.1,0.2,0.2,0.4,0.3,0.5c0.1,0.1,0.3,0.3,0.5,0.3c0.4,0.2,0.9,0.2,1.2,0
			c0.2-0.1,0.4-0.2,0.5-0.3C291.6,392.3,291.7,392.1,291.8,391.9"/>
		<path class="st0" d="M285.7,391.9c0.1-0.2,0.1-0.4,0.1-0.6c0-0.2,0-0.4-0.1-0.6c-0.1-0.2-0.2-0.4-0.3-0.5
			c-0.1-0.1-0.3-0.3-0.5-0.3c-0.2-0.1-0.4-0.1-0.6-0.1c-0.2,0-0.4,0-0.6,0.1c-0.2,0.1-0.4,0.2-0.5,0.4c-0.1,0.1-0.3,0.3-0.3,0.5
			c-0.1,0.2-0.1,0.4-0.1,0.6c0,0.2,0,0.4,0.1,0.6c0.1,0.2,0.2,0.4,0.3,0.5c0.1,0.1,0.3,0.3,0.5,0.3c0.4,0.2,0.9,0.2,1.2,0
			c0.2-0.1,0.4-0.2,0.5-0.3C285.5,392.3,285.6,392.1,285.7,391.9"/>
		<path class="st0" d="M350.1,365.1c0.1-0.2,0.1-0.4,0.1-0.6c0-0.2,0-0.4-0.1-0.6c-0.1-0.2-0.2-0.4-0.3-0.5
			c-0.1-0.1-0.3-0.3-0.5-0.3l0,0c-0.2-0.1-0.4-0.1-0.6-0.1c-0.2,0-0.4,0-0.6,0.1c-0.2,0.1-0.4,0.2-0.5,0.4c-0.1,0.1-0.3,0.3-0.3,0.5
			c-0.1,0.2-0.1,0.4-0.1,0.6c0,0.2,0,0.4,0.1,0.6c0.1,0.2,0.2,0.4,0.3,0.5c0.1,0.1,0.3,0.3,0.5,0.3c0.4,0.2,0.9,0.2,1.2,0
			c0.2-0.1,0.4-0.2,0.5-0.3C349.9,365.4,350,365.3,350.1,365.1"/>
		<path class="st0" d="M334.8,363.9c-0.1,0.2-0.1,0.4-0.1,0.6c0,0.2,0,0.4,0.1,0.6c0.1,0.2,0.2,0.4,0.3,0.5c0.2,0.1,0.3,0.3,0.5,0.3
			c0.4,0.2,0.9,0.2,1.2,0c0.2-0.1,0.4-0.2,0.5-0.3c0.1-0.1,0.3-0.3,0.3-0.5c0.1-0.2,0.1-0.4,0.1-0.6c0-0.2,0-0.4-0.1-0.6
			c-0.1-0.2-0.2-0.4-0.3-0.5c-0.1-0.1-0.3-0.3-0.5-0.3c-0.2-0.1-0.4-0.1-0.6-0.1c-0.2,0-0.4,0-0.6,0.1c-0.2,0.1-0.4,0.2-0.5,0.4
			C335,363.5,334.9,363.7,334.8,363.9"/>
		<path class="st0" d="M344,365.1c0.1-0.2,0.1-0.4,0.1-0.6c0-0.2,0-0.4-0.1-0.6c-0.1-0.2-0.2-0.4-0.3-0.5c-0.1-0.1-0.3-0.3-0.5-0.3
			c-0.4-0.2-0.9-0.2-1.2,0c-0.2,0.1-0.4,0.2-0.5,0.4c-0.1,0.1-0.3,0.3-0.3,0.5c-0.1,0.2-0.1,0.4-0.1,0.6c0,0.2,0,0.4,0.1,0.6
			c0.1,0.2,0.2,0.4,0.3,0.5c0.1,0.1,0.3,0.3,0.5,0.3c0.4,0.2,0.9,0.2,1.2,0c0.2-0.1,0.4-0.2,0.5-0.3
			C343.7,365.4,343.9,365.3,344,365.1"/>
		<rect x="303.4" y="343.1" class="st0" width="2" height="13.4"/>
		<path class="st0" d="M381.7,374.7L381.7,374.7c-0.3-0.8-0.8-1.6-1.4-2.2c-0.6-0.6-1.3-1.1-2.1-1.4c-1-0.4-2.2-0.7-3.4-0.4
			c-0.3,0.1-0.6,0.1-0.9,0.3c-0.3,0.1-0.5,0.2-0.7,0.4c-0.1,0.1-0.2,0.2-0.3,0.3l-1.8,1.7v-35.5h-2v44.5h-6.9v-11.1h-2l0,6.3
			c0,0.8-0.1,1.5-0.4,2.1c-0.2,0.5-0.6,1-1,1.4c-0.4,0.4-0.9,0.8-1.5,1c-0.6,0.2-1.2,0.4-1.8,0.4l-2.8,0v-11.1h-2v6.3
			c0,0.8-0.1,1.5-0.4,2.1c-0.2,0.5-0.6,1-1,1.4c-0.4,0.4-0.9,0.8-1.5,1c-0.6,0.2-1.2,0.4-1.8,0.4l-2.8,0v-11.1h-2v6.3
			c0,0.8-0.1,1.5-0.4,2.1c-0.2,0.5-0.6,1-1,1.4c-0.4,0.4-0.9,0.8-1.5,1c-0.6,0.2-1.2,0.4-1.8,0.4l-2.8,0v-11.1h-2l0,6.3
			c0,0.8-0.1,1.5-0.4,2.1c-0.2,0.5-0.6,1-1,1.4c-0.4,0.4-0.9,0.8-1.5,1c-0.6,0.3-1.2,0.3-1.8,0.4l-0.1,0h-4.5v-11.1h-2l0,6.3
			c0,0.8-0.1,1.5-0.4,2.1c-0.2,0.5-0.6,1-1,1.4c-0.4,0.4-0.9,0.8-1.5,1c-0.6,0.2-1.1,0.4-1.8,0.4l-4.7,0v-28.1l1.6,0.9
			c0.1,0.1,0.3,0.2,0.4,0.2c1.6,0.7,3.6,0.7,5.1,0c0.8-0.3,1.5-0.8,2.1-1.4s1.1-1.3,1.4-2.1c0.3-0.8,0.5-1.8,0.5-2.8
			c0-1-0.2-1.9-0.5-2.7c-0.3-0.8-0.8-1.6-1.4-2.2c-0.6-0.6-1.3-1.1-2.1-1.4c-1-0.4-2.2-0.7-3.4-0.4c-0.3,0.1-0.6,0.1-0.9,0.3
			c-0.3,0.1-0.5,0.2-0.7,0.4c-0.1,0.1-0.2,0.2-0.3,0.3l-1.8,1.7v-7.1h-1.9l0,39.6c0,0.8-0.1,1.5-0.4,2.1c-0.2,0.5-0.6,1-1,1.4
			c-0.4,0.4-0.9,0.8-1.5,1c-0.6,0.2-1.2,0.4-1.8,0.4l-4.7,0v-4.5c0-1-0.2-1.9-0.5-2.7c-0.3-0.8-0.8-1.5-1.4-2.1
			c-0.6-0.6-1.3-1.1-2.1-1.4c-0.8-0.3-1.6-0.5-2.5-0.5h-4.8v11.1l-2.8,0c-0.6,0-1.2-0.1-1.8-0.4c-0.6-0.2-1.1-0.6-1.5-1
			c-0.4-0.4-0.7-0.9-1-1.5c-0.3-0.6-0.4-1.3-0.4-2.1l0-6.3h-2v6.4c0,1,0.2,1.9,0.5,2.7c0.3,0.8,0.8,1.5,1.4,2.1
			c0.6,0.6,1.3,1.1,2.1,1.4c0.8,0.3,1.6,0.5,2.5,0.5h4.8v-11.1l2.8,0c0.6,0,1.2,0.1,1.8,0.4c0.6,0.2,1,0.6,1.5,1
			c0.4,0.4,0.7,0.9,1,1.4c0.3,0.6,0.4,1.3,0.4,2.1v6.3l6.7,0c0.8,0,1.7-0.2,2.5-0.5c0.2-0.1,0.3-0.2,0.5-0.2l1.6-0.9v1.7l6.7,0
			c0.8,0,1.7-0.2,2.5-0.5c0.2-0.1,0.3-0.2,0.4-0.2l1.6-0.9v1.7l6.7,0c0.8,0,1.7-0.2,2.5-0.5c0.2-0.1,0.3-0.2,0.4-0.2l1.6-0.9v1.7
			l4.9,0c0.8,0,1.7-0.2,2.5-0.5c0.2-0.1,0.3-0.1,0.4-0.2l1.6-0.9v1.7l4.9,0c0.8,0,1.7-0.2,2.5-0.5c0.2-0.1,0.3-0.1,0.4-0.2l1.6-0.9
			v1.7l4.9,0c0.8,0,1.7-0.2,2.5-0.5c0.2-0.1,0.3-0.2,0.4-0.2l1.6-0.9v1.7h15.4c0.9,0,1.8-0.2,2.6-0.5c0.8-0.3,1.5-0.8,2.1-1.4
			c0.6-0.6,1.1-1.3,1.4-2.1c0.3-0.8,0.5-1.8,0.5-2.8C382.2,376.5,382,375.6,381.7,374.7 M312,347.3c0.2-0.6,0.6-1.1,1-1.5
			c0.4-0.5,0.9-0.8,1.4-1.1c1.1-0.6,2.5-0.6,3.6-0.1c0.6,0.2,1.1,0.6,1.5,1c0.4,0.4,0.7,1,1,1.5s0.4,1.2,0.4,1.9
			c0,0.7-0.1,1.3-0.4,1.9c-0.2,0.6-0.6,1.1-1,1.5c-0.4,0.4-0.9,0.8-1.5,1c-0.6,0.3-1.2,0.4-1.8,0.4c-0.6,0-1.2-0.1-1.8-0.4
			c-0.5-0.2-1-0.6-1.5-1c-0.4-0.4-0.7-1-1-1.5c-0.2-0.6-0.4-1.2-0.4-1.9C311.6,348.5,311.8,347.8,312,347.3 M379.9,379.4
			c-0.2,0.6-0.6,1.1-1,1.5c-0.4,0.4-0.9,0.8-1.5,1c-0.6,0.3-1.2,0.4-1.8,0.4l-4.6,0v-4.8c0-0.6,0.1-1.2,0.4-1.8
			c0.2-0.6,0.6-1.1,1-1.5c0.4-0.5,0.9-0.8,1.4-1.1c1.1-0.6,2.5-0.6,3.6-0.1c0.6,0.2,1,0.6,1.5,1c0.4,0.4,0.7,1,1,1.5
			c0.2,0.6,0.4,1.2,0.4,1.9C380.3,378.2,380.1,378.8,379.9,379.4"/>
		<path class="st0" d="M282.1,366.6v-4.8h2.1c0.4,0,0.7,0,1,0.1c0.2,0.1,0.4,0.2,0.5,0.5c0.1,0.2,0.2,0.5,0.2,0.7
			c0,0.3-0.1,0.6-0.3,0.9c-0.2,0.2-0.6,0.4-1,0.4c0.2,0.1,0.3,0.2,0.4,0.2c0.2,0.2,0.4,0.4,0.5,0.6l0.8,1.3h-0.8l-0.6-1
			c-0.2-0.3-0.3-0.5-0.5-0.7c-0.1-0.2-0.2-0.3-0.3-0.3c-0.1-0.1-0.2-0.1-0.3-0.1c-0.1,0-0.2,0-0.3,0h-0.7v2.1H282.1z M282.7,364h1.4
			c0.3,0,0.5,0,0.7-0.1c0.2-0.1,0.3-0.2,0.4-0.3c0.1-0.1,0.1-0.3,0.1-0.4c0-0.2-0.1-0.4-0.2-0.6c-0.2-0.1-0.4-0.2-0.8-0.2h-1.5V364z
			"/>
		<path class="st0" d="M283.9,368.5c-2.3,0-4.2-1.9-4.2-4.2c0-2.3,1.9-4.2,4.2-4.2c2.3,0,4.2,1.9,4.2,4.2
			C288.1,366.7,286.2,368.5,283.9,368.5 M283.9,360.8c-2,0-3.6,1.6-3.6,3.6c0,2,1.6,3.6,3.6,3.6c2,0,3.6-1.6,3.6-3.6
			C287.4,362.4,285.8,360.8,283.9,360.8"/>
	</g>
</g>
<g id="chilli_00000009562077771952825160000015405690841108350338_">
	<g id="chillig">
		<path class="st1" d="M324.2,300.2c0,0,0.9-2.6,2.7-3c1.9-0.4,4.8,0.5,5.7,1.1c0,2.3-2.8,5.1-5.9,5.8c-2.2,0-2.6-0.3-2.6-0.3
			s4.1-0.2,6.3-3.5C325.3,299.5,324.2,300.2,324.2,300.2"/>
		<path class="st1" d="M356.8,321.5c-0.6,1.7-2.1,4.3-3.1,4.7c0.5,0.9,3.1,1.9,3.8,1.8c1.4-0.3,3-2.8,3.3-3.5
			C359.1,324.3,357.6,323.8,356.8,321.5"/>
		<path class="st1" d="M313.3,324.6c-3.7,2.3-8.3-0.1-9.5-1.9c0.8,2.2,5.3,9,11.6,6C312.9,327.9,313.3,324.6,313.3,324.6"/>
		<path class="st1" d="M287.5,322.3c0,0,10.9,3.6,15-1.5c-1.9-2.8,0.4-8.2,0.4-8.2C297.5,321.3,287.5,322.3,287.5,322.3"/>
		<path class="st1" d="M266.2,272.3c1.4,2,2.8,4.1,4,6l4.1-4.7c-1.1-3.1-2.3-6.4-4.2-9.5c-5-7.9-15.4-14.2-27.2-11
			c-7.4,4.7-3.3,9.3-3.3,9.3S256.8,259.2,266.2,272.3"/>
		<path class="st1" d="M283.6,281.9c0.6-0.6,1-1.6,1.3-2.4c0.4-0.9,0.3-1-0.1,0c-0.7,1.1-1.9,1.4-2.6-0.1c-0.8-1.8,1.9-6.7,2.1-6.9
			c-1.6,1.9-3.6,5.8-3.2,8.4C281.2,282.1,282.5,282.9,283.6,281.9"/>
		<path class="st1" d="M288.6,274.2c0.3,0.4,0.5,0.7,0.6,0.6c0.4-0.3,1.2-1,1.3-1.2c0.1-0.1-0.2-0.4-0.5-0.8
			c-0.3-0.3-0.6-0.6-0.8-0.6c0,0-1.3,1-1.3,1.3C287.9,273.7,288.3,273.9,288.6,274.2"/>
		<path class="st1" d="M289,281.4c0.3,0.4,0.5,0.7,0.6,0.6c0.4-0.3,1.2-1,1.3-1.2c0.1-0.1-0.2-0.4-0.5-0.8c-0.3-0.3-0.6-0.6-0.8-0.6
			c0,0-1.3,1-1.3,1.3C288.3,280.8,288.7,281,289,281.4"/>
		<path class="st1" d="M286.6,291.5c0.3,0.4,0.5,0.7,0.6,0.6c0.4-0.3,1.2-1,1.3-1.2c0.1-0.1-0.2-0.4-0.5-0.8
			c-0.3-0.3-0.6-0.6-0.8-0.6c0,0-1.3,1-1.3,1.3C285.8,291,286.3,291.1,286.6,291.5"/>
		<path class="st1" d="M287.7,300.1c0.3,0.4,0.5,0.7,0.6,0.6c0.4-0.3,1.2-1,1.3-1.2c0.1-0.1-0.2-0.4-0.5-0.8
			c-0.3-0.3-0.6-0.6-0.8-0.6c0,0-1.3,1-1.3,1.3C287,299.5,287.4,299.7,287.7,300.1"/>
		<path class="st1" d="M288.4,307.9c0.3,0.4,0.5,0.7,0.6,0.6c0.4-0.3,1.2-1,1.3-1.2c0.1-0.1-0.2-0.4-0.5-0.8
			c-0.3-0.3-0.6-0.6-0.8-0.6c0,0-1.3,1-1.3,1.3C287.7,307.4,288.1,307.6,288.4,307.9"/>
		<path class="st1" d="M300.3,301.8c0.3,0.4,0.5,0.7,0.6,0.6c0.4-0.3,1.2-1,1.3-1.2c0.1-0.1-0.2-0.4-0.5-0.8
			c-0.3-0.3-0.6-0.6-0.8-0.6c0,0-1.3,1-1.3,1.3C299.6,301.3,300,301.5,300.3,301.8"/>
		<path class="st1" d="M305.9,287.4c0.3,0.4,0.5,0.7,0.6,0.6c0.4-0.3,1.2-1,1.3-1.2c0.1-0.1-0.2-0.4-0.5-0.8
			c-0.3-0.3-0.6-0.6-0.8-0.6c0,0-1.3,1-1.3,1.3C305.2,286.9,305.6,287.1,305.9,287.4"/>
		<path class="st1" d="M314.8,288.9c0.3,0.4,0.5,0.7,0.6,0.6c0.4-0.3,1.2-1,1.3-1.2c0.1-0.1-0.2-0.4-0.5-0.8
			c-0.3-0.3-0.6-0.6-0.8-0.6c0,0-1.3,1-1.3,1.3C314.1,288.3,314.5,288.5,314.8,288.9"/>
		<path class="st1" d="M330.4,295.2c0.3,0.4,0.5,0.7,0.6,0.6c0.4-0.3,1.2-1,1.3-1.2c0.1-0.1-0.2-0.4-0.5-0.8
			c-0.3-0.3-0.6-0.6-0.8-0.6c0,0-1.3,1-1.3,1.3C329.7,294.7,330.1,294.9,330.4,295.2"/>
		<path class="st1" d="M337.2,298c0.3,0.4,0.5,0.7,0.6,0.6c0.4-0.3,1.2-1,1.3-1.2c0.1-0.1-0.2-0.4-0.5-0.8c-0.3-0.3-0.6-0.6-0.8-0.6
			c0,0-1.3,1-1.3,1.3C336.5,297.5,336.9,297.7,337.2,298"/>
		<path class="st1" d="M328.8,308.2c0.3,0.4,0.5,0.7,0.6,0.6c0.4-0.3,1.2-1,1.3-1.2c0.1-0.1-0.2-0.4-0.5-0.8
			c-0.3-0.3-0.6-0.6-0.8-0.6c0,0-1.3,1-1.3,1.3C328.1,307.7,328.5,307.9,328.8,308.2"/>
		<path class="st1" d="M332.1,316.1c0.3,0.4,0.5,0.7,0.6,0.6c0.4-0.3,1.2-1,1.3-1.2c0.1-0.1-0.2-0.4-0.5-0.8
			c-0.3-0.3-0.6-0.6-0.8-0.6c0,0-1.3,1-1.3,1.3C331.4,315.6,331.8,315.8,332.1,316.1"/>
		<path class="st1" d="M342.5,307.5c0.3,0.4,0.5,0.7,0.6,0.6c0.4-0.3,1.2-1,1.3-1.2c0.1-0.1-0.2-0.4-0.5-0.8
			c-0.3-0.3-0.6-0.6-0.8-0.6c0,0-1.3,1-1.3,1.3C341.8,307,342.2,307.2,342.5,307.5"/>
		<path class="st1" d="M341.9,316.1c0.3,0.4,0.5,0.7,0.6,0.6c0.4-0.3,1.2-1,1.3-1.2c0.1-0.1-0.2-0.4-0.5-0.8
			c-0.3-0.3-0.6-0.6-0.8-0.6c0,0-1.3,1-1.3,1.3C341.2,315.6,341.6,315.8,341.9,316.1"/>
		<path class="st1" d="M353.2,302.5c0.3,0.4,0.5,0.7,0.6,0.6c0.4-0.3,1.2-1,1.3-1.2c0.1-0.1-0.2-0.4-0.5-0.8
			c-0.3-0.3-0.6-0.6-0.8-0.6c0,0-1.3,1-1.3,1.3C352.5,302,352.9,302.2,353.2,302.5"/>
		<path class="st1" d="M350.1,308.8c0.3,0.4,0.5,0.7,0.6,0.6c0.4-0.3,1.2-1,1.3-1.2c0.1-0.1-0.2-0.4-0.5-0.8
			c-0.3-0.3-0.6-0.6-0.8-0.6c0,0-1.3,1-1.3,1.3C349.4,308.3,349.8,308.5,350.1,308.8"/>
		<path class="st1" d="M352.7,314.2c0.3,0.4,0.5,0.7,0.6,0.6c0.4-0.3,1.2-1,1.3-1.2c0.1-0.1-0.2-0.4-0.5-0.8
			c-0.3-0.3-0.6-0.6-0.8-0.6c0,0-1.3,1-1.3,1.3C352,313.7,352.4,313.8,352.7,314.2"/>
		<path class="st1" d="M361.1,305.1c0.3,0.4,0.5,0.7,0.6,0.6c0.4-0.3,1.2-1,1.3-1.2c0.1-0.1-0.2-0.4-0.5-0.8
			c-0.3-0.3-0.6-0.6-0.8-0.6c0,0-1.3,1-1.3,1.3C360.4,304.6,360.8,304.7,361.1,305.1"/>
		<path class="st1" d="M364.3,312.3c0.3,0.4,0.5,0.7,0.6,0.6c0.4-0.3,1.2-1,1.3-1.2c0.1-0.1-0.2-0.4-0.5-0.8
			c-0.3-0.3-0.6-0.6-0.8-0.6c0,0-1.3,1-1.3,1.3C363.5,311.8,363.9,312,364.3,312.3"/>
		<path class="st1" d="M374.6,308.3c0.3,0.4,0.5,0.7,0.6,0.6c0.4-0.3,1.2-1,1.3-1.2c0.1-0.1-0.2-0.4-0.5-0.8
			c-0.3-0.3-0.6-0.6-0.8-0.6c0,0-1.3,1-1.3,1.3C373.9,307.8,374.3,308,374.6,308.3"/>
		<path class="st1" d="M382.3,302.3c0.3,0.4,0.5,0.7,0.6,0.6c0.4-0.3,1.2-1,1.3-1.2c0.1-0.1-0.2-0.4-0.5-0.8
			c-0.3-0.3-0.6-0.6-0.8-0.6c0,0-1.3,1-1.3,1.3C381.6,301.8,382,302,382.3,302.3"/>
		<path class="st1" d="M322,314.8c0.3,0.4,0.5,0.7,0.6,0.6c0.4-0.3,1.2-1,1.3-1.2c0.1-0.1-0.2-0.4-0.5-0.8c-0.3-0.3-0.6-0.6-0.8-0.6
			c0,0-1.3,1-1.3,1.3C321.3,314.3,321.7,314.5,322,314.8"/>
		<path class="st1" d="M313.9,310.3c0.3,0.4,0.5,0.7,0.6,0.6c0.4-0.3,1.2-1,1.3-1.2c0.1-0.1-0.2-0.4-0.5-0.8
			c-0.3-0.3-0.6-0.6-0.8-0.6c0,0-1.3,1-1.3,1.3C313.1,309.8,313.6,310,313.9,310.3"/>
		<path class="st1" d="M318.8,303.8c0.3,0.4,0.5,0.7,0.6,0.6c0.4-0.3,1.2-1,1.3-1.2c0.1-0.1-0.2-0.4-0.5-0.8
			c-0.3-0.3-0.6-0.6-0.8-0.6c0,0-1.3,1-1.3,1.3C318.1,303.3,318.5,303.5,318.8,303.8"/>
		<path class="st1" d="M321.5,288.4c-0.2,0.1-0.5,0.2-0.7,0.3C321,288.7,321.2,288.5,321.5,288.4"/>
		<path class="st1" d="M321.5,288.4c0.1-0.1,0.3-0.1,0.4-0.2C321.7,288.3,321.6,288.4,321.5,288.4"/>
		<path class="st1" d="M293.9,306.9c0.2,1.4,1.4,2.2,2.5,1.1c0.6-0.6,1-1.6,1.3-2.4c0.4-0.9,0.3-1-0.1,0c-0.7,1.1-1.9,1.4-2.6-0.1
			c-0.8-1.8,1.9-6.7,2.1-6.9C295.6,300.4,293.6,304.3,293.9,306.9"/>
		<path class="st1" d="M270.6,288.5c0.4-0.3,1.2-1,1.3-1.2c0.1-0.1-0.2-0.4-0.5-0.8c-0.3-0.3-0.6-0.6-0.8-0.6c0,0-1.3,1-1.3,1.3
			c0,0.1,0.4,0.3,0.7,0.6C270.3,288.3,270.5,288.6,270.6,288.5"/>
		<path class="st1" d="M279.7,306.9c1,1.2,2.8,0.5,3.6-0.5c0.9-1.1,1.5-2.9,1.7-4.3c0.2-1.3-0.2-2.6-1.2-3.5
			c-0.2-0.2-1.1-0.8-2.1-1.4c-1.1-0.6-1.3-0.5-0.2-1.6c0.6-0.7,0.4-2,1-2.6c-1.3,1.4-3.9,5.3-1.7,6.9c0.2,0.1,0.4,0.3,0.6,0.4
			c-0.8,1.3-1.4,2.7-1.8,4.1C279.4,305.2,279.1,306.2,279.7,306.9 M282.1,300.6c0.5,0.3,0.9,0.6,1.3,1.1c0.3,0.4,0.5,0.9,0.6,1.4
			c0.1,0.5,0.1,0.8-0.1,1.1c-0.9,0.7-2.1,1.1-3,0.3C279.6,303.3,281.2,301.6,282.1,300.6"/>
		<path class="st1" d="M276.4,292.8c0,0.1,0.4,0.3,0.7,0.6c0.3,0.4,0.5,0.7,0.6,0.6c0.4-0.3,1.2-1,1.3-1.2c0.1-0.1-0.2-0.4-0.5-0.8
			c-0.3-0.3-0.6-0.6-0.8-0.6C277.6,291.5,276.4,292.5,276.4,292.8"/>
		<path class="st1" d="M273.6,301.8c1-1,1.5-2.5,2-3.7c0.5-1.4,0.4-1.5-0.1,0c-1,1.7-2.9,2.1-3.9-0.2c-1.3-2.7,2.8-10.2,3.2-10.6
			c-2.4,3-5.5,8.9-5,12.9C270,302.2,271.9,303.4,273.6,301.8"/>
		<path class="st1" d="M320.3,289c-0.1,0.1-0.3,0.1-0.3,0.1C320,289.1,320.1,289.1,320.3,289"/>
		<path class="st1" d="M341.6,299.3c-2.8,2.6-7.1,7.9-7.1,7.9l-0.4,3.6c0,0,5-5.8,7.7-7.7c3.9-2.7,5.1,5,5.1,5l2.1-5.9
			C348.3,296.8,344.7,296.4,341.6,299.3"/>
		<path class="st1" d="M356.1,307c-0.9-1.5,1.8-5.5,2-5.8c-1.6,1.6-3.5,4.8-3.2,7c0.2,1.1,1.5,1.8,2.6,0.9c0.6-0.5,1-1.3,1.3-2
			c0.3-0.8,0.3-0.8-0.1,0C358,308.1,356.8,308.3,356.1,307"/>
		<path class="st1" d="M385,310c12.3-11.8,18.7-36.5,15.3-36.5c-3.4,0-2.4,3.7-7,10.6c-3.8,5.7-5.6,8.2-14.8,13c0-0.5,0-0.9,0-1.3
			c8.5-4.2,14.4-10.5,18-19.9c2.9-7.6,6.3-21.7-3.5-20.1c-4.5,0.8-13,9.6-15.7,19.6c-1.6,6.2-3,13.3-2.8,19.1
			c-3.6,0.9-7.6,1.2-11.9,0.5c-5.6-0.9-10.7-2.6-15.4-4.3c-10.7-3.9-20.4-9.8-26.2-13.3c-16.6-10.1-29.4,13.3-30.2,17.3
			c-0.8,4,16.7,1.3,14.7,5.2c-2,3.9-10.2,17.9-28.1,10.2c-16.1-6.9-12.6-20.5-6.3-30.4c2.1,3.2,4,5.9,5.8,7
			c5.4,3.5,10.6,0.7,15.2-2.8c13.9-10.7,8.8-17.1,6.7-19.3c-6-6.3-22,8.1-24,10.1c7-6.2,16.2-7.2,18.7-4.2c2.4,2.9,2.4,9.4-1.7,12.5
			c-5.2,3.9-9.7,2.5-12.1,0.4c-2.4-2.1-3.8-5.2-5-8.5c0,0,0.1-0.1,0.1-0.1c0,0-0.1,0.1-0.1,0.1c0,0-0.3,1.6-1.5,2.9
			c-1.2,1.3-2.4,1.4-2.4,1.4c-13.7,16.5-11.3,33.2,3,39.8c14.8,6.8,27.7-4.1,33-15.7c5.4-11.6,4.8-13.8-4.3-13.9
			c-9.1-0.1-0.8-4.5,5-6.4c5.6-1.9,9.2,1.5,15.4,4.8c-0.3,0.1-0.7,0.3-1,0.4c-4.1,2-7.4,5.2-10,8.9c-2.8,4-5,8.6-6.8,12.8
			c-0.3,0.6-4,11.5,1.6,13.7c2.6,1,6,0.5,7.9-1c-0.1,0.6-0.2,1.2-0.2,1.8c-0.1,4.6,6.3,7.3,9.7,1.4c1,4,7,5.7,10-0.7
			c0.9,4.2,7.4,6.2,10.5-1.3c0.2-0.5,0.4-0.9,0.6-1.4c0.6,4.4,7.3,6.6,10.5-0.8c0.5-1.1,1-2.2,1.5-3.2c-0.1,3.2,1.2,6.6,8.3,5.1
			c-0.3,2.4,4.3,2.3,4.3,2.3c-1.2-1.9-0.7-3.5-0.7-3.5S372.7,321.8,385,310 M382.3,276.3c3.1-9.6,8.8-18,11.5-18.8
			c8.8-2.6,4.5,12.9,2.5,18.3c-1.5,4.1-7.7,13.1-17.7,17.3C379.2,287.7,380.6,281.6,382.3,276.3 M379.7,305.1
			c-0.5-1.3-0.9-2.9-1.1-4.5c5.2-2.1,12.4-6.4,13.8-8.3c1.7-2.2-8.8,15.8-22.1,21.6c0,0,1.3-9.9,5.8-12.3
			C377.1,303.1,378.2,304.3,379.7,305.1 M366.7,315.3c-4.4,0.9-6.3,0-7.1-1.1c2.1-3.6,3.6-5.7,3.6-5.7c-4.8,0.9-9,11-12.9,10.3
			c-1.6-0.3-1.9-1.5-1.7-2.9c1.9-3.4,3.3-5.3,3.3-5.3c-4.8,1-8.8,11.1-12.7,10.5c-1.8-0.3-2-1.7-1.7-3.2c2.2-4.5,4-7.2,4-7.2
			c-4.8,1.2-8.5,11.4-12.4,10.9c-1.6-0.2-2-1.4-1.9-2.7c2.3-5.3,4.4-8.6,4.4-8.6c-4.7,1.3-8.2,11.6-12.2,11.1
			c-2.6-0.3-2.1-3.4-1.5-5.5c2.2-5.4,4-8.8,4-8.8c-4.7,1.5-6.9,9.5-10.9,9.2c-1.2-0.1-1.3-1.7-1.1-3.4c3-10,9-17.1,13.3-19.5
			c3-1.7,7-2.9,11.7-1.8c7.4,2.1,21.8,11.1,35.4,7.2c1.6-0.5,3.1-1,4.6-1.5c0.1,0.5,0.2,1,0.3,1.5
			C371.3,301.6,368.5,307.9,366.7,315.3"/>
		<path class="st1" d="M366.8,302.6C366.8,302.6,366.8,302.5,366.8,302.6C366.8,302.5,366.8,302.6,366.8,302.6
			c-0.2-0.1-0.4-0.3-0.7-0.4c-0.5-0.4-0.7-0.2-0.1-0.8c0.3-0.3,0.2-1,0.5-1.3c-0.7,0.7-2,2.7-0.9,3.5c0.1,0.1,0.2,0.1,0.3,0.2
			c-0.4,0.7-0.7,1.4-0.9,2.1c-0.1,0.4-0.3,0.9,0.1,1.3c0.5,0.6,1.4,0.3,1.8-0.3c0.4-0.6,0.8-1.5,0.9-2.2c0.1-0.7-0.1-1.3-0.6-1.8
			C367.1,302.8,366.9,302.7,366.8,302.6 M367.2,305.8c-0.4,0.4-1,0.5-1.5,0.1c-0.7-0.6,0.1-1.5,0.6-2c0.2,0.1,0.5,0.3,0.7,0.6
			c0.2,0.2,0.3,0.5,0.3,0.7C367.3,305.5,367.3,305.6,367.2,305.8"/>
		<path class="st0" d="M274.3,273.5c-1.1-3.1-2.3-6.4-4.2-9.5c-5-7.9-15.4-14.2-27.2-11c-7.4,4.7-3.3,9.3-3.3,9.3s17.2-3.2,26.6,9.9
			c1.4,2,2.8,4.1,4,6c0,0,1.6-0.3,2.6-1.4C273.8,275.6,274.3,273.5,274.3,273.5"/>
		<path class="st2" d="M240.6,260.8c0,0-2.2-3.7,3.5-6.6c7.4-2,15.5,0.5,19.5,5.2c-3.2-3.3-8.8-5-15.3-4.4
			C240.2,255.8,240.6,260.8,240.6,260.8"/>
	</g>
</g>
<g id="olive_00000072986128994699347280000016318022659757113476_">
	<g id="oliveg">
		<path class="st0" d="M365.3,272.1c2,1.2,3.5,3.2,4,5.6c0.2,1.2,0.3,2.4,0.1,3.5c-0.1,0.6-0.2,1.2-0.5,1.8
			c-0.1,0.3-0.3,0.6-0.4,0.8c-0.2,0.3-0.3,0.5-0.5,0.8c-0.7,1-1.6,1.8-2.7,2.5c-1,0.6-2.2,1.1-3.4,1.3c-2.4,0.5-4.9,0.2-7.1-0.7
			c-1.1-0.5-2.2-1-3.2-1.7c-1-0.7-1.9-1.5-2.7-2.3c-0.8-0.9-1.6-1.8-2.3-2.6c-0.7-0.9-1.5-1.8-2.2-2.7c-2.9-3.6-5.8-7.2-8.9-10.5
			c-1.6-1.7-3.2-3.3-4.9-4.8c-1.7-1.5-3.4-3-5.3-4.4c-1.8-1.4-3.7-2.6-5.7-3.8c-1-0.6-2-1.1-3-1.6c-0.5-0.2-1-0.5-1.5-0.7l-0.8-0.4
			c-0.3-0.1-0.5-0.2-0.8-0.3l-1.6-0.6c-0.5-0.2-1.1-0.4-1.6-0.5l-0.8-0.3c-0.3-0.1-0.5-0.1-0.8-0.2l-1.7-0.4c-2.2-0.5-4.5-0.9-6.8-1
			c-4.6-0.3-9.2,0.1-13.7,1.1c4.4-1.3,9.1-2,13.7-1.9c2.3,0,4.7,0.3,7,0.7l1.7,0.4c0.3,0.1,0.6,0.1,0.9,0.2l0.8,0.2
			c0.6,0.2,1.1,0.3,1.7,0.5l1.7,0.6c0.3,0.1,0.6,0.2,0.8,0.3l0.8,0.3c0.5,0.2,1.1,0.4,1.6,0.7c1,0.5,2.1,1,3.1,1.6
			c2.1,1.1,4,2.4,5.9,3.8l1.4,1l1.4,1.1l0.7,0.6l0.7,0.6c0.4,0.4,0.9,0.8,1.3,1.2c1.7,1.6,3.4,3.2,5,4.9c3.2,3.4,6.1,7,8.9,10.6
			c0.7,0.9,1.4,1.8,2.1,2.7c0.7,0.9,1.4,1.8,2.2,2.6c1.5,1.6,3.3,3,5.3,3.9c2,0.9,4.3,1.2,6.4,0.9c2.1-0.4,4.2-1.4,5.6-3.2
			c0.2-0.2,0.3-0.4,0.5-0.7c0.1-0.2,0.3-0.5,0.4-0.7c0.2-0.5,0.4-1,0.5-1.6c0.2-1.1,0.2-2.2,0.1-3.3c-0.2-1.1-0.6-2.2-1.2-3.2
			c-0.3-0.5-0.6-0.9-1-1.4C366.2,272.8,365.8,272.4,365.3,272.1"/>
		<path class="st0" d="M306,252.2c-7.2,0.9-9,2.8-9,2.8s3.6,1.9,9.6,1.5c3-0.2,5.3-0.8,6.8-1.3c1.5-0.5,4-0.7,4-0.7
			s-2.5-1.2-4.4-1.8C311.5,252.2,309.2,251.8,306,252.2"/>
		<path class="st0" d="M289,249c-6.8,2.5-8.1,4.8-8.1,4.8s3.9,1.1,9.7-0.8c5.8-1.8,10.3-4.6,10.3-4.6S295.8,246.5,289,249"/>
		<path class="st0" d="M376.9,247.1c-1.2,5.4-1.9,5.7-1.9,5.7s4.5-0.6,5.5-5.1c1.1-4.5,0.2-7.1,0.2-7.1S377.7,243.6,376.9,247.1"/>
		<path class="st0" d="M378.9,258c5.4-1.2,5.6-3,5.6-3s-2.1-1.5-6.6-0.6c-1.8,0.4-3.2,0.9-4.3,1.5c-1.5,0.8-2.7,1.5-2.7,1.5
			S375.4,258.8,378.9,258"/>
		<path class="st0" d="M317.4,260.1c-9.3,0.4-11.2,2.5-11.2,2.5s4.2,3.1,12,3.1c7.8,0,12-2.2,12-2.2S326.7,259.7,317.4,260.1"/>
		<path class="st0" d="M362.9,261.2c-4.2,0.3-6.2,1.3-6.2,1.3s2.1,0.8,3.1,1.3c1.7,0.8,2.9,1.8,7.1,1.8c6.7,0,10.2-1.8,10.2-1.8
			S371.3,260.5,362.9,261.2"/>
		<path class="st0" d="M321.7,246.9c-4.7-5.8-7.4-6.1-7.4-6.1s-0.3,4.3,2.4,7.8c1.6,2.2,3.4,3.5,4.8,4.4c1.8,1.2,3.4,2.2,3.4,2.2
			S324.9,250.9,321.7,246.9"/>
		<path class="st0" d="M341.5,261c-2-7.2-5.1-8.2-5.1-8.2s-1.1,3.8,1,9.7c0.9,2.5,1.9,4.5,2.7,5.9c1.2,1.9,2.1,3.5,2.1,3.5
			S343.5,267.9,341.5,261"/>
		<path class="st0" d="M359,255.3c5.1-5.4,4.4-8.6,4.4-8.6s-3.8,1-7.8,5.8c-1.9,2.3-3.1,4.3-3.9,5.9c-0.8,1.7-1.3,3.6-1.3,3.6
			s1.4-1.1,3.4-2.3C355.3,258.8,357,257.4,359,255.3"/>
		<path class="st0" d="M356.1,287.3c-1.4-0.4-2.8-1-4-1.8c-1.3-0.8-2.4-1.8-3.5-2.8c-1-1.1-1.9-2.3-2.7-3.6
			c-0.4-0.7-0.7-1.4-0.9-2.1c-0.2-0.7-0.4-1.5-0.4-2.3c-0.1-1.6,0.1-3.1,0.6-4.6c0.2-0.7,0.5-1.5,0.9-2.1c0.4-0.7,0.8-1.3,1.3-2
			c1.9-2.5,4.5-4.2,7.3-5.4c1.4-0.6,2.9-1,4.3-1.3l2.2-0.4c0.7-0.1,1.4-0.3,2.1-0.5c2.8-0.7,5.5-1.7,7.9-3.3l0.9-0.6
			c0.3-0.2,0.6-0.4,0.8-0.6c0.6-0.4,1.1-0.9,1.6-1.4c0.1-0.1,0.3-0.2,0.4-0.4l0.4-0.4l0.4-0.4c0.1-0.1,0.2-0.3,0.3-0.4
			c0.4-0.6,0.9-1.1,1.3-1.7c1.6-2.4,2.7-5.1,3.6-7.9c-0.6,2.9-1.5,5.7-2.9,8.3c-0.3,0.7-0.8,1.3-1.2,1.9c-0.1,0.2-0.2,0.3-0.3,0.5
			l-0.4,0.4l-0.4,0.4c-0.1,0.1-0.2,0.3-0.4,0.4c-0.5,0.5-1,1.1-1.6,1.6c-0.3,0.2-0.6,0.5-0.9,0.7l-0.9,0.7c-0.2,0.1-0.3,0.2-0.5,0.3
			l-0.5,0.3l-1,0.6c-0.3,0.2-0.7,0.3-1,0.5c-0.3,0.2-0.7,0.3-1,0.5c-1.4,0.6-2.8,1.1-4.2,1.5c-0.7,0.2-1.4,0.4-2.2,0.5l-2.2,0.5
			c-1.4,0.3-2.7,0.7-4,1.3c-1.3,0.5-2.5,1.2-3.7,2c-1.1,0.8-2.2,1.8-3,2.8c-0.4,0.5-0.8,1.1-1.2,1.7c-0.4,0.6-0.6,1.2-0.9,1.9
			c-0.2,0.6-0.4,1.3-0.5,2c-0.1,0.7-0.2,1.4-0.1,2.1c0,0.7,0.1,1.4,0.3,2c0.2,0.7,0.4,1.3,0.7,2c0.6,1.3,1.4,2.5,2.3,3.6
			c0.9,1.1,1.9,2.1,3.1,3c0.6,0.5,1.2,0.8,1.8,1.2C354.8,286.7,355.4,287.1,356.1,287.3"/>
		<path class="st0" d="M333.6,253c0.7,2.7-0.3,5.3-2.3,5.8c-1.9,0.5-4-1.3-4.7-4c-0.7-2.7,0.3-5.3,2.3-5.8
			C330.8,248.5,333,250.3,333.6,253"/>
		<path class="st0" d="M307.2,240.7c2.3,1.3,3.4,3.7,2.4,5.3c-0.9,1.6-3.6,1.9-5.8,0.6c-2.3-1.3-3.4-3.7-2.4-5.3
			S305,239.4,307.2,240.7"/>
		<path class="st0" d="M371.1,253.3c-1.5,2.1-4,3-5.6,1.9c-1.5-1.1-1.5-3.7,0-5.9c1.5-2.1,4-3,5.6-1.9
			C372.6,248.6,372.6,251.2,371.1,253.3"/>
		<path class="st0" d="M334.2,269.1c3.2,0.8,5.2,3.3,4.6,5.6c-0.6,2.2-3.6,3.4-6.8,2.5c-3.2-0.8-5.2-3.3-4.6-5.6
			C328,269.4,331.1,268.3,334.2,269.1"/>
		<path class="st0" d="M351.2,266.4c2.7-1.8,6-1.7,7.3,0.2c1.3,1.9,0.1,5-2.6,6.8c-2.7,1.8-6,1.7-7.3-0.2
			C347.3,271.3,348.5,268.2,351.2,266.4"/>
		<path class="st2" d="M330.3,275.2c0,0-2.5-1.3-1.8-3.4c1.1-3.1,6.4-1.6,6.4-1.6s-2.7-0.1-4.3,0.9
			C329.4,271.9,328.9,273.5,330.3,275.2"/>
		<path class="st2" d="M307.2,241.9c0,0-2.4-2-4.3-0.8c-1.9,1.2-0.6,3.3-0.6,3.3S302,239.9,307.2,241.9"/>
		<path class="st2" d="M328.6,256.9c0,0-1.9-2.8-0.7-5.4c1.1-2.3,3.2-1.2,3.2-1.2S326.7,251,328.6,256.9"/>
		<path class="st2" d="M357.2,266.9c0,0-2.5-2-5.7,0.5c-3.2,2.6-2.2,5.1-1.6,5.5C348.6,269,354.8,266,357.2,266.9"/>
		<path class="st2" d="M371.3,249.4c0,0-0.6-2.5-3.2-1.1c-2.5,1.3-3.2,4.3-2.6,6c-0.2-3.1,2.1-4.9,2.7-5.2
			C369,248.8,370.6,248.5,371.3,249.4"/>
	</g>
</g>
<g id="maskolive">
	<g>
		<g>
			<g>
				<path d="M362.7,275.6c2.1,1.7,2,4.5,0.2,6.6c-2.6,3.1-5.9,1.6-8.7-0.1c-3.8-2.2-5.4-4.8-7.9-8.2c-2.7-3.7-6.9-6.5-10.3-9.5
					c-3.3-2.9-6.6-5.9-10.1-8.7c-6.6-5.3-15-7.6-23-10c-3.6-1.1-6.8-1.7-10.4-0.3c-4.2,1.7-8.2,4-12.2,6.1c-3.1,1.6-0.9,6.3,2.3,5.5
					c5.2-1.3,10-3.3,14.6-5.9c3.4-1.9,0.3-7.1-3-5.2c-4.2,2.3-8.5,4.1-13.2,5.3c0.8,1.8,1.5,3.7,2.3,5.5c5.8-2.9,11.3-7.2,17.9-5.2
					c5.7,1.7,11.9,3.3,17,6.3c4.9,2.8,9.1,7.2,13.4,10.9c2.1,1.9,4.3,3.7,6.4,5.6c2.4,2.1,3.6,4.1,5.4,6.7
					c4.1,5.8,13.7,11.7,20.7,7.7c6-3.4,8.4-12.6,2.6-17.3C364,268.9,359.7,273.2,362.7,275.6L362.7,275.6z"/>
			</g>
		</g>
		<g>
			<g>
				<path d="M347.1,274.2c2.6-8.7,16-11.9,23.2-15.1c7.4-3.3,12.8-8.8,14-17c0.6-3.8-5.2-5.4-5.8-1.6c-2.8,19-31.9,14.1-37.2,32.1
					C340.2,276.3,346,277.9,347.1,274.2L347.1,274.2z"/>
			</g>
		</g>
		<g>
			<g>
				<path d="M333.4,266.4c-0.4,0-0.9,0-1.3,0c-1,0-1.9,0.2-2.7,0.6c-0.9,0.3-1.6,0.8-2.3,1.4c-0.7,0.6-1.2,1.4-1.4,2.3
					c-0.4,0.8-0.6,1.7-0.6,2.7c0.1,0.6,0.2,1.2,0.3,1.9c0.3,1.2,0.9,2.2,1.8,3.1c0.5,0.4,0.9,0.7,1.4,1.1c1.1,0.6,2.3,1,3.5,1
					c0.4,0,0.9,0,1.3,0c1,0,1.9-0.2,2.7-0.6c0.9-0.3,1.6-0.8,2.3-1.4c0.7-0.6,1.2-1.4,1.4-2.3c0.4-0.8,0.6-1.7,0.6-2.7
					c-0.1-0.6-0.2-1.2-0.3-1.9c-0.3-1.2-0.9-2.2-1.8-3.1c-0.5-0.4-0.9-0.7-1.4-1.1C335.9,266.7,334.7,266.4,333.4,266.4L333.4,266.4
					z"/>
			</g>
		</g>
		<g>
			<g>
				<path d="M353.4,277.9c0.3,0,0.5,0,0.8,0c1,0,1.9-0.2,2.7-0.6c0.9-0.3,1.6-0.8,2.3-1.4c0.7-0.6,1.2-1.4,1.4-2.3
					c0.4-0.8,0.6-1.7,0.6-2.7c-0.1-0.6-0.2-1.2-0.3-1.9c-0.3-1.2-0.9-2.2-1.8-3.1c-0.5-0.4-0.9-0.7-1.4-1.1c-1.1-0.6-2.3-1-3.5-1
					c-0.3,0-0.5,0-0.8,0c-1,0-1.9,0.2-2.7,0.6c-0.9,0.3-1.6,0.8-2.3,1.4c-0.7,0.6-1.2,1.4-1.4,2.3c-0.4,0.8-0.6,1.7-0.6,2.7
					c0.1,0.6,0.2,1.2,0.3,1.9c0.3,1.2,0.9,2.2,1.8,3.1c0.5,0.4,0.9,0.7,1.4,1.1C351,277.6,352.2,277.9,353.4,277.9L353.4,277.9z"/>
			</g>
		</g>
		<g>
			<g>
				<path d="M373.9,253c0-0.2,0-0.5,0-0.7c-0.1,0.5-0.1,1-0.2,1.5C373.7,253.5,373.8,253.2,373.9,253c-0.2,0.4-0.3,0.9-0.5,1.3
					c0.1-0.2,0.2-0.4,0.3-0.6c0.4-0.6,0.6-1.3,0.7-2c0.2-0.7,0.1-1.5-0.1-2.2c-0.4-1.3-1.3-2.7-2.5-3.3c-1.3-0.7-2.8-1-4.2-0.6
					c-0.4,0.2-0.9,0.4-1.3,0.6c-0.8,0.5-1.5,1.1-2,2c-0.1,0.2-0.2,0.3-0.3,0.5c-0.3,0.6-0.6,1.2-0.7,1.8c-0.2,0.6-0.2,1.3-0.3,1.9
					c0,0.2,0,0.5,0,0.7c0,0.8,0.1,1.5,0.5,2.1c0.2,0.7,0.6,1.3,1.1,1.8c1,1,2.5,1.7,3.9,1.6c1.4-0.1,2.9-0.5,3.9-1.6
					C373.2,255.8,374,254.4,373.9,253L373.9,253z"/>
			</g>
		</g>
		<g>
			<g>
				<path d="M332.8,259.1c0-0.1,0.1-0.2,0.1-0.2c-0.2,0.4-0.4,0.9-0.6,1.3c0.3-0.5,0.1-0.3-0.5,0.5c0.1-0.1,0.2-0.3,0.4-0.4
					c0.2-0.2,0.4-0.4,0.6-0.5c0.7-0.6,1.3-1.4,1.8-2.2c1.4-2.6,1.3-6.4-1.1-8.4c-1.2-1-2.3-1.6-3.9-1.6c-1.3,0-3,0.6-3.9,1.6
					c-1.9,2-2.4,5.8,0,7.8c0.4,0.4,0.3,0.1-0.5-0.6c-0.2-0.4-0.4-0.9-0.6-1.3c0,0.1,0,0.1,0.1,0.2c-0.1-0.5-0.1-1-0.2-1.5
					c0,0.1,0,0.3,0,0.4c0.1-0.5,0.1-1,0.2-1.5c0,0.2-0.1,0.4-0.2,0.7c0.2-0.4,0.4-0.9,0.6-1.3c-0.1,0.1-0.1,0.3-0.2,0.4
					c0.7-0.8,0.8-1,0.4-0.6c-0.3,0.2-0.6,0.5-0.8,0.7c-1.1,1-1.8,2.3-2.3,3.7c-0.9,2.7,1,6.1,3.8,6.8
					C329.1,263.6,331.8,262,332.8,259.1L332.8,259.1z"/>
			</g>
		</g>
		<g>
			<g>
				<path d="M314.5,241.4c-3.2-2.8-7.1-4.4-11.4-4.3c-2.9,0-5.6,2.5-5.5,5.5c0.1,3,2.4,5.5,5.5,5.5c0.3,0,2.2,0.3,0.9,0
					c0.5,0.1,0.9,0.2,1.4,0.4c1.3,0.4-0.7-0.5,0.4,0.2c0.3,0.2,0.6,0.3,0.8,0.5c-0.5-0.4-0.5-0.4,0,0c2.2,1.9,5.7,2.3,7.8,0
					C316.4,247.2,316.9,243.4,314.5,241.4L314.5,241.4z"/>
			</g>
		</g>
		<g>
			<g>
				<path d="M325.9,254.7c0.1-3.4-2.2-5.9-4.3-8.3c-2.1-2.5-4.5-4.8-7-6.9c-3.9-3.3-9.6,2.3-5.7,5.7c1.8,1.6,3.6,3.2,5.3,5
					c0.9,1,3.7,3.5,3.7,4.5C317.7,259.8,325.7,259.8,325.9,254.7L325.9,254.7z"/>
			</g>
		</g>
		<g>
			<g>
				<path d="M343.2,268.9c-0.3-4.9-1.7-9.4-3.3-13.9c-1.7-4.8-9.4-2.7-7.7,2.1c1.4,3.8,2.8,7.7,3,11.8
					C335.5,274,343.5,274,343.2,268.9L343.2,268.9z"/>
			</g>
		</g>
		<g>
			<g>
				<path d="M326.8,259.2c-7.4,0-15.1-0.6-22.4,0.4c-5.1,0.7-2.9,8.4,2.1,7.7c6.6-0.9,13.7-0.1,20.3-0.1
					C331.9,267.3,332,259.3,326.8,259.2L326.8,259.2z"/>
			</g>
		</g>
		<g>
			<g>
				<path d="M313.1,250.1c-5,0.7-10.1,0.7-15.2,0.4c-5.1-0.4-5.1,7.6,0,8c5.8,0.4,11.5,0.1,17.3-0.7c2.2-0.3,3.3-3,2.8-4.9
					C317.4,250.5,315.2,249.8,313.1,250.1L313.1,250.1z"/>
			</g>
		</g>
		<g>
			<g>
				<path d="M354.8,262.4c1.8-4.9,5.2-8.8,9.6-11.5c4.4-2.6,0.4-9.6-4-6.9c-6.3,3.7-10.8,9.4-13.2,16.2
					C345.3,265.1,353,267.2,354.8,262.4L354.8,262.4z"/>
			</g>
		</g>
		<g>
			<g>
				<path d="M355.2,265c2.9,1.3,6,1.4,8.9,2.6c3.3,1.4,6.6,1.8,10.1,2.1c5.1,0.4,5.1-7.6,0-8c-2.9-0.2-5.3-0.7-7.9-1.8
					c-2.3-0.9-4.9-0.8-7-1.8C354.6,256,350.6,262.9,355.2,265L355.2,265z"/>
			</g>
		</g>
		<g>
			<g>
				<path d="M374.5,260.5c3.8-0.5,7.4-1.4,10.9-2.7c2-0.8,3.4-2.7,2.8-4.9c-0.5-1.9-2.9-3.6-4.9-2.8c-3.5,1.3-7.2,2.2-10.9,2.7
					c-2.1,0.3-3.3,3-2.8,4.9C370.3,260,372.4,260.8,374.5,260.5L374.5,260.5z"/>
			</g>
		</g>
	</g>
</g>
<g id="maskchilli">
	<g>
		<g>
			<path d="M237.9,265c5,1.3,10.1,2.6,15.1,4c4.6,1.2,6.1,0.7,7.5,5c2.6,8.3,8.6,15.5,17.3,17.7c8.5,2.1,17.7-1.4,22.6-8.7
				c4.8-7.3,4.5-18.6-5-21.8c-8.3-2.8-16.7,1.9-23.1,6.8c-6.6,5.1-14.5,11.6-17,19.8c-5.6,18.2,13.8,38.9,32.4,35.6
				c8.9-1.6,20-7.7,24.6-15.8c2.4-4.3,3.8-10.1,1.5-14.7c-3-6.1-8.1-5.3-13.8-5.9c1.3,0.4,2.7,0.7,4,1.1c0.4,1.2,0.7,2.5,1.1,3.7
				c0.2-0.2,0.4-0.4,0.5-0.6c0.5-0.1,1.5-1.3,2-1.5c1.7-1,3.6-1.4,5.5-1.4c3.9,0.2,7.3,2.7,10.6,4.6c8.9,5.2,18.6,8.3,28.6,10.6
				c4.4,1,9,2.4,13.6,2.2c5.1-0.3,9.5-2.8,14-5c9-4.6,17.5-9.5,25.2-16c-4.5-2.6-8.9-5.2-13.4-7.8c-5.2,16.5-17.3,29.4-33.1,36.3
				c3.6,1,7.3,1.9,10.9,2.9c-0.1,0.8-0.2,1.6-0.3,2.5c-4.5-2.6-8.9-5.2-13.4-7.8c-0.3,1-0.6,1.3-1.3,2c-0.4,0.3-0.8,0.5-1.3,0.8
				c-1.8,0.7-1.7,1,0.4,0.9c1,1,1.9,1.9,2.9,2.9c0.1,0.3,0.2,0.7,0.3,1c-0.4,1.3-0.7,2.7-1.1,4c0.2-0.3,0.4-0.6,0.6-0.8
				c-4.6-2.7-9.2-5.4-13.8-8.1c-1.4,2.1-3.4,3.7-5.8,4.6c3.3,1.9,6.6,3.7,9.8,5.6c-0.4-1.4-0.2-1.3,0.7-2.6
				c-4.9-2.1-9.7-4.1-14.6-6.2c-0.6,1.7-2.2,2.8-3.8,3.3c3,1.2,6,2.5,9,3.7c-0.6-0.9-0.8,0-0.2-1c4.7-7.5-6.8-16.9-12.6-9.7
				c-1.3,1.6-2.4,3.1-3.4,4.9c-0.3,0.7-0.7,1.4-1,2.1c-0.5,0.8-0.2,0.7,0.9-0.3c1.3,0.4,2.7,0.7,4,1.1c0.1,1.1,0.2,1.1,0.2,0.2
				c0-0.6,0.1-1.3,0.2-1.9c-5.1-1.4-10.3-2.8-15.4-4.3c-0.1,0.9-1.3,4.5-1,5c0.5-0.2,1.1-0.1,1.6,0.2c1.6,0.5,2,0.4,1.2-0.3
				c0-0.2-1.6-1.8-1.2-1.1c0.3,2.1,0.5,4.1,0.8,6.2c0.8-3.1,2.9-6.2,4.3-9c1.6-3.3,3.2-6.7,4.9-9.9c1.2-2.1,2.4-4.6,4.6-5.9
				c3.1-1.8,7.2-0.3,10.3,0.6c7.4,2.2,14.3,4.6,22,5.4c7.6,0.8,15.4,0.2,22.8-1.5c6.5-1.5,13.4-3.9,18.3-8.6
				c5.4-5.1,7.2-12.1,7.8-19.2c0.6-6.3,2.3-15.6-2.5-20.6c-5.4-5.7-13.8-3.5-18.6,1.8c-5.9,6.5-9,15.2-11.8,23.4
				c-3,8.7-5.3,17.7-7.7,26.6c-2.6,10,12.8,14.2,15.4,4.3c2.2-8.3,4.4-16.6,7.1-24.8c1.2-3.7,2.4-7.4,4-10.9c1-2.1,3.5-7.8,5.4-8.1
				c-1.4,0-2.8,0-4.3,0c-0.2-0.2-0.5-0.3-0.7-0.5c-0.7-1.2-1.4-2.4-2.1-3.5c0.8,3.1-0.2,7.7-0.4,10.9c-0.2,2.8-0.4,6.1-2.2,8.3
				c-4.1,5.2-14,6.3-20,6.7c-8.5,0.5-16.4-1-24.4-3.6c-7.9-2.6-16-4.9-24.1-1.6c-7.3,2.9-11.4,9.5-14.8,16.2
				c-1.9,3.8-3.8,7.7-5.6,11.5c-1.8,3.7-4.7,7.9-3.5,12.2c1.9,6.7,10.2,12,16.9,10.5c7.9-1.7,11.4-8.8,12.5-16.2
				c0.6-4.3-1.1-8.6-5.6-9.8c-3.9-1.1-9.1,1.3-9.8,5.6c-1.4,7.9-0.5,18,8.9,20.6c4,1.1,8.3,0,11.4-2.8c2.7-2.4,3.4-5.7,5.6-8.4
				c-4.2-3.2-8.4-6.5-12.6-9.7c-3.3,5.3-3.4,11.9,0.2,17.1c1.9,2.9,5.5,4.8,9,3.7c7.4-2.4,12.2-7.3,15-14.5
				c3.4-8.9-9.9-13.3-14.6-6.2c-3,4.5-3.6,9.7-2.3,15c1,3.9,5.8,7.1,9.8,5.6c6.5-2.4,11.5-6.2,15.4-12c2.4-3.6,0.7-8.9-2.9-10.9
				c-4.1-2.4-8.3-0.6-10.9,2.9c-6,7.9,2.4,17.3,10.8,16.7c8.1-0.6,15.9-7.4,18-15.1c2-7.3-8.1-14.1-13.4-7.8
				c-4.4,5.2-5.1,10.8-2.2,16.9c2,4.2,7.3,4.5,10.9,2.9c19.5-8.5,34.1-25.7,40.4-45.9c2.6-8.2-7.7-12.6-13.4-7.8
				c-4.8,4.1-10.2,7.3-15.8,10.3c-4.2,2.3-10,6.7-15,6c-12.4-1.9-23.9-6.4-34.7-12.6c-10.7-6.1-23.2-6.6-32.8,1.8
				c-4.6,3.9-7.5,10-5.6,16c0.8,2.6,2.7,5.1,5,6.6c1.5,0.9,3.3,1.4,5.1,1.6c0.5,0,3.7,0.6,2.3-0.3c-1-1-1.9-1.9-2.9-2.9
				c0.2,0.4,0.3,0.7,0.5,1.1c-0.4-1.3-0.7-2.7-1.1-4c0.4,5.3-7.2,8.1-11.2,9.8c-5.2,2.1-11.2-1-14.6-5.2c-3.4-4.1-3.6-8.9,0.1-12.7
				c4.1-4.3,8.6-9,14-11.6c0.4-0.2,2.6-0.7,2.8-1c0,0.1-1.6-3.6-2.2-3.6c0.4,0-2.7,3.2-3.2,3.3c-4.6,1.5-7.7-3.3-8.8-7
				c-2-6.6-5.4-11.4-12.1-13.7c-6.9-2.4-14.4-3.9-21.5-5.7C232.2,246.9,227.9,262.4,237.9,265L237.9,265z"/>
		</g>
	</g>
</g>
</svg>
