<?xml version="1.0" standalone="no"?>
<!DOCTYPE svg PUBLIC "-//W3C//DTD SVG 1.1//EN" "http://www.w3.org/Graphics/SVG/1.1/DTD/svg11.dtd" >
<svg xmlns="http://www.w3.org/2000/svg" xmlns:xlink="http://www.w3.org/1999/xlink" version="1.1">
<metadata></metadata>
<defs>
<font id="gallientregular" horiz-adv-x="1667" >
<font-face units-per-em="2048" ascent="1638" descent="-410" />
<missing-glyph horiz-adv-x="649" />
<glyph unicode="&#xfb01;" horiz-adv-x="1058" d="M-123 1083q0 8 6 9h226v114q0 164 51 275q53 111 151.5 176t220.5 65q61 0 120 -18t110 -59q16 -12 29.5 -27.5t20.5 -33t5 -36t-18 -37.5q-18 -18 -41 -18q-31 0 -57.5 31.5t-43.5 60.5q-41 59 -77.5 88t-87.5 29q-41 0 -105 -23q-66 -25 -98.5 -71.5t-47 -110 t-14.5 -137.5v-148v-120h138q94 0 183 18t169 51q10 4 18 8.5t17 8.5q29 12 35 34.5t5 49t-2.5 55.5t13.5 55q10 20 30.5 32.5t45.5 12.5q35 0 58.5 -24.5t23.5 -59.5q0 -16 -7.5 -33.5t-19.5 -27.5q-49 -45 -117.5 -82t-143.5 -62.5t-151 -39t-141 -13.5q-39 -2 -77 -1 t-77 1v-796q0 -92 11.5 -148.5t35.5 -85.5q4 -8 11.5 -14t17.5 -15h-270q18 16 33.5 37t23.5 43q10 27 14.5 71t4.5 112v796h-226q-6 0 -6 8zM743 1038l209 84h2v-884q0 -78 7.5 -113t11.5 -49q8 -16 17 -29.5t22 -23.5h-234q20 18 31.5 44.5t16.5 56.5t6.5 59.5t1.5 54.5 v446q0 98 -2.5 160.5t-10.5 91.5q-12 57 -43 82q-15 14 -35 20z" />
<glyph horiz-adv-x="0" />
<glyph horiz-adv-x="0" />
<glyph unicode="&#xd;" horiz-adv-x="0" />
<glyph unicode="&#xa;" horiz-adv-x="0" />
<glyph unicode=" "  horiz-adv-x="649" />
<glyph unicode="&#x09;" horiz-adv-x="649" />
<glyph unicode="&#xa0;" horiz-adv-x="649" />
<glyph unicode="!" horiz-adv-x="358" d="M80 1518q0 47 23.5 88t76.5 41q29 0 47.5 -14.5t28.5 -36t14 -47t4 -48.5v-33.5t-4 -46.5l-92 -1130l-92 1130q-2 33 -4 57t-2 40zM82 45q0 41 29 68q29 29 67 28q41 0 67.5 -27.5t26.5 -68.5t-26.5 -67.5t-67.5 -26.5t-67 26q-29 27 -29 68z" />
<glyph unicode="&#x22;" horiz-adv-x="483" d="M29 1860h166l-41 -572h-88zM291 1860h166l-41 -572h-86z" />
<glyph unicode="#" horiz-adv-x="1208" d="M47 438v82l242 2l82 385h-324v80h340l115 574h80l-115 -574h379l123 574h84l-121 -574h225v-80h-237l-78 -385h315v-84h-334l-118 -573h-82l116 573h-383l-118 -573h-82l116 573h-225zM373 522h383l82 385h-387z" />
<glyph unicode="$" horiz-adv-x="1052" d="M57 -55v168q27 -70 68 -117t94 -74.5t117.5 -39t136.5 -11.5v811q-135 82 -223 155.5t-131 133.5q-59 84 -60 209q0 84 36 150.5t94.5 114.5t133 75.5t150.5 31.5v88h107v-88q88 -8 169.5 -39.5t161.5 -62.5v-150q-43 117 -124.5 171.5t-206.5 64.5v-752 q129 -92 213 -160.5t125 -113.5q78 -92 77 -236q0 -86 -34.5 -157.5t-93 -124.5t-133.5 -88t-154 -45v-92h-107v88q-104 0 -212 26.5t-204 63.5zM166 1262q0 -74 26.5 -132.5t69.5 -107.5t98.5 -89t112.5 -75v678q-66 -4 -122 -20.5t-97 -49t-64.5 -83t-23.5 -121.5z M580 -125q92 12 151.5 47t106.5 117t47 174q0 98 -60 182q-51 78 -245 215v-735z" />
<glyph unicode="%" horiz-adv-x="1417" d="M53 1145q0 59 15.5 138t52.5 148.5t97.5 116.5t150.5 45q86 0 145 -47t96 -113.5t53.5 -141t16.5 -132.5q0 -59 -14.5 -136t-50 -144.5t-95 -114.5t-151.5 -47q-90 0 -150.5 44t-97.5 109.5t-52.5 140t-15.5 134.5zM80 -186l1186 1730l82 -106l-1198 -1727zM152 1130 q0 -49 3 -118.5t23.5 -134t64.5 -109.5t126 -45q57 2 95 27.5t62.5 65.5t35.5 91t16.5 102.5t5.5 99.5v81q0 47 -5.5 113.5t-26 129t-63.5 107.5t-120 47q-55 0 -93 -24.5t-63 -63.5t-37 -89t-17 -101.5t-6 -98.5t-1 -80zM731 119q0 59 16.5 137t53.5 147.5t97 117.5t151 46 q86 0 145 -47t96 -113.5t53.5 -141.5t16.5 -132q0 -59 -14.5 -136t-50 -146.5t-95 -116.5t-151.5 -47t-152.5 45t-97.5 110.5t-52.5 141.5t-15.5 135zM829 102q0 -49 4.5 -118.5t25 -133t64.5 -108.5t126 -45q57 0 96 25.5t62.5 66.5t35.5 92t16.5 102.5t4.5 99.5v81 q0 47 -5.5 113.5t-27 129t-64.5 107.5t-118 47q-82 0 -127 -52t-65.5 -126t-24 -152t-3.5 -129z" />
<glyph unicode="&#x26;" horiz-adv-x="1812" d="M18 193q0 113 51.5 202.5t131.5 162.5t174 131.5t180 103.5q-43 94 -80 192t-37 203q0 86 31 155.5t84 117.5t125 74t156 26q59 0 112 -17.5t94 -51.5t65.5 -82t24.5 -112q0 -59 -21.5 -100t-54 -73.5t-70.5 -61.5t-70.5 -64.5t-54 -83t-21.5 -114.5q0 -43 28.5 -115 t75.5 -139.5t105.5 -117.5t115.5 -50q31 0 60.5 28.5t54.5 75.5t43 105.5t23.5 118t-5 113.5t-39.5 91h263q-47 -27 -84 -78t-67 -112.5t-56.5 -125t-54 -115.5t-60.5 -85t-76 -33q-61 0 -122.5 50.5t-110.5 121t-80 144.5t-31 123q0 94 39 157.5t87 116.5t87 106.5 t39 123.5q0 104 -65.5 171.5t-173.5 67.5q-55 0 -104.5 -19.5t-85.5 -53t-56.5 -81t-20.5 -102.5q0 -96 47.5 -232t125 -282.5t178 -291t207 -260.5t213 -186.5t194.5 -70.5q47 0 92 13.5t84 44.5q-47 -78 -121 -121t-166 -43q-70 0 -130 24.5t-115.5 62.5t-103.5 86l-93 93 q-63 -57 -123.5 -105.5t-126 -84t-139.5 -56t-162 -20.5q-76 0 -148.5 20.5t-131 62.5t-94.5 104.5t-36 146.5zM190 307q0 -80 27 -149.5t75 -121.5t115.5 -82t149.5 -30q66 0 119 18.5t102 48t95.5 66.5t95.5 76q-119 164 -217.5 316.5t-188.5 332.5q-70 -41 -136.5 -87 t-118.5 -102t-85 -126t-33 -160z" />
<glyph unicode="'" horiz-adv-x="215" d="M25 1888h165l-40 -571h-89z" />
<glyph unicode="(" horiz-adv-x="471" d="M74 594q0 127 23.5 255t69.5 248t115.5 229.5t161.5 197.5q-61 -94 -103 -204t-67.5 -226.5t-36 -235.5t-10.5 -229q0 -117 9.5 -248t34 -259t69.5 -248t119 -216q-190 193 -287.5 430.5t-97.5 505.5z" />
<glyph unicode=")" horiz-adv-x="489" d="M10 1499q10 -10 20.5 -19.5t20.5 -19.5q180 -184 272.5 -423.5t92.5 -495.5q0 -258 -89 -493.5t-268 -422.5q59 86 98.5 195.5t63 227.5t33.5 235.5t10 218.5q0 137 -11 262t-34 237q-12 74 -29.5 138.5t-41 125t-57.5 118t-81 116.5z" />
<glyph unicode="*" horiz-adv-x="942" d="M51 913q0 29 26.5 51.5t49.5 32.5q10 4 40 12.5t107 24.5q14 4 27.5 7t28.5 8q-12 -10 -23.5 -22.5t-23.5 -25.5q-53 -59 -83 -85.5t-44 -36.5q-12 -6 -23.5 -10.5t-23.5 -4.5t-21.5 5t-19.5 12q-10 12 -13.5 20t-3.5 12zM51 1341q0 16 17.5 29.5t33.5 13.5q31 0 66 -20 q14 -6 38.5 -27.5t65.5 -66.5q14 -18 28.5 -33.5t29.5 -28.5q-20 4 -56 11.5t-72 16.5t-68 19.5t-44 20.5q-27 16 -33 34.5t-6 30.5zM414 723q0 27 5 59.5t19 73.5q12 33 20.5 58.5t12.5 43.5q6 -23 16.5 -55.5t19.5 -66t16 -64.5t7 -49q0 -33 -22 -55q-12 -20 -29 -21 q-37 0 -51 22.5t-14 53.5zM414 1518q0 49 18 69q10 10 19.5 14.5t25.5 4.5q31 0 42 -31t11 -55q0 -25 -8 -61t-24 -83q-8 -23 -13.5 -42t-11.5 -40q-4 16 -8 34t-10 34q-29 76 -35 110t-6 46zM610 1204q25 23 47 47q53 61 80 85t37 30q27 16 62 16q25 0 41 -14 q12 -14 12 -37q0 -8 -4 -20.5t-21 -28.5q-14 -10 -47 -22.5t-70.5 -22.5t-75.5 -19.5t-61 -13.5zM616 1044q14 -4 29 -7t31 -7q92 -16 130 -32.5t48 -26.5q33 -27 33 -58q0 -18 -17 -32q-12 -16 -34 -17q-23 0 -48.5 14.5t-49 35t-44 43t-32.5 38.5q-10 12 -22.5 24.5 t-23.5 24.5z" />
<glyph unicode="+" horiz-adv-x="1327" d="M27 125v106h585v580h103v-580h583v-106h-583v-584h-103v584h-585z" />
<glyph unicode="," horiz-adv-x="288" d="M23 -166q37 12 72.5 32.5t51.5 57.5q8 23 4 38t-8 26q-8 8 -21 19t-50 32q-12 6 -19 18q-23 33 -18 70q6 29 45 57q33 23 80 13q45 -12 73 -54q37 -51 15 -129q-8 -35 -31.5 -65.5t-55.5 -54t-67.5 -39t-70.5 -21.5z" />
<glyph unicode="-" horiz-adv-x="614" d="M25 385v102h565v-102h-565z" />
<glyph unicode="." horiz-adv-x="256" d="M33 109q0 41 27.5 67.5t68.5 26.5t67.5 -26.5t26.5 -67.5t-26.5 -69t-67.5 -28t-68.5 28t-27.5 69z" />
<glyph unicode="/" horiz-adv-x="880" d="M102 41l590 1741h86l-590 -1741h-86z" />
<glyph unicode="0" horiz-adv-x="1165" d="M74 825q0 76 11 169t34.5 188.5t63.5 186.5t96.5 160.5t133 111.5t175.5 40q94 -2 166.5 -44t129 -110.5t96.5 -155.5t64.5 -179t36 -181t11.5 -161q0 -76 -10.5 -168t-33 -186.5t-61.5 -183.5t-94 -158.5t-131 -111.5t-174 -42t-175 40t-133.5 105.5t-96.5 151.5 t-63.5 177t-34.5 182t-11 169zM231 793q0 -61 2.5 -143.5t12.5 -169.5t31.5 -171t60.5 -149.5t100.5 -105.5t149.5 -38q92 2 153.5 51.5t100.5 127t58.5 174t26.5 195t7 188.5v153q0 59 -3 138t-13.5 163t-33 165t-60.5 146.5t-96 105.5t-140 42q-90 2 -151.5 -44 t-101.5 -121t-61.5 -171t-31 -193.5t-10.5 -188.5t-1 -154z" />
<glyph unicode="1" horiz-adv-x="421" d="M57 1563l230 112v-1392q0 -51 1 -85t3 -56.5t5 -35t5 -20.5q8 -35 45 -61h-240q29 20 44 53q4 8 7 20.5t5 35t3 58t1 91.5v923q0 193 -12 250q-10 41 -33 68.5t-64 38.5z" />
<glyph unicode="2" horiz-adv-x="1124" d="M102 25q119 109 235 235.5t220 249.5q63 72 123.5 144.5t108 150.5t76 166t28.5 190q0 84 -28.5 160t-80 133t-123 91t-159.5 34q-90 0 -174 -40t-146 -114q53 123 155.5 190.5t237.5 67.5q86 0 166 -29.5t142.5 -82.5t99.5 -128t37 -165q0 -109 -45 -215.5 t-112.5 -205.5t-146.5 -189t-145 -168q-88 -102 -178 -202.5t-160 -174.5h523q72 0 121 4t77 8q66 10 117 49q2 2 3 2t3 2l-59 -163h-916z" />
<glyph unicode="3" horiz-adv-x="1052" d="M102 84q0 6 3.5 13t13.5 18q16 16 47 16q10 0 21.5 -2t21.5 -6q39 -12 73.5 -30.5t68.5 -35t71 -28t82 -6.5q117 10 204 60t134 129t50 180.5t-50 213.5q-49 106 -141.5 169t-204.5 87q53 23 108 61t90 83q41 53 63.5 118.5t23.5 134t-21.5 134t-71.5 114.5 q-94 92 -235 92q-123 0 -226 -73q68 80 139.5 117.5t182.5 37.5q182 0 280 -118q59 -72 65.5 -147t-19 -147.5t-72.5 -142t-96 -131.5q-8 -10 -14.5 -18t-16.5 -16q145 -59 228 -156.5t83 -257.5q0 -109 -34.5 -203t-98 -167t-151 -117t-191.5 -54q-37 -4 -76 -8t-80 -4 q-16 0 -58 2t-85 11t-77 26.5t-34 50.5z" />
<glyph unicode="4" horiz-adv-x="1196" d="M102 475v96l779 1110h69v-1116h230v-88h-230v-452h-119v452zM119 565h712v1022z" />
<glyph unicode="5" horiz-adv-x="958" d="M14 117q0 4 2.5 12t12.5 18q10 6 19 10.5t24 4.5q12 0 21 -2t20 -6q4 -2 21.5 -11.5t53.5 -36.5q109 -74 207 -73q47 0 95.5 16.5t101.5 44.5q102 55 157.5 137t68.5 174.5t-13.5 189.5t-91.5 183q-55 78 -125 130.5t-149 85t-166 50t-177 23.5l287 580h516l-57 -125 h-504l-152 -312l50 -6q322 -49 505 -237q96 -98 131 -224.5t14.5 -251t-93 -234.5t-191.5 -177q-72 -41 -164 -63.5t-176 -22.5q-137 0 -196 43q-51 39 -52 80z" />
<glyph unicode="6" horiz-adv-x="1103" d="M61 649q0 223 89.5 420t252.5 350q164 156 314 207q6 4 13 5t13 3q-98 -53 -190 -143q-82 -82 -137.5 -170t-92 -182.5t-60 -196.5t-42.5 -217q55 133 163 215t255 82q88 0 164 -36t132 -99.5t88 -149.5t32 -184q0 -96 -35 -197.5t-97.5 -185.5t-150.5 -137t-192 -53 q-127 0 -224.5 62t-163 160.5t-98.5 217t-33 229.5zM213 565q0 -84 18.5 -183t61.5 -184t113 -143.5t172 -58.5q94 0 159.5 33.5t106.5 91t59.5 134.5t18.5 161q0 80 -19.5 180t-61.5 188t-105.5 148.5t-153.5 60.5q-70 0 -127.5 -28.5t-103.5 -74.5t-78.5 -103.5 t-55.5 -116.5q-2 -29 -3 -55.5t-1 -49.5z" />
<glyph unicode="7" horiz-adv-x="1130" d="M102 1438l84 209h842l-557 -1657h-119l512 1540h-463q-154 0 -225 -39q-18 -12 -37.5 -24.5t-36.5 -28.5z" />
<glyph unicode="8" horiz-adv-x="1036" d="M71 336.5q-3 101.5 47 193t138 172.5t176 144h-2l-35 31q-100 80 -162.5 143t-91.5 110q-59 102 -49 206t69.5 187t157 133t209.5 48q100 0 189.5 -46t145 -120t63.5 -166t-56 -184q-20 -33 -60 -70t-84 -73.5t-89 -70.5t-76 -56l35 -27q215 -166 287 -260 q86 -119 86 -248q0 -88 -37 -162t-98.5 -127t-141.5 -81.5t-166 -28.5q-100 0 -194 34.5t-164 112.5q-94 104 -97 205.5zM170 405.5q-8 -108.5 26.5 -198.5t115.5 -148.5t210 -58.5q109 0 193 38t128 103.5t43 149.5t-63 176q-47 72 -138 160t-232 200l-11 7 q-59 -45 -118.5 -95.5t-94.5 -120.5q-51 -104 -59 -212.5zM182 1403q0 -74 39 -152q27 -51 66 -95t83 -83t90 -74.5t87 -70.5q66 47 119 90t92 93t60.5 111.5t21.5 147.5q0 143 -82 229.5t-230 90.5q-61 0 -122.5 -18.5t-110.5 -55.5t-81 -90t-32 -123z" />
<glyph unicode="9" horiz-adv-x="1103" d="M47 1118q0 94 35 195.5t97.5 184.5t150.5 137.5t192 54.5q127 0 224.5 -62.5t163 -161t98 -217.5t32.5 -229q0 -223 -89 -421t-251 -349q-168 -156 -313 -207q-8 -2 -13 -5t-14 -5q98 53 189 147q84 82 139 169t91 181.5t59.5 197.5t42.5 216q-57 -133 -163 -214 t-255 -81q-86 0 -162 36t-132 99.5t-89 149.5t-33 184zM184 1255q0 -80 19.5 -180t60.5 -188t105.5 -148.5t152.5 -60.5q68 0 126.5 28.5t104.5 74.5t79.5 103.5t52.5 116.5q2 29 4 54.5t2 48.5q0 84 -18.5 183t-61.5 184t-112.5 142.5t-172.5 59.5q-94 0 -159.5 -33.5 t-106.5 -91t-58.5 -133.5t-17.5 -160z" />
<glyph unicode=":" horiz-adv-x="288" d="M47 117q0 23 7.5 38t21.5 31q29 29 67 29q35 0 70 -29q27 -29 27 -69q0 -41 -27 -68q-33 -27 -70 -26q-41 0 -68.5 26.5t-27.5 67.5zM49 758q0 41 27.5 68.5t68.5 27.5t68 -27.5t27 -68.5t-27 -67.5t-68 -26.5t-68.5 26.5t-27.5 67.5z" />
<glyph unicode=";" horiz-adv-x="325" d="M45 123q0 41 35 67.5t74 26.5q49 -4 82 -39q47 -43 40 -121q-6 -76 -60 -138t-124 -85q33 16 63.5 44t41.5 69q4 23 -3.5 37t-13.5 24q-10 8 -26.5 16.5t-55.5 18.5q-20 8 -36.5 32.5t-16.5 47.5zM78 762q0 41 26.5 68.5t67.5 27.5t68.5 -27.5t27.5 -68.5t-27.5 -67.5 t-68.5 -26.5t-67.5 26.5t-26.5 67.5z" />
<glyph unicode="&#x3c;" horiz-adv-x="1411" d="M102 801v2l1270 549v-105l-1026 -444l1026 -453v-104z" />
<glyph unicode="=" horiz-adv-x="1347" d="M37 344v105h1272v-105h-1272zM37 664v106h1272v-106h-1272z" />
<glyph unicode="&#x3e;" horiz-adv-x="1411" d="M37 246v104l1026 453l-1026 444v105l1270 -549v-2z" />
<glyph unicode="?" horiz-adv-x="899" d="M20 1323q0 80 37 142.5t96.5 103.5t132 62.5t144.5 21.5q80 0 157 -23.5t138 -70t98 -113t37 -154.5q0 -41 -8 -85t-29 -87q-31 -74 -81 -136t-102 -123.5t-101.5 -125t-79.5 -139.5q-18 -45 -28.5 -100.5t-6.5 -133.5q0 -6 -8 -6t-8 6q-4 76 6 131.5t26 102.5 q25 63 60 123.5t69.5 122t67.5 124t53 132.5q14 41 19.5 83t5.5 83q0 168 -82 271t-221 103q-78 0 -168 -36q-72 -29 -105 -61t-40 -64.5t3.5 -65.5t26.5 -63.5t30.5 -58t14.5 -52.5t-15.5 -46.5t-41.5 -21.5q-27 0 -46.5 16.5t-29.5 40t-15.5 50.5t-5.5 47zM319 102 q0 41 29 71t70 30t69.5 -26.5t28.5 -67.5t-29.5 -72t-70.5 -31t-69 27.5t-28 68.5z" />
<glyph unicode="@" horiz-adv-x="1828" d="M61 369q0 197 71 374t197 311t299 211.5t376 77.5q152 0 280.5 -47t223 -134t148.5 -213t54 -283q0 -88 -20.5 -179.5t-59.5 -175.5t-96 -155.5t-133 -122.5q-20 -12 -46 -26.5t-53.5 -27t-55 -19.5t-52.5 -7q-31 0 -58.5 11t-54.5 26q-39 23 -68.5 31t-51.5 8 q-33 0 -58.5 -11.5t-53.5 -26t-59.5 -25.5t-78.5 -11q-55 0 -97.5 20.5t-72 54t-45 80t-15.5 97.5q0 78 46 141.5t113 113.5t142.5 88t135.5 62q45 18 83.5 37t71.5 39q23 16 38 50t13 67q-2 55 -13 103t-35.5 85t-67.5 57.5t-109 20.5q-41 0 -85 -8t-81 -26.5t-61.5 -50.5 t-24.5 -79l2 -76q0 -31 -14 -52t-49 -21q-33 0 -46.5 23.5t-13.5 54.5q0 61 35 107t89.5 79t120 49t128.5 16q49 0 99.5 -6t94.5 -23.5t78.5 -47t53.5 -76.5q4 -14 12 -58.5t8 -148.5v-391v-94t1 -60.5t3 -36t4 -18.5q4 -33 22.5 -64.5t57.5 -31.5q25 0 47.5 16t46.5 33 q63 45 112.5 116.5t82.5 154.5t49.5 170t16.5 163q0 145 -52.5 264t-142.5 203t-214 131t-269 47q-201 0 -365 -82t-280.5 -219t-181 -315t-64.5 -371q0 -178 58.5 -330.5t165 -263t257 -174t334.5 -63.5q145 0 270 38.5t230.5 112.5t188.5 178.5t140 233.5h19 q-47 -135 -134 -244t-200 -184.5t-246 -116.5t-274 -41q-186 0 -346 66.5t-274.5 184.5t-180.5 279t-66 351zM594 252q-2 -78 76 -164q31 -35 67.5 -54.5t77.5 -19.5q31 0 62 13q27 10 48 14t42 4q37 0 65.5 -11t57.5 -28q18 -10 36.5 -19.5t38.5 -13.5q-4 2 -6 4.5t-6 4.5 q-10 12 -18.5 38.5t-10.5 79.5v611q-37 -35 -88 -60.5t-110 -52.5q-76 -33 -155 -85t-127 -117.5t-50 -143.5z" />
<glyph unicode="A" horiz-adv-x="1460" d="M-27 6q27 12 53.5 48t51 79t44 85t30.5 67l581 1362l576 -1377q39 -92 73.5 -150.5t69.5 -88.5q8 -6 16.5 -13.5t18.5 -11.5h-352q29 20 41 48t12 59t-12.5 79t-40.5 113l-113 264h-727l-125 -286q-23 -57 -34 -98.5t-11 -69.5q0 -20 9 -48t44 -57l8 -4h-213zM301 586 h719l-354 846z" />
<glyph unicode="B" horiz-adv-x="1368" d="M47 6q55 41 67.5 104.5t12.5 129.5v1146q0 63 -11.5 130t-66.5 108l8 2q121 0 217.5 2t183.5 2t172 -4t183 -16q84 -8 162 -36t138.5 -75t97 -117.5t36.5 -169.5q0 -98 -39 -160.5t-102.5 -102.5t-140 -64.5t-154.5 -48.5q90 -18 182 -42t167 -67t122 -113.5t47 -185.5 q0 -59 -19.5 -114.5t-54.5 -102.5q-51 -74 -122.5 -116t-153.5 -61.5t-169 -23.5t-169 -4h-594zM279 23q71 -1 161 -3q25 -1 51 0q65 0 133 4q94 6 184.5 25t160 62t112.5 114.5t43 182.5q0 86 -31.5 162.5t-86 134t-127 91t-154.5 33.5h-446v-806zM279 846h446 q74 0 137.5 27.5t111.5 77.5t74.5 120t26.5 154q0 113 -39 185.5t-103.5 114.5t-148.5 61.5t-172 24.5q-55 3 -110 3q-33 0 -65 -1q-87 -3 -158 -3v-764z" />
<glyph unicode="C" horiz-adv-x="1476" d="M43 817q0 178 52 333t151.5 268.5t246 179t336.5 65.5h48q98 0 166.5 -18.5t116.5 -40t82 -40t67 -18.5q37 0 64.5 17.5t47.5 46.5l23 -310q-39 74 -95.5 136.5t-123 108.5t-142 71.5t-157.5 25.5q-186 0 -317.5 -66.5t-213.5 -180t-118.5 -263t-36.5 -315.5t36.5 -316.5 t118.5 -264t213 -181t318 -67.5q174 0 307 89t211 255l-23 -309q-43 61 -112 61q-33 0 -60.5 -18.5t-71.5 -40t-114 -40t-186 -20.5h-48q-190 0 -336.5 65.5t-246 180.5t-151.5 270.5t-52 335.5z" />
<glyph unicode="D" horiz-adv-x="1552" d="M47 6q12 10 23.5 20.5t21.5 26.5q4 8 10.5 22.5t11.5 39t9 60.5t4 89v1104q0 176 -47 231q-8 6 -15.5 13.5t-15.5 13.5h481q68 0 141.5 -3t148.5 -12t145.5 -25.5t130.5 -43.5q106 -47 184 -124t129 -171t76.5 -202.5t25.5 -219.5q0 -340 -202 -567q-74 -82 -166 -131 t-193.5 -75.5t-207 -36t-210.5 -9.5h-485zM276 23q121 -1 235 -3h31q98 0 188 14q104 16 199 58.5t179 130.5q207 219 207 588q0 373 -207 590q-78 84 -177.5 126t-208 60.5t-223 19.5t-223.5 1v-1585z" />
<glyph unicode="E" horiz-adv-x="1193" d="M45 6q43 29 61 76q4 16 11.5 53t7.5 127v1112q0 59 -4 99t-11.5 67t-15.5 41t-14 23q-6 4 -12.5 11t-12.5 11h1053l8 -151q-4 10 -8 17t-8 13q-27 43 -55.5 64.5t-61.5 30t-68.5 8.5h-78.5h-562v-746h408h60.5t63.5 4t61.5 14.5t52.5 30.5q16 12 26 26.5t21 31.5v-230 q-31 57 -93 84q-47 24 -90 24h-3q-44 -1 -99 -1h-408v-821h605q59 0 102 11t78 33.5t65.5 55.5t63.5 76l-70 -195h-1073z" />
<glyph unicode="F" horiz-adv-x="1064" d="M45 1626h1020l6 -182q-35 80 -102.5 122t-155.5 42h-537v-748h357q125 0 188 62q18 14 37 49v-221q-41 59 -99.5 76.5t-125.5 17.5h-357v-580q0 -96 7.5 -134t11.5 -54q18 -43 63 -70h-311q23 12 37 35q41 53 41 223v1104q0 92 -6 131t-13 55q-18 43 -61 72z" />
<glyph unicode="G" horiz-adv-x="1601" d="M43 817q0 178 52 333t151.5 268.5t246 179t336.5 65.5h48q98 0 166.5 -18.5t116.5 -40t82 -40t67 -18.5q37 0 64.5 17.5t47.5 46.5l23 -310q-39 74 -95.5 136.5t-123 108.5t-142 71.5t-157.5 25.5q-186 0 -317.5 -66.5t-213.5 -180t-118.5 -263t-36.5 -315.5t36.5 -316.5 t118.5 -264t213 -181t318 -67.5q123 0 229.5 45t177.5 131v432q0 94 -7 133t-17 55q-18 39 -54 64h304q-14 -10 -22.5 -21.5t-16.5 -23.5q-16 -31 -23.5 -80t-7.5 -127v-332q0 -92 7 -132t11 -56q18 -43 64 -70h-311q35 25 49 54.5t20 70.5q-20 -14 -51 -42t-82 -54.5 t-129 -47t-190 -22.5h-48q-190 0 -336.5 65.5t-246 180.5t-151.5 270.5t-52 335.5z" />
<glyph unicode="H" horiz-adv-x="1439" d="M45 1626h311q-43 -29 -61 -76q-6 -16 -12.5 -54t-6.5 -130v-526h885v526q0 94 -6 133t-14 55q-18 43 -60 72h312q-43 -27 -62 -78q-6 -16 -12 -54t-6 -128v-1102q0 -96 7 -134t13 -54q14 -41 62 -70h-312q10 6 18.5 15.5t18.5 19.5q41 53 41 223v559h-885v-559 q0 -96 7.5 -134t11.5 -54q18 -43 63 -70h-311q23 12 37 35q41 53 41 223v1102q0 94 -6 133t-13 55q-18 43 -61 72z" />
<glyph unicode="I" horiz-adv-x="405" d="M45 1626h311q-10 -8 -20 -17.5t-17 -19.5q-43 -51 -43 -221v-1104q0 -92 7.5 -132t11.5 -56q18 -43 63 -70h-311q23 12 37 35q41 53 41 223v1104q0 92 -6 131t-13 55q-18 43 -61 72z" />
<glyph unicode="J" horiz-adv-x="704" d="M-16 115q0 39 21.5 63.5t62.5 24.5q37 0 56 -34t34.5 -74t33 -73.5t48.5 -33.5h9q44 0 88 18q48 21 77 66q16 23 18 55.5t2 73.5v1167q0 92 -7 131t-11 55q-18 43 -64 70h312q-20 -12 -37 -35q-23 -29 -31 -81t-8 -140v-836q0 -188 -43 -299q-18 -53 -51 -102t-77 -86 t-97.5 -58.5t-112.5 -21.5q-43 0 -89 9.5t-81 39.5q-53 48 -53 101z" />
<glyph unicode="K" horiz-adv-x="1462" d="M45 1624h311q-43 -25 -61 -74q-6 -16 -12.5 -54t-6.5 -128v-1104q0 -92 7.5 -132t11.5 -56q18 -43 63 -70h-311q23 12 37 35q41 53 41 223v1104q0 137 -19 188q-16 39 -61 68zM371 829q20 18 58 53.5t97 88.5q377 348 459 465q23 33 31 60.5t8 53.5q0 16 -5 36t-24 38 h283q-27 -8 -58.5 -28.5t-62.5 -45t-58.5 -48t-47.5 -42.5q-14 -12 -78 -76.5t-180 -183.5l-293 -291l661 -659q35 -33 74 -69t82 -68.5t87 -60t89 -46.5h-483q23 20 31 43t8 39q0 20 -5.5 37.5t-11.5 36.5q-8 10 -24.5 32.5t-63.5 69.5z" />
<glyph unicode="L" horiz-adv-x="1165" d="M47 6q12 10 23.5 20.5t21.5 26.5q16 29 25.5 78t9.5 133v1104q0 176 -47 231q-8 6 -14.5 13.5t-16.5 13.5h326q-45 -29 -72 -74q-4 -8 -9 -22t-8 -39t-5 -61.5t-2 -90.5v-1075q0 -115 24 -164q27 -41 70 -59q8 -4 20.5 -7t36 -5t61 -3t95.5 -1h125q104 0 175.5 7 t117.5 25q20 8 47.5 22.5t53 34t48.5 41t33 42.5l-60 -191h-1079z" />
<glyph unicode="M" horiz-adv-x="1880" d="M39 1626h260l649 -1399l639 1399h244q-29 -20 -44 -50t-22.5 -64.5t-8.5 -70.5t-1 -67v-1118q0 -176 47 -225l13.5 -13.5t13.5 -11.5h-301q25 18 39 41q18 27 27.5 77t9.5 132v1350l-727 -1583l-727 1581l4 -1348q0 -176 43 -225q8 -6 14 -13.5t14 -11.5h-170 q10 10 20.5 19.5t18.5 21.5q20 27 27.5 77t7.5 132v1118q0 78 -12.5 140.5t-77.5 111.5z" />
<glyph unicode="N" horiz-adv-x="1497" d="M0 1626h242l1112 -1364v1112q0 92 -11.5 145.5t-35.5 82.5q-6 6 -13.5 12t-13.5 12h172q-12 -8 -22.5 -19.5t-20.5 -23.5q-16 -27 -25.5 -77t-9.5 -132v-1370l-1171 1432v-1180q0 -176 43 -225q8 -6 14 -13.5t16 -11.5h-172q12 10 22.5 19.5t18.5 21.5q35 49 35 209v1206 l-10 13q-76 90 -121 120q-20 18 -49 31z" />
<glyph unicode="O" d="M41 821q0 391 262 631q115 106 245 158.5t290 52.5q158 0 299 -58.5t258 -179.5q229 -238 229 -600q0 -186 -57.5 -338.5t-173.5 -275.5q-115 -119 -262.5 -182.5t-305.5 -63.5q-160 0 -302 60.5t-255 177.5q-227 237 -227 618zM242 827q0 -145 25.5 -295.5t91 -272.5 t179 -199.5t287.5 -77.5q178 0 295 69.5t184.5 183t95 259t27.5 297.5q0 455 -184 682q-74 96 -173 135t-232 39q-176 0 -292 -72t-183.5 -187.5t-94 -262t-26.5 -298.5z" />
<glyph unicode="P" horiz-adv-x="1107" d="M47 6q12 10 23.5 20.5t21.5 26.5q12 18 21.5 61.5t9.5 149.5v1104q0 92 -10.5 147.5t-32.5 83.5q-8 6 -14.5 13.5t-16.5 13.5h498q98 0 196.5 -25.5t175 -79t125 -134t48.5 -191.5q0 -106 -36 -186t-98.5 -133.5t-148.5 -80t-188 -26.5h-345v-506q0 -182 48 -231 q14 -18 30 -27h-307zM276 786h345q66 0 116.5 40t85.5 98.5t53.5 126t18.5 120.5q0 74 -23.5 151t-68.5 141.5t-109.5 105.5t-146.5 41h-271v-824z" />
<glyph unicode="Q" d="M41 819q0 172 58.5 324.5t164 268.5t252 183.5t322.5 67.5q160 0 300 -58.5t257 -179.5q231 -244 231 -612q0 -143 -41 -275t-117.5 -241t-187.5 -189.5t-250 -121.5l-55 -17l31 -49q59 -104 136 -198.5t177 -159.5q-193 63 -368 168.5t-318 249.5q-88 35 -161 73.5 t-124 79.5q-164 129 -235.5 305t-71.5 381zM242 819q0 -145 26.5 -295.5t94 -273.5t181 -201t287.5 -78q172 0 287 72t183.5 186.5t97 261t28.5 293.5q0 96 -11 197.5t-36.5 197t-69.5 181.5t-109.5 149.5t-155 100.5t-207.5 37q-178 0 -294 -73t-182.5 -189.5t-93 -265 t-26.5 -300.5z" />
<glyph unicode="R" horiz-adv-x="1327" d="M47 6q12 10 23.5 20.5t21.5 26.5q12 16 23.5 60.5t11.5 150.5v1104q0 92 -11.5 147.5t-35.5 83.5q-8 6 -15.5 13.5t-15.5 13.5l465 -2q98 0 206.5 -16.5t198 -59.5t147.5 -119.5t58 -199.5q0 -88 -30.5 -153.5t-84 -113t-123 -78t-147.5 -46.5l-67 -17l393 -547 q29 -39 59.5 -78.5t66.5 -75.5t76 -65.5t85 -48.5h-250l-576 797q84 12 157 43t128 82t87 121.5t32 162.5q0 90 -28 164t-87 129q-35 37 -67.5 57.5t-67.5 30t-75 12.5t-91 3h-238v-1344q0 -182 48 -231q14 -18 30 -27h-307z" />
<glyph unicode="S" horiz-adv-x="1124" d="M45 1260q0 92 38 166.5t101.5 127t145.5 81t170 28.5q129 0 272 -61q76 -35 119 -35q49 0 84 32l4 5v-291q-10 29 -21.5 52.5t-23.5 45.5q-33 55 -81 98t-105.5 74t-121 47.5t-126.5 16.5t-126 -20.5t-111 -59.5t-77.5 -95.5t-29.5 -125.5q0 -94 65 -172q80 -98 383 -263 q119 -63 200 -111t124 -81q72 -59 118 -142t46 -182q0 -172 -138 -301q-137 -129 -356 -129q-82 0 -146.5 16.5t-142.5 41.5q-84 29 -118.5 34.5t-49.5 5.5q-31 0 -49 -10t-31 -20v293q12 -35 24.5 -64t27.5 -51q33 -55 86 -97t117.5 -72t133 -45t130.5 -15q72 0 140 20.5 t121.5 60t85 99t31.5 139.5q0 84 -48 157.5t-113 123.5q-27 23 -94.5 62.5t-178.5 103.5q-111 59 -186.5 108t-120.5 84q-80 59 -126 137.5t-46 182.5z" />
<glyph unicode="T" horiz-adv-x="1290" d="M-18 1460l8 166h1310l7 -172q-25 45 -57.5 75t-71.5 47t-84 24.5t-93 7.5h-286v-1352q0 -176 47 -225q12 -16 29 -25h-304q25 18 39 41q39 51 39 209v1352h-252q-51 0 -96 -3t-84 -16.5t-73.5 -39t-65.5 -70.5q-4 -4 -6 -9.5t-6 -9.5z" />
<glyph unicode="U" horiz-adv-x="1472" d="M35 1626h311q-59 -51 -70.5 -116.5t-11.5 -141.5v-745q0 -127 18.5 -243t73 -203t149.5 -139t249 -52q180 0 321 77q92 51 143.5 117t76 143.5t29.5 167t5 183.5v694q0 176 -47 231q-8 6 -14 13.5t-17 13.5h191q-66 -51 -78 -120.5t-12 -147.5v-692q0 -92 -6.5 -177.5 t-29 -162t-69.5 -143t-129 -124.5q-137 -96 -379 -96q-94 0 -185 14.5t-170 52.5t-138.5 101.5t-93.5 161.5q-41 106 -41 407v668q0 90 -12.5 146.5t-41.5 89.5q-4 6 -9 12t-13 10z" />
<glyph unicode="V" horiz-adv-x="1456" d="M-31 1626h365q-6 -6 -12 -8q-23 -23 -37.5 -49.5t-14.5 -61.5t16.5 -88t47.5 -125l475 -1099l444 1087q35 78 49.5 132t14.5 89q0 57 -51 103q-6 4 -12.5 10t-16.5 10h248q-59 -41 -99 -103.5t-67 -127.5l-580 -1415l-620 1433q-35 78 -50.5 107.5t-25.5 40.5 q-27 36 -74 65z" />
<glyph unicode="W" horiz-adv-x="2025" d="M-23 1626h308q-49 -49 -49 -106q0 -8 2 -22.5t8 -39t17 -63.5t30 -95l381 -1079l330 953l-95 274q-23 47 -48 93t-68 79q-2 2 -11 6h330q-23 -23 -34 -51.5t-11 -65.5q0 -66 59 -237l369 -1051l369 1065q57 160 57 232q0 35 -15.5 60.5t-37.5 47.5h180q-41 -31 -76 -92 q-14 -27 -34.5 -80t-49.5 -141l-458 -1327l-414 1163l-412 -1157l-487 1366q-20 53 -33.5 88t-22 56.5t-12.5 31.5t-6 16q-23 43 -66 76z" />
<glyph unicode="X" horiz-adv-x="1447" d="M-25 6q96 45 164.5 111.5t134.5 146.5l424 537l-356 520q-59 86 -130 171t-169 134h434q-35 -29 -44 -54.5t-9 -45.5q0 -61 68 -162l296 -440l340 432q39 47 53.5 68.5t18.5 31.5q14 35 14 70q0 47 -22 76q-4 6 -10 12t-11 12h252q-86 -47 -146 -113.5t-120 -144.5 l-360 -459l387 -573q78 -117 135 -190.5t98 -106.5q12 -10 24.5 -18.5t26.5 -14.5h-403q20 16 34.5 45t14.5 55q0 16 -4 35t-10 39q-4 10 -18.5 33t-57.5 86l-322 489l-397 -507q-41 -51 -55 -74t-19 -31q-14 -35 -14 -70q0 -63 47 -100h-289z" />
<glyph unicode="Y" horiz-adv-x="1419" d="M-35 1626h404q-29 -20 -43.5 -49t-14.5 -64q0 -23 14.5 -62.5t69.5 -125.5l396 -610l372 585q41 68 61.5 116t20.5 85q0 76 -59 125h270q-80 -41 -137 -117.5t-105 -148.5l-417 -662v-442q0 -176 47 -225q6 -6 13 -13.5t13 -11.5h-301q23 20 39 41q20 27 27.5 77t7.5 132 v418l-475 727q-45 66 -72.5 106.5t-44.5 59.5q-14 14 -35.5 28.5t-50.5 30.5z" />
<glyph unicode="Z" horiz-adv-x="1320" d="M-16 6l1126 1602h-680q-88 0 -159.5 -26t-118.5 -107l-7 -9l15 160h1136l-1122 -1603h844q102 0 177 48t126 132l-37 -197h-1300z" />
<glyph unicode="[" horiz-adv-x="305" d="M102 -354v2175h467v-11h-366v-2154h366v-10h-467z" />
<glyph unicode="\" horiz-adv-x="878" d="M102 1692h86l588 -1741h-86z" />
<glyph unicode="]" horiz-adv-x="305" d="M-264 -518h366v2156h-366v9h467v-2175h-467v10z" />
<glyph unicode="^" horiz-adv-x="870" d="M-47 -111l483 807l477 -807h-104l-373 654l-379 -654h-104z" />
<glyph unicode="_" horiz-adv-x="1277" d="M14 2v61h1250v-61h-1250z" />
<glyph unicode="`" horiz-adv-x="294" d="M23 287h151l86 -279z" />
<glyph unicode="a" horiz-adv-x="940" d="M43 254q0 78 46 140.5t112.5 112.5t142.5 87t135 63q45 18 84 37t72 41q23 16 38 49q13 29 13 57v7q-2 55 -13 104t-36 86t-68 58.5t-108 21.5q-41 0 -85 -8t-81 -27.5t-61.5 -51.5t-24.5 -81l2 -73q0 -31 -14.5 -52.5t-49.5 -21.5q-33 0 -46 23.5t-13 52.5q0 61 34 108 t88 80t120.5 50.5t130.5 17.5q49 0 99 -7.5t93 -25t78 -47t55 -76.5q4 -12 12.5 -56t8.5 -149v-391v-95t1 -61.5t2 -37t3 -19.5q8 -41 29.5 -69.5t68.5 -28.5h13q-35 -33 -77 -53.5t-91 -20.5q-33 0 -59.5 12.5t-53.5 26.5q-39 20 -68.5 28.5t-52.5 8.5q-33 0 -58.5 -11.5 t-52 -24.5t-59.5 -24.5t-80 -11.5q-113 0 -171 71.5t-58 180.5zM155 291q0 -77 76 -160q31 -33 68 -52.5t78 -19.5q31 0 61 13q25 10 46.5 14t39.5 4q37 0 68 -12t59 -29q16 -10 36 -18t38 -13q-4 2 -5 4.5t-5 6.5q-10 10 -18.5 37.5t-10.5 80.5v609q-37 -37 -88 -62.5 t-111 -52.5q-76 -31 -154.5 -83t-126.5 -118q-51 -70 -51 -149z" />
<glyph unicode="b" horiz-adv-x="1060" d="M-2 1647l205 84h4v-910q27 49 71 102.5t98 97.5t115.5 73.5t120.5 29.5q82 0 149.5 -32.5t127.5 -104.5q123 -137 123 -385q0 -289 -189 -465q-88 -80 -169 -118.5t-171 -38.5q-106 0 -206.5 40.5t-190.5 94.5v1175q0 68 -1 112t-2 72.5t-2 43t-3 22.5q-8 35 -26.5 64.5 t-53.5 42.5zM207 145l12 -14q59 -55 128 -94t153 -39q78 0 150.5 36t123.5 101q109 139 109 395q0 238 -109 369q-59 72 -122.5 105.5t-127.5 33.5q-94 0 -177 -67.5t-140 -184.5v-641z" />
<glyph unicode="c" horiz-adv-x="935" d="M47 557q0 98 32 196.5t89 178.5t140 133t184 61q25 3 52 3q52 0 112 -13q88 -20 151 -69q92 -76 92 -154q0 -35 -18.5 -49.5t-53.5 -14.5q-37 0 -53 10.5t-22 20.5q-4 4 -10.5 19.5t-12.5 60.5q-11 114 -75 148q-46 25 -112 24q-27 0 -57 -4q-92 -12 -153.5 -51 t-98 -97.5t-53 -133t-16.5 -160.5q0 -221 106 -392q57 -88 144.5 -135t179.5 -47q94 0 174 54.5t115 170.5q4 4 12 5q8 -4 4 -9q-23 -76 -64.5 -136t-96 -102t-117 -63.5t-127.5 -21.5q-84 0 -164 35.5t-148 111.5q-135 158 -135 420z" />
<glyph unicode="d" horiz-adv-x="1099" d="M47 510q0 238 150 426q53 76 137 131t178 66q21 2 40 2q38 1 70 -7q48 -12 88 -34.5t75.5 -55t74.5 -71.5v321q0 68 -1 113t-3 73.5t-4 43t-4 22.5q-4 33 -15.5 53.5t-27.5 34.5q-20 14 -33 19l201 84h6v-1293q0 -70 1 -116t2 -75.5t2 -44t3 -22.5q16 -61 47 -86 q10 -12 33 -20l-203 -84h-4v248q-45 -125 -145.5 -185.5t-216.5 -60.5q-109 0 -193 43t-141.5 114.5t-87 166t-29.5 194.5zM188 610q0 -135 31 -240.5t90 -181.5q59 -72 129 -104.5t137 -32.5q53 0 101.5 18.5t87.5 52.5t64.5 82t31.5 105v488q-6 47 -17.5 90t-33.5 84 q-43 83 -123 117q-68 28 -144 29q-14 0 -28 -1q-94 -8 -156.5 -58t-100.5 -123t-53.5 -159t-15.5 -166z" />
<glyph unicode="e" horiz-adv-x="974" d="M49 543q0 113 28.5 219t88 188t151 131t213.5 49q86 0 159 -28.5t126 -78.5t85 -122t36 -158q-119 0 -240 1h-11q-116 0 -226 -21q-176 -35 -234 -121q-25 -39 -31 -84q-2 -19 -2 -37q0 -26 4 -52q8 -44 30 -86t48 -75q137 -162 332 -162q125 0 191.5 48.5t101.5 162.5 q0 8 10 5q8 0 4 -9q-20 -68 -58 -127t-91 -102t-117.5 -68.5t-136.5 -25.5q-188 0 -324 145q-137 154 -137 408zM133 614q12 -96 47 -188q-4 16 -5 30.5t-1 30.5q0 68 31 115t80 77t112.5 46t129 24.5t128 9.5t109.5 1v16q-4 59 -9 102.5t-18 69.5q-39 86 -102.5 125 t-136.5 39q-47 0 -95.5 -14.5t-95.5 -40.5q-74 -39 -115.5 -108.5t-55.5 -154.5q-8 -47 -8 -96q0 -41 5 -84z" />
<glyph unicode="f" horiz-adv-x="634" d="M-10 1085q0 10 6 11h225v112q0 80 12.5 149.5t38.5 125.5q53 111 151.5 176t221.5 65q61 0 119.5 -18t109.5 -59q16 -12 30 -27.5t21 -33t5 -36t-19 -34.5q-20 -20 -41 -21q-31 0 -57.5 33t-42.5 59q-41 59 -78 88t-88 29q-41 0 -104 -23q-66 -23 -98.5 -70.5t-47 -110 t-14.5 -136.5v-147v-121h297q10 0 10 -11q0 -6 -10 -6h-297v-796q0 -31 1 -68t8 -74t22.5 -69.5t44.5 -51.5h-271q18 16 34 36t24 42q18 53 18 185v796h-225q-6 0 -6 6z" />
<glyph unicode="g" horiz-adv-x="1079" d="M53 752q0 74 31 141.5t82 119.5t117.5 86t138.5 40q26 3 51 3q109 0 193 -50q104 -62 170 -177h172q23 0 22 25q0 10 -6 17.5t-16 7.5h-156q-6 0 -6 6q0 10 6 10h156q16 0 27.5 -12.5t11.5 -28.5t-11.5 -28.5t-27.5 -12.5h-162q16 -31 24.5 -67.5t8.5 -88.5 q0 -63 -26 -121.5t-69 -105.5t-99 -80t-118 -45q-57 -10 -96 -10q-49 0 -92 11t-90 32l-133 -166q-23 -29 -10.5 -39t49.5 -10q39 0 99 8t133 19.5t150.5 19.5t151.5 8q80 0 147.5 -14t111.5 -49t56 -97q4 -16 4 -36q0 -51 -24 -121q-29 -90 -125 -146.5t-274 -56.5 q-104 0 -237.5 22.5t-299.5 73.5q-29 10 -30 25.5t26 30.5q31 18 71 37.5t72 37.5q12 6 29 6q39 0 68 -38q57 -86 149 -124t191 -38q59 0 115.5 12t102.5 34.5t77.5 54.5t41.5 69q13 43 13 76q0 14 -2 26q-8 41 -36 65.5t-72 35t-99 10.5q-76 0 -167 -14.5t-181 -33 t-171 -32.5t-139 -14q-39 0 -63.5 10t-28.5 32q-1 4 -1 9q0 21 16 54q20 40 69 97l135 162q-43 20 -82.5 51t-70.5 73t-49.5 91t-18.5 107zM184 807q0 -45 3 -93t14.5 -94.5t33 -88t58.5 -76.5l325 391q37 49 101 65q-33 117 -99 171q-54 43 -148 43q-23 0 -48 -3 q-72 -6 -119 -30.5t-73.5 -64.5t-37 -95t-10.5 -125zM303 442q35 -18 83 -29.5t101 -11.5q78 0 127.5 21.5t79 61.5t40.5 98.5t11 130.5q0 43 -4 89t-16 93q-29 -6 -52.5 -21.5t-43.5 -35.5z" />
<glyph unicode="h" horiz-adv-x="1007" d="M14 1647l205 84h4v-1051q10 47 27.5 100.5t46.5 100.5q29 51 71 96t91 77.5t101 52t102 19.5q92 0 142 -50t73.5 -122.5t27.5 -155.5t4 -149v-409q0 -119 21 -166q8 -25 33 -49h-230q37 31 49 86v4q2 8 4 32.5t2 92.5v409q0 102 -6 166t-18 98q-27 80 -74 115t-102 35 q-76 0 -153 -53.5t-124 -137.5q-43 -78 -63.5 -160.5t-24.5 -146.5v-325q0 -84 6.5 -117t10.5 -47q14 -31 39 -51h-232q10 10 20.5 24t16.5 31q8 14 13 48t5 112v1048q0 68 -1 113t-2 73.5t-2 43t-3 22.5q-10 35 -27.5 64.5t-52.5 42.5z" />
<glyph unicode="i" horiz-adv-x="350" d="M33 1040l209 84h2v-884q0 -78 7 -113t11 -49q16 -31 41 -53h-235q41 41 48 101t7 114v446q0 98 -2 160.5t-8 93.5q-10 35 -26.5 62.5t-53.5 37.5zM84 1335q0 37 24.5 60.5t59.5 23.5t59.5 -24.5t24.5 -59.5t-24.5 -58.5t-59.5 -23.5t-59.5 23.5t-24.5 58.5z" />
<glyph unicode="j" horiz-adv-x="333" d="M-349.5 -458.5q-9.5 23.5 17.5 50.5q16 18 41 19q23 0 47 -12q2 -2 16.5 -11.5t55.5 -44.5q29 -29 51.5 -42t44.5 -13q18 0 39 7t49 22q35 16 59.5 36.5t34.5 57.5q14 57 15 250v823q0 100 -2 162.5t-8 93.5q-8 35 -26.5 62.5t-53.5 37.5l209 84h2v-1118 q0 -66 -10.5 -140.5t-36 -146t-68.5 -130t-109 -89.5q-33 -14 -85 -24.5t-105 -10.5q-41 0 -80 8.5t-61 26.5q-27 18 -36.5 41.5zM80 1335q0 35 24.5 59.5t59.5 24.5t57.5 -24.5t22.5 -59.5t-22.5 -58.5t-57.5 -23.5t-59.5 23.5t-24.5 58.5z" />
<glyph unicode="k" horiz-adv-x="880" d="M18 1647l203 84h4v-1491v-74t5.5 -50.5t19.5 -42t45 -48.5h-248q43 37 50 96t7 112v1053q0 34 2 90q1 15 1 31q-1 40 -5 80q-6 55 -24.5 100.5t-59.5 59.5zM238 618l157 144l137 135q20 18 43 41t38.5 47.5t18.5 51t-18 53.5h168q-74 -39 -124 -90.5t-113 -110.5 l-213 -209l311 -395q51 -63 112.5 -139t129.5 -121h-275q16 23 16.5 45t-8 44.5t-22.5 44t-29 40.5z" />
<glyph unicode="l" horiz-adv-x="331" d="M18 1647l205 84h2v-1491q0 -25 1 -55.5t6.5 -59.5t17.5 -55.5t33 -44.5h-234q12 10 20.5 23t16.5 30q10 25 14 63.5t4 98.5v1052q0 68 -1 112t-2 71.5t-3 42t-4 22.5q-8 61 -43 86q-14 14 -33 21z" />
<glyph unicode="m" horiz-adv-x="1746" d="M33 1040l209 84v-372q10 33 24.5 65.5t30.5 63.5q27 47 70 90t95 77.5t111.5 55t116.5 20.5q90 0 158 -53q35 -27 54.5 -62.5t29.5 -74.5t12 -81t2 -83q18 70 62.5 134.5t102.5 113.5t128 78.5t143 29.5q74 0 137.5 -41t98.5 -135q27 -66 27 -213v-497q0 -117 20 -164 q8 -27 37 -51h-234q35 29 48 81q4 12 6 38t2 96v497q0 154 -39 224q-35 57 -81 81.5t-97 24.5q-43 0 -86 -15.5t-83 -42t-74 -62.5t-56 -75q-20 -39 -36 -78.5t-26 -78.5v-475q0 -84 5 -117t12 -47q10 -29 41 -51h-236q37 31 49 77q4 10 7 38t3 100v497q0 158 -51 230 q-37 55 -83 78.5t-93 23.5q-84 0 -163 -57.5t-126 -139.5q-25 -45 -41 -90t-28 -92v-450q0 -82 7 -116t13 -50q8 -14 16.5 -26.5t18.5 -22.5h-231q27 25 38 53q10 25 14.5 63.5t4.5 98.5v444q0 98 -2 160.5t-8 91.5q-14 59 -45 84q-10 14 -35 20z" />
<glyph unicode="n" horiz-adv-x="1030" d="M33 1040l209 84h2v-385q10 35 24.5 71t34.5 71q29 49 71 94t93 78.5t105.5 53t107.5 19.5q72 0 131 -41t94 -135q12 -33 18.5 -88t6.5 -127v-495q0 -121 22 -166q8 -27 35 -49h-231q35 31 47 86q4 10 6 34.5t2 94.5v475q0 51 -7 112.5t-28.5 113.5t-62.5 87t-109 35 q-82 0 -162 -55.5t-127 -135.5q-29 -47 -45 -99t-26 -99v-434q0 -84 6 -117t12 -47q16 -33 37 -51h-231q41 41 48 100t7 115v430q0 72 -1 119t-2 75.5t-2 44t-3 23.5q-14 61 -45 88q-14 14 -37 20z" />
<glyph unicode="o" horiz-adv-x="1118" d="M45 547q0 111 38 216t106.5 187t165 132.5t212.5 50.5q109 0 201 -46.5t159.5 -123t105.5 -176t38 -207.5q0 -113 -37 -220.5t-105.5 -191.5t-165.5 -134t-216 -50q-109 0 -201 46t-158.5 124.5t-104.5 180t-38 212.5zM188 653q0 -94 19.5 -206.5t64.5 -211t118.5 -165 t182.5 -66.5q45 0 107 16q86 23 135 68t73.5 105.5t31 134t6.5 153.5q0 94 -17.5 205t-60.5 206t-114.5 158.5t-182.5 63.5q-16 0 -35.5 -2t-40.5 -6q-92 -18 -148.5 -60t-87 -102.5t-41 -134.5t-10.5 -156z" />
<glyph unicode="p" horiz-adv-x="1095" d="M29 1036l202 84h5v-248q23 59 59.5 105.5t85.5 78t105.5 48t113.5 16.5q82 0 163 -33.5t144.5 -103.5t102.5 -178.5t39 -255.5q0 -96 -33 -194.5t-93.5 -179.5t-146.5 -135t-192 -63q-22 -2 -41 -2q-38 0 -69 7q-48 12 -88 34.5t-76 54t-74 70.5v-321q0 -35 -2 -84 q-1 -15 -1 -31q0 -34 3 -69q6 -50 19 -94t44 -68h-240q25 18 41 55q6 12 11.5 42t5.5 101v1000q0 70 -1 116t-3 74.5t-4.5 43t-4.5 22.5q-8 57 -43 88q-14 14 -32 20zM236 309q4 -47 16 -90t35 -82q43 -84 123 -119q61 -26 131 -26q20 0 41 2q92 8 154.5 65.5t100 140.5 t54 176t16.5 173q0 129 -35.5 223t-93 157.5t-128 94.5t-140.5 31q-102 0 -181 -63.5t-93 -190.5v-492z" />
<glyph unicode="q" horiz-adv-x="1095" d="M47 549q0 147 39 255.5t102.5 178.5t144.5 103.5t163 33.5q117 0 217 -63.5t145 -184.5v248h4l205 -84q-23 -8 -33 -20q-31 -27 -47 -88q0 -2 -4 -23q-2 -27 -3 -80t-1 -153v-1000q0 -72 5 -101.5t11 -41.5q12 -31 39 -55h-237q31 25 44 68.5t17 93.5q3 34 3 67 q0 17 -1 33q-2 49 -2 84v321q-39 -39 -74.5 -70.5t-75.5 -54t-88 -34.5q-31 -7 -68 -7q-19 0 -40 2q-106 8 -193.5 62.5t-146.5 135.5t-92 179.5t-33 194.5zM188 549q0 -80 15.5 -173t53.5 -176t100.5 -140.5t156.5 -65.5q21 -2 41 -2q69 0 129 26q78 35 125 119 q23 39 34 82t15 90v492q-14 127 -93 190.5t-181 63.5q-70 0 -140.5 -31t-127 -94.5t-92.5 -157.5t-36 -223z" />
<glyph unicode="r" horiz-adv-x="700" d="M31 1038l211 86v-276q18 47 57 95t88 88t103.5 65.5t105.5 25.5q45 0 74 -26q25 -22 30 -56q1 -6 1 -11q0 -27 -21 -50q-20 -20 -45 -21q-18 0 -36.5 9.5t-35.5 23.5q-53 41 -104 41q-39 0 -73 -20.5t-61.5 -53t-49 -72.5t-33.5 -81v-555q0 -66 13 -125t69 -100h-258 q33 27 49 81q4 8 6 35t2 99v448q0 70 -1 114t-2 71.5t-2 42t-3 20.5q-8 37 -27.5 64.5t-56.5 37.5z" />
<glyph unicode="s" horiz-adv-x="788" d="M52 809v15q0 64 24 124q26 66 78 118.5t118 70.5q43 12 88 12q43 0 88.5 -11.5t88.5 -33.5q29 -14 51 -21.5t37 -3.5q23 0 41 13v-164q-47 100 -119 152.5t-191 52.5q-35 0 -80 -11q-59 -16 -99 -52q-41 -36 -57 -81q-10 -29 -10 -59q0 -18 4 -36q10 -50 48 -99 q45 -55 174 -121l186 -90q229 -109 230 -287q0 -63 -30 -123.5t-77 -105.5t-108.5 -73t-124.5 -28q-47 0 -90 11.5t-82 24.5t-73 24.5t-65 11.5q-27 0 -45 -10v188q25 -49 61 -92t81 -74t96 -49t106 -18q45 0 88 12q68 18 109 62q42 44 54 98q5 23 5 46q-1 32 -11 66 q-18 58 -66 103q-33 33 -95.5 71.5t-158.5 87.5q-109 53 -159 91t-67 61q-45 55 -48 127z" />
<glyph unicode="t" horiz-adv-x="411" d="M-43 1092q16 12 35.5 26.5t36.5 32.5q78 68 137 166q10 12 18.5 31.5t18.5 42.5v-279h110q6 0 6 -10q0 -6 -6 -6h-110v-797q0 -39 6 -81t24.5 -77t49 -57.5t79.5 -22.5q16 0 27.5 2.5t28.5 8.5q-10 -10 -15 -13q-68 -53 -139 -53q-57 0 -93 23.5t-55.5 60.5t-25.5 84 t-6 96v822h-127z" />
<glyph unicode="u" horiz-adv-x="1019" d="M39 1092h174l2 -689q0 -51 7 -112.5t28.5 -113.5t62.5 -88t109 -36q82 0 162 55.5t127 137.5q27 47 44 98t27 98v435q0 86 -6 117.5t-12 45.5q-16 35 -37 52h174v-646q0 -35 -1 -92v-14q0 -50 6 -100q7 -56 26.5 -102t60.5 -60l-209 -86h-2v385q-10 -35 -24.5 -70 t-34.5 -69q-29 -51 -71 -95.5t-93 -78t-105.5 -53t-107.5 -19.5q-82 0 -131 38t-75.5 95t-36 125.5t-9.5 132.5v494q0 121 -20 167q-4 14 -14.5 26t-20.5 22z" />
<glyph unicode="v" horiz-adv-x="962" d="M-16 1090h262q-33 -37 -33 -89q0 -51 31 -122l299 -713l356 850q6 16 0 34.5t-20 34.5q-8 4 -7 5h101q-16 -14 -31.5 -32t-26.5 -44l-423 -1016l-398 938q-16 45 -41.5 87t-68.5 67z" />
<glyph unicode="w" horiz-adv-x="1570" d="M-16 1090h241q-10 -10 -19 -30t-9 -48q0 -45 24 -113l277 -739l280 612q8 18 8 44t-6 44l-45 119q-31 78 -76 111h244q-37 -29 -41 -76q-1 -9 -1 -19q0 -37 13 -69l295 -748l322 819q8 23 -1 50.5t-26 42.5h119q-20 -14 -39.5 -33t-30.5 -47l-395 -1008l-313 795 l-361 -793l-354 928q-39 102 -84 141q-6 9 -22 17z" />
<glyph unicode="x" horiz-adv-x="956" d="M0 23q20 16 48 45.5t63 76.5l311 422l-234 340q-98 143 -155 180h276q-23 -26 -23 -56v-5q2 -32 17.5 -65t37 -64t38.5 -55l113 -180l206 282q25 33 31 72q1 7 1 14q0 31 -23 57h143q-16 -10 -36.5 -26.5t-39.5 -42.5l-272 -371l299 -432q72 -102 107.5 -141t52.5 -51 h-271q29 27 29 59.5t-14.5 65t-37 63.5t-38.5 55l-197 287l-323 -440q-8 -10 -5.5 -24.5t11 -28t16.5 -23.5t12 -14h-143z" />
<glyph unicode="y" horiz-adv-x="1007" d="M-29 -440q0 41 24.5 56t61.5 15q45 0 90.5 -22.5t85.5 -22.5q29 0 57.5 13.5t52.5 33t42 45t27 50.5l120 303l-419 882q-8 18 -22.5 43t-32 49.5t-36 47t-34.5 34.5h272q-27 -25 -33 -55.5t-2 -63t17.5 -64.5t25.5 -58l324 -670l319 803q10 20 4 54t-18 50l-4 4h121 q-41 -35 -58.5 -72.5t-35.5 -84.5l-492 -1209q-18 -47 -51 -94t-75 -84t-94 -59.5t-112 -22.5q-20 0 -41.5 6.5t-40 18.5t-31 30.5t-12.5 43.5z" />
<glyph unicode="z" horiz-adv-x="958" d="M4 23l791 1050h-500h-76t-58.5 -7t-46 -23.5t-38.5 -51.5l2 99h874l-796 -1051h626q53 0 85 13.5t67 64.5l-6 -94h-924z" />
<glyph unicode="{" horiz-adv-x="344" d="M74 461q0 49 10 80.5t24.5 59.5t28 55.5t20.5 67.5t3.5 97.5t-23.5 143.5q-29 119 -28 202q0 156 120 283l29 29q-49 -74 -49 -164q0 -41 7 -91t24 -116q14 -57 19 -106.5t5 -90.5q0 -66 -27.5 -120t-59.5 -106t-59.5 -105.5t-27.5 -118.5q0 -59 27.5 -105.5t59.5 -92.5 t59.5 -99t27.5 -125q0 -41 -5 -90t-19 -109q-16 -66 -23.5 -116t-7.5 -91q0 -88 49 -163q-8 6 -14 13t-15 17q-121 127 -120 283q0 82 28 203q20 86 23.5 142t-3.5 94t-20.5 63.5t-28 49t-24.5 52.5t-10 74z" />
<glyph unicode="|" horiz-adv-x="237" d="M88 -657v2263h62v-2263h-62z" />
<glyph unicode="}" horiz-adv-x="350" d="M82 115q0 72 27.5 125t59.5 99t59.5 92.5t27.5 105.5q0 63 -27.5 117.5t-59.5 106.5t-59.5 106.5t-27.5 119.5q0 41 7 90t22 109q14 66 21 116t7 91q0 84 -47 161l27 -28q121 -129 121 -283q0 -90 -27 -203q-20 -86 -24.5 -142t3 -96t20.5 -68.5t26.5 -56.5t23.5 -59.5 t10 -80.5q0 -45 -10 -74t-23.5 -53.5t-26.5 -49t-20.5 -62.5t-3 -94.5t24.5 -142.5q27 -109 27 -202q0 -156 -121 -283q-6 -10 -13.5 -16t-13.5 -15q23 39 35 80t12 86q0 41 -7 91.5t-21 115.5q-29 119 -29 197z" />
<glyph unicode="~" horiz-adv-x="1167" d="M29 649q35 47 85 92t109 47q84 2 194.5 -36.5t226.5 -86t223.5 -86t187.5 -38.5q57 0 88 22q-74 -76 -180 -76q-80 0 -174.5 37t-192.5 80t-196.5 80t-186.5 37q-53 0 -98 -16.5t-86 -55.5z" />
<glyph unicode="&#xa1;" horiz-adv-x="333" d="M68 -143q0 29 6 82l92 1075l92 -1075q2 -33 3 -56.5t1 -40.5q0 -63 -29 -98q-33 -33 -67 -33q-29 0 -48.5 13.5t-30.5 35t-15 47t-4 50.5zM72 1315q0 41 27.5 68.5t68.5 27.5q39 0 68 -29q27 -29 26 -67q0 -41 -26.5 -67.5t-67.5 -26.5t-68.5 26.5t-27.5 67.5z" />
<glyph unicode="&#xa2;" horiz-adv-x="970" d="M61 436q0 98 31 193.5t86 174.5t134 133t175 69v108h66v-104q72 0 143.5 -21.5t122.5 -62.5q94 -78 94 -154q0 -20 -7 -29.5t-11 -15.5q-23 -18 -55 -18q-35 0 -51.5 10t-26.5 20q-2 4 -8 19.5t-11 60.5q-8 98 -57 137t-133 37v-1018q55 -8 107.5 1.5t98.5 36t82 72.5 t56 112q0 8 10 4q6 0 6 -8q-43 -141 -142 -224.5t-218 -95.5v-96h-66v94q-78 4 -152.5 41t-137.5 108q-68 74 -102 179.5t-34 236.5zM176 545q0 -82 17.5 -167t54.5 -161t96 -134t143 -89v991q-88 -14 -147 -52t-96 -96.5t-52.5 -132t-15.5 -159.5z" />
<glyph unicode="&#xa3;" horiz-adv-x="1093" d="M102 733v29h248l-4 49q-6 92 -11 154.5t-5 91.5q0 123 47 239.5t147 188.5q-76 -94 -75 -307q0 -47 3 -106.5t13 -131.5l16 -178h320v-29h-324v-47q0 -29 1 -50.5t1 -35.5q0 -117 -20.5 -222.5t-57.5 -213.5l-14 -45l43 -13q84 -27 137.5 -44t85 -26t45 -12.5t19.5 -5.5 q76 -16 137 -16q66 0 125 19.5t106 66.5q-16 -43 -43.5 -83t-63.5 -69.5t-80 -48t-91 -18.5q-82 0 -137 27q-23 10 -79 44.5t-171 120.5l-41 33l-27 -47q-2 -4 -3 -8t-3 -8q2 8 3 14t3 16l10 31l-28 19q-12 6 -23.5 12t-21.5 10q8 0 28 -4l50 -6l2 47q6 53 6 100 q0 57 -7.5 161t-21.5 259l-2 43h-242zM836 1550q35 -6 69.5 -24.5t62 -46t44 -62.5t16.5 -71q0 -20 -16.5 -40t-36.5 -20q-8 0 -19.5 5t-23.5 22q-2 6 -4 16t-4 24.5t-4 37.5q-2 47 -16.5 81.5t-39.5 59.5q-8 4 -14 9t-14 9z" />
<glyph unicode="&#xa5;" horiz-adv-x="1404" d="M102 344v2h537v236l-35 82h-502v2h500l-295 690q-51 119 -106 162q0 2 -6 4h268q-29 -20 -37 -43t-8 -39q0 -10 4 -29.5t22 -60.5l312 -754l311 733q29 70 29 115q0 20 -8.5 40.5t-28.5 37.5h147q-61 -49 -119 -181l-296 -675h512v-2h-512l-27 -58v-260h539v-2h-539v-180 q0 -100 6 -141t10 -58q16 -37 56 -65h-269q2 2 3 2t3 2q45 35 60 98q2 10 4 41t2 121v180h-537z" />
<glyph unicode="&#xa7;" horiz-adv-x="919" d="M53 635q0 92 47 182q-8 -33 -8 -74q0 -74 29 -136t74 -115.5t101 -99.5t110 -87q45 -33 81.5 -64.5t69.5 -60.5l23 -22l6 2l10 -13q59 -66 100 -133t41 -159q0 -53 -12 -99.5t-41 -85.5q16 43 16 82q0 66 -25.5 121t-65.5 103.5t-89 89t-98 77.5q-57 43 -121.5 95.5 t-120 114t-91.5 132t-36 150.5zM154 -221q0 31 18 47q18 20 35 20q27 0 39 -21.5t12 -43.5q0 -29 -10 -66q-4 -25 -7 -42t-3 -31q0 -23 6 -43q-41 41 -65.5 80.5t-24.5 99.5zM176 1393q0 121 82 209q-33 -59 -33 -129q0 -61 20.5 -111.5t55.5 -93.5t79 -79t89 -71 q59 -43 128 -97t128 -118.5t99 -138.5t40 -154q0 -84 -45 -178q4 16 4 29.5v30.5q0 70 -27.5 130t-71.5 114.5t-97.5 100.5t-102.5 85q-104 80 -166 135l-39 39q-57 61 -100 134t-43 163zM647 1661q53 -31 85 -80.5t32 -112.5q0 -33 -21 -55q-4 -4 -10 -8t-22 -4 q-23 0 -39.5 14.5t-16.5 36.5q0 4 2 16.5t7 40.5q4 18 7 34t3 32q0 47 -27 86z" />
<glyph unicode="&#xa8;" horiz-adv-x="516" d="M33 135q-1 37 28 66q25 29 64 28q39 0 66.5 -27.5t27.5 -66.5t-27.5 -65.5t-66.5 -26.5t-65.5 26.5t-26.5 65.5zM297 135q0 39 27.5 66.5t66.5 27.5t64 -28q29 -29 28 -66q0 -39 -28 -63q-25 -29 -64 -29t-66.5 26.5t-27.5 65.5z" />
<glyph unicode="&#xa9;" horiz-adv-x="1916" d="M61 856q0 184 71 347t191.5 285t284.5 192.5t350 70.5q184 0 347 -69.5t285 -191.5t192.5 -285t70.5 -349q0 -184 -69.5 -348t-191.5 -286t-284.5 -192.5t-349.5 -70.5q-184 0 -348 69.5t-285.5 191.5t-192.5 286t-71 350zM141 856q0 -168 63.5 -317.5t173 -260t259 -175 t321.5 -64.5q170 0 318.5 63.5t259.5 173t175.5 259t64.5 321.5q0 168 -63.5 317.5t-174.5 261t-260.5 176t-319.5 64.5q-168 0 -316 -64.5t-260 -175t-176.5 -260t-64.5 -319.5zM369 866q0 129 36.5 241t108.5 194.5t177.5 130t240.5 47.5l33 -4q72 0 120 -12.5t82.5 -28 t59 -28.5t49.5 -13q51 0 82 43l12 -219q-57 104 -154.5 174.5t-216.5 70.5q-133 0 -226 -48t-151.5 -130t-85 -189.5t-26.5 -228.5q0 -119 26.5 -226.5t85 -189t151.5 -130t226 -48.5q125 0 220.5 63.5t150.5 182.5l-12 -219q-31 43 -82 43q-25 0 -44.5 -12.5t-51 -27.5 t-81.5 -28.5t-134 -15.5h-33q-135 0 -240.5 47t-177.5 129t-108.5 193.5t-36.5 238.5z" />
<glyph unicode="&#xaa;" horiz-adv-x="657" d="M55 1040q0 49 29 90t72 73t91 55.5t87 39.5q29 12 52.5 24.5t45.5 27.5q14 10 24.5 31.5t8.5 39.5q-4 72 -31.5 122t-111.5 50q-27 0 -55.5 -5t-52.5 -17t-39 -32.5t-15 -51.5l2 -47q0 -20 -8.5 -33.5t-30.5 -13.5q-23 0 -31 15t-8 36q0 37 21.5 66.5t56.5 50t77 32 t83 11.5q63 0 122.5 -19.5t83.5 -79.5q4 -8 8.5 -36.5t4.5 -94.5v-250q0 -72 1 -98.5t3 -34.5q10 -39 24 -49q16 -16 39 -16h8q-23 -20 -49 -33.5t-57 -13.5q-20 0 -37.5 8t-34.5 18q-45 23 -78 23q-20 0 -36.5 -7.5t-33 -16.5t-38 -16t-51.5 -7q-70 0 -108 46.5t-38 112.5z M128 1070q-1 -50 48 -105q18 -20 42 -33.5t50 -13.5q20 0 37 8q35 12 57 12q23 0 42.5 -7t37.5 -18q10 -6 22.5 -12t24.5 -8l-6 6q-6 8 -11 24.5t-5 51.5l-2 37l2 2v350q-25 -25 -57.5 -41t-71.5 -33q-49 -20 -98.5 -53t-80 -75t-31.5 -92z" />
<glyph unicode="&#xab;" horiz-adv-x="778" d="M31 811l391 475l-248 -475l248 -475zM328 811l407 481l-252 -481l252 -485z" />
<glyph unicode="&#xad;" horiz-adv-x="0" />
<glyph unicode="&#xae;" horiz-adv-x="2158" d="M63 1018q0 209 80 393t217.5 322.5t323.5 218.5t397 80q209 0 393.5 -80t322.5 -217.5t218 -321.5t80 -395t-79 -396.5t-216 -323.5t-322.5 -218t-396.5 -80t-396 79t-323.5 217t-218.5 323.5t-80 398.5zM154 1018q0 -193 71.5 -362t196.5 -294.5t295 -198.5t364 -73 q190 0 359.5 71.5t295.5 196.5t198.5 295t72.5 365q0 190 -72.5 358t-197.5 295t-294 201t-362 74q-190 0 -359 -73t-295 -199t-199.5 -294.5t-73.5 -361.5zM700 535q20 20 30.5 38.5t16 39t6.5 44t1 52.5v743q0 61 -8.5 98t-24.5 58q-8 6 -21 18h314q66 0 138.5 -11 t133 -41t99 -82t38.5 -134q0 -57 -21.5 -102.5t-57 -77t-83 -52t-98.5 -30.5l-43 -13l264 -368q41 -55 85 -102.5t108 -77.5h-170l-385 536q55 8 104.5 29.5t86 56.5t58 83t21.5 110q0 113 -73 196q-51 47 -94.5 56.5t-110.5 9.5l-160 2v-905q0 -121 31 -156q6 -4 10 -9 t12 -9h-207z" />
<glyph unicode="&#xb0;" horiz-adv-x="794" d="M53 1300q0 74 26.5 136.5t73 108.5t109.5 73t135 27t135.5 -27t109.5 -73t72.5 -108.5t26.5 -136.5q0 -72 -26.5 -134t-72.5 -108t-109.5 -73t-135.5 -27t-135 27t-109.5 73t-73 108.5t-26.5 133.5zM70 1300q0 -68 25.5 -127t69.5 -102t104 -68.5t128 -25.5t127.5 25.5 t103.5 68.5t69.5 102.5t25.5 126.5q0 70 -25.5 129.5t-69.5 103.5t-103.5 69.5t-127.5 25.5q-70 0 -129 -25.5t-103 -69.5t-69.5 -103.5t-25.5 -129.5z" />
<glyph unicode="&#xb2;" horiz-adv-x="618" d="M33 737q66 55 129 119t119 125q35 37 67.5 73t59 75.5t42 83.5t15.5 96q0 92 -62.5 149.5t-152.5 57.5q-47 0 -93 -19.5t-79 -56.5q29 66 86 97.5t127 31.5q43 0 86 -13.5t79 -40t57.5 -64.5t21.5 -85q0 -55 -25 -108.5t-61.5 -102.5t-79.5 -94t-80 -84 q-47 -51 -96.5 -101.5t-88.5 -87.5h285q41 0 66.5 1.5t42.5 3.5q18 4 33.5 10t31.5 16q2 2 4 2l-35 -84h-499z" />
<glyph unicode="&#xb3;" horiz-adv-x="589" d="M31 766q0 8 10 12q10 10 24.5 10t26.5 -4q23 -6 42.5 -15t37.5 -18.5t39.5 -14.5t46.5 -3q68 4 117 29.5t75.5 64.5t27.5 90.5t-29 108.5q-29 53 -79.5 83t-115.5 42q29 12 60.5 30.5t52.5 41.5q25 27 38 59.5t13 66t-13.5 65.5t-42.5 56q-57 47 -131 48q-70 0 -129 -37 q10 10 19.5 18t19.5 17q59 41 144 40q106 0 157 -57q35 -37 38 -73.5t-11 -72.5t-41 -71t-53 -65q-6 -4 -10.5 -8.5l-8.5 -8.5q82 -29 129 -78t47 -129q0 -53 -19 -99t-55 -82t-86 -58.5t-110 -28.5q-20 -2 -42.5 -4t-45.5 -2q-8 0 -31.5 1t-48 6t-44 14.5t-19.5 25.5z" />
<glyph unicode="&#xb4;" horiz-adv-x="294" d="M33 4l84 279h153z" />
<glyph unicode="&#xb7;" horiz-adv-x="391" d="M41 610q0 66 44 109t110 43t110.5 -43t44.5 -109t-45 -109.5t-110 -43.5q-63 0 -108.5 43.5t-45.5 109.5z" />
<glyph unicode="&#xb8;" horiz-adv-x="120" d="M-6 -72l53 146l53 -21l-34 -94q35 4 77.5 3t73.5 -23q16 -10 30.5 -33t14.5 -60q0 -31 -12 -64.5t-32.5 -62t-49.5 -48t-64 -21.5h-10q-29 0 -50 17.5t-26 47.5l58 11q0 -18 22 -17q12 0 30.5 10.5t35 27.5t28 42t11.5 57q0 37 -23.5 48.5t-54.5 11.5q-29 0 -55.5 -5 t-40.5 -10q-14 -8 -31 9q-10 10 -4 28z" />
<glyph unicode="&#xb9;" horiz-adv-x="243" d="M59 1509l103 45v-698q0 -55 3 -78.5t9 -34.5v-2q2 -2 2 -4h-94q4 2 4 3t2 3q4 10 6 31t2 82v471q0 66 -2 91.5t-4 35.5q-6 37 -31 55z" />
<glyph unicode="&#xba;" horiz-adv-x="745" d="M53 1219q0 55 18.5 109t53.5 100.5t84 79t110 44.5q78 14 145.5 -8t119 -67t80 -107.5t28.5 -130.5q0 -70 -24.5 -132.5t-68.5 -110.5t-103.5 -75.5t-130.5 -27.5q-68 0 -125.5 26.5t-98.5 71.5t-64.5 105t-23.5 123zM143 1280q0 -53 12.5 -118.5t40 -122t74.5 -95.5 t115 -39q33 0 64 8q53 14 83.5 40t46 61t19.5 78t4 88q0 59 -13.5 129.5t-45 127t-86 89.5t-138.5 16q-55 -10 -89.5 -34.5t-54 -59.5t-26 -78t-6.5 -90z" />
<glyph unicode="&#xbb;" horiz-adv-x="776" d="M43 326l250 481l-250 485l403 -483zM354 336l246 471l-246 475l389 -473z" />
<glyph unicode="&#xbf;" horiz-adv-x="968" d="M25 78q0 86 36 174q31 74 81.5 136.5t103.5 122.5t101 123.5t79 139.5q18 47 27.5 102.5t7.5 129.5q0 10 10 10q6 0 6 -6q2 -76 -6 -131.5t-27 -102.5q-25 -63 -58.5 -123.5t-69 -122t-68.5 -125t-53 -133.5q-25 -80 -25 -166q0 -82 21.5 -151.5t60.5 -118.5t95 -75.5 t126 -26.5q78 0 170 37q72 29 103.5 60.5t40 63t-2 64.5t-27 63.5t-30.5 59.5t-14 51q0 27 14 47.5t43 20.5q27 0 44 -16.5t28.5 -40t16.5 -50t5 -47.5q0 -49 -17.5 -93t-46 -83t-68.5 -68.5t-83 -48.5q-45 -16 -93 -26.5t-99 -10.5q-80 0 -158 23.5t-138.5 69t-98 113 t-37.5 155.5zM371 1264q0 41 29.5 70.5t70.5 29.5t67.5 -26.5t26.5 -67.5q0 -43 -27.5 -73t-68.5 -30q-43 0 -70.5 28t-27.5 69z" />
<glyph unicode="&#xc0;" horiz-adv-x="1464" d="M-25 8q27 12 53.5 48t51 79t44 85t30.5 67l581 1362l576 -1377q76 -180 143 -239q16 -16 35 -25h-352q53 39 53 107q0 31 -12.5 79t-40.5 113l-113 264h-727l-125 -288q-23 -55 -34 -96.5t-11 -69.5q0 -23 9 -49.5t44 -55.5l8 -4h-213zM303 588h719l-354 846zM492 2025 h153l86 -278z" />
<glyph unicode="&#xc1;" horiz-adv-x="1464" d="M-25 8q27 12 53.5 48t51 79t44.5 85t30 67l581 1362l576 -1377q76 -180 143 -239q16 -16 35 -25h-352q53 39 53 107q0 31 -12.5 79t-40.5 113l-113 264h-727l-125 -288q-23 -55 -34 -96.5t-11 -69.5q0 -23 9 -49.5t44 -55.5l8 -4h-213zM303 588h719l-354 846zM737 1741 l86 278h152z" />
<glyph unicode="&#xc2;" horiz-adv-x="1464" d="M-25 8q27 12 53.5 48t51 79t44 85t30.5 67l581 1362l576 -1377q76 -180 143 -239q16 -16 35 -25h-352q53 39 53 107q0 31 -12.5 79t-40.5 113l-113 264h-727l-125 -288q-23 -55 -34 -96.5t-11 -69.5q0 -23 9 -49.5t44 -55.5l8 -4h-213zM303 588h719l-354 846zM541 1731 l123 215h180l143 -252l-264 204z" />
<glyph unicode="&#xc3;" horiz-adv-x="1464" d="M-25 8q27 12 53.5 48t51 79t44 85t30.5 67l581 1362l576 -1377q76 -180 143 -239q16 -16 35 -25h-352q53 39 53 107q0 31 -12.5 79t-40.5 113l-113 264h-727l-125 -288q-23 -55 -34 -96.5t-11 -69.5q0 -23 9 -49.5t44 -55.5l8 -4h-213zM303 588h719l-354 846zM430 1849 q6 6 14 19q55 61 134 61q20 0 40.5 -3t36.5 -11q53 -18 154 -86q117 -76 178 -76q37 0 68 19q-23 -33 -65 -59.5t-83 -26.5q-86 0 -223 96q-55 35 -80.5 49t-36.5 20q-33 12 -69 13q-39 -1 -68 -15z" />
<glyph unicode="&#xc4;" horiz-adv-x="1464" d="M-25 8q27 12 53.5 48t51 79t44 85t30.5 67l581 1362l576 -1377q76 -180 143 -239q16 -16 35 -25h-352q53 39 53 107q0 31 -12.5 79t-40.5 113l-113 264h-727l-125 -288q-23 -55 -34 -96.5t-11 -69.5q0 -23 9 -49.5t44 -55.5l8 -4h-213zM303 588h719l-354 846zM494 1833 q0 37 26 65q27 27 64 27q23 0 38 -7t29 -20q25 -27 25 -65q0 -41 -24.5 -66.5t-65.5 -25.5q-39 0 -65.5 26.5t-26.5 65.5zM758 1833q0 39 27.5 65.5t64.5 26.5q23 0 37 -7t28 -20q29 -33 29 -65q0 -41 -27.5 -66.5t-66.5 -25.5q-37 0 -64.5 26.5t-27.5 65.5z" />
<glyph unicode="&#xc5;" horiz-adv-x="1464" d="M-25 8q27 12 53.5 48t51 79t44.5 85t30 67l544 1272q-43 6 -79.5 28.5t-63.5 54t-42 72.5t-15 84q0 49 19.5 93t52 77t76.5 52.5t93 19.5t94.5 -19.5t78 -52.5t52 -77t19.5 -93q0 -45 -16.5 -86t-44 -73.5t-65.5 -54t-83 -28.5l537 -1284q76 -180 143 -239q16 -16 35 -25 h-352q53 39 53 107q0 31 -12.5 79t-40.5 113l-113 264h-727l-125 -288q-23 -55 -34 -96.5t-11 -69.5q0 -23 9 -49.5t44 -55.5l8 -4h-213zM303 588h719l-354 846zM586 1798q0 -63 42 -107t105 -49l2 7l2 -7q66 0 112 45.5t46 110.5q0 66 -45 109t-111 43t-109.5 -43 t-43.5 -109z" />
<glyph unicode="&#xc6;" horiz-adv-x="1740" d="M-25 8q14 6 23 19q74 66 154 260l514 1198q-8 55 -18.5 79.5t-22.5 39.5q-10 14 -25 22h1057l6 -149q-4 10 -8 16t-8 14q-27 41 -55.5 62.5t-60.5 31t-70 9.5h-81h-557v-746h404h60.5t64 3t62.5 14.5t54 31.5q27 25 45 58v-230q-31 57 -92 84q-51 23 -95 23h-99h-404 v-821h600q80 0 132.5 19.5t109.5 76.5q18 16 34.5 36.5t33.5 43.5l-68 -195h-1071q41 29 59 76q4 16 10.5 52t6.5 126v309h-373l-125 -290q-45 -104 -45 -164q0 -23 9 -50.5t44 -54.5q2 -2 3 -2t3 -2h-211zM303 588h367v837l-4 9z" />
<glyph unicode="&#xc7;" horiz-adv-x="1476" d="M43 817q0 178 52 334t151.5 269.5t246 179t336.5 65.5h48q98 0 166.5 -19.5t116.5 -41t82 -40t67 -18.5q37 0 64.5 17.5t47.5 46.5l23 -307q-39 72 -95.5 134t-123 108t-142 73t-157.5 27q-186 0 -317.5 -67t-213.5 -180.5t-118.5 -264t-36.5 -316.5t36.5 -316.5 t118.5 -264t213 -181t318 -67.5q174 0 307 89t211 255l-23 -309q-41 63 -112 63q-33 0 -60.5 -18.5t-71.5 -40t-114 -41t-186 -19.5h-48q-76 0 -145.5 11.5t-130.5 31.5l-25 -67q35 4 76 2t76 -25q14 -10 27.5 -32.5t13.5 -61.5q0 -76 -51 -137q-47 -51 -107 -58h-10 q-29 0 -50.5 17.5t-25.5 46.5l58 10q4 -8 7 -12t17 -4q14 2 31.5 11t34 26.5t28 43t11.5 56.5q0 39 -21.5 50t-56.5 11q-29 0 -55.5 -5t-38.5 -9q-18 -4 -31 6q-14 18 -6 31l43 121q-111 47 -196 126t-142.5 180t-87 223t-29.5 257z" />
<glyph unicode="&#xc8;" horiz-adv-x="1196" d="M47 8q43 29 62 76q4 16 11 52t7 126v1112q0 59 -4 99t-11.5 67t-15.5 41t-14 23l-25 24h1053l8 -151q-4 10 -8 16t-8 14q-27 43 -55.5 63.5t-61.5 30t-68.5 9.5h-78.5h-562v-746h408h60.5t63.5 3t61.5 14.5t52.5 31.5q16 12 26 26.5t21 31.5v-230q-31 57 -92 84 q-49 23 -93.5 23h-99.5h-408v-821h605q59 0 102 11t78 33.5t65.5 55.5t63.5 76l-70 -195h-1073zM352 2025h150l86 -278z" />
<glyph unicode="&#xc9;" horiz-adv-x="1196" d="M47 8q43 29 62 76q4 16 11 52t7 126v1112q0 59 -4 99t-11.5 67t-15.5 41t-14 23l-25 24h1053l8 -151q-4 10 -8 16t-8 14q-27 43 -55.5 63.5t-61.5 30t-68.5 9.5h-78.5h-562v-746h408h60.5t63.5 3t61.5 14.5t52.5 31.5q16 12 26 26.5t21 31.5v-230q-31 57 -92 84 q-49 23 -93.5 23h-99.5h-408v-821h605q59 0 102 11t78 33.5t65.5 55.5t63.5 76l-70 -195h-1073zM565 1751l86 277h152z" />
<glyph unicode="&#xca;" horiz-adv-x="1196" d="M47 8q44 29 62 76q4 16 11 52t7 126v1112q0 59 -4 99t-11.5 67t-15.5 41t-14 23l-25 24h1053l8 -151q-4 10 -8 16t-8 14q-27 43 -55.5 63.5t-61.5 30t-68.5 9.5h-78.5h-562v-746h408h60.5t63.5 3t61.5 14.5t52.5 31.5q16 12 26 26.5t21 31.5v-230q-31 57 -92 84 q-49 23 -93.5 23h-99.5h-408v-821h605q59 0 102 11t78 33.5t65.5 55.5t63.5 76l-70 -195h-1073zM371 1735l123 215h180l147 -252l-268 207z" />
<glyph unicode="&#xcb;" horiz-adv-x="1196" d="M47 8q43 29 62 76q4 16 11 52t7 126v1112q0 59 -4 99t-11.5 67t-15.5 41t-14 23l-25 24h1053l8 -151q-4 10 -8 16t-8 14q-27 43 -55.5 63.5t-61.5 30t-68.5 9.5h-78.5h-562v-746h408h60.5t63.5 3t61.5 14.5t52.5 31.5q16 12 26 26.5t21 31.5v-230q-31 57 -92 84 q-49 23 -93.5 23h-99.5h-408v-821h605q59 0 102 11t78 33.5t65.5 55.5t63.5 76l-70 -195h-1073zM373 1833q-1 36 26 65q31 27 66 27t65 -27q27 -29 27 -65q0 -39 -26.5 -65.5t-65.5 -26.5t-65.5 26.5t-26.5 65.5zM639 1833q0 39 27.5 65.5t64.5 26.5q35 0 66 -27 q27 -29 26 -65q0 -41 -25.5 -66.5t-66.5 -25.5t-66.5 24.5t-25.5 67.5z" />
<glyph unicode="&#xcc;" horiz-adv-x="405" d="M-29 2019h152l86 -274zM45 1628h311q-20 -18 -37 -37q-23 -29 -31.5 -81t-8.5 -140v-1106q0 -92 6 -131t12 -55q14 -39 61 -70h-311q10 6 20.5 15.5t18.5 19.5q39 53 39 221v1106q0 92 -6 131t-13 55q-10 20 -24 38t-37 34z" />
<glyph unicode="&#xcd;" horiz-adv-x="405" d="M45 1628h311q-10 -10 -20 -18t-17 -19q-43 -51 -43 -221v-1106q0 -92 7.5 -131t11.5 -55q18 -43 63 -70h-311q23 12 37 35q41 53 41 221v1106q0 92 -6 131t-13 55q-10 20 -24 38t-37 34zM129 1735l84 276h154z" />
<glyph unicode="&#xce;" horiz-adv-x="405" d="M-16 1724l122 218h179l147 -254l-268 208zM47 1628h311q-10 -10 -20 -18t-19 -19q-23 -29 -31.5 -81t-8.5 -140v-1106q0 -92 7 -131t11 -55q18 -43 63 -70h-311q10 6 19.5 15.5t17.5 19.5q23 29 31 82t8 139v1106q0 92 -5 131t-14 55q-20 43 -59 72z" />
<glyph unicode="&#xcf;" horiz-adv-x="405" d="M-31 1827q0 41 24.5 67.5t65.5 26.5t66 -27q29 -29 29 -67q0 -37 -29 -62q-29 -29 -64 -28q-39 0 -65.5 25.5t-26.5 64.5zM45 1628h311q-10 -10 -19 -18t-18 -19q-23 -29 -31.5 -81t-8.5 -140v-1106q0 -92 7 -131t11 -55q18 -43 63 -70h-311q18 12 37 35q39 53 39 221 v1106q0 92 -6 131t-13 55q-10 20 -24 38t-37 34zM233 1827q0 41 27 67.5t68 26.5t66.5 -26.5t25.5 -67.5q0 -35 -29 -64q-31 -27 -63 -26q-37 0 -66 28q-29 25 -29 62z" />
<glyph unicode="&#xd0;" horiz-adv-x="1638" d="M12 774v98h201v498q0 176 -47 229q-8 8 -15.5 14.5t-15.5 14.5h481q68 0 141.5 -3t148.5 -12t145.5 -25.5t130.5 -43.5q106 -47 184 -124t129 -171t76.5 -202.5t25.5 -219.5q0 -340 -202 -567q-74 -82 -166 -131t-193.5 -75.5t-207 -36t-210.5 -9.5h-485q27 16 45 45 q4 10 10.5 23.5t11.5 38t9 60.5t4 89v510h-201zM362 23q121 0 235 -2.5t218.5 13t199.5 58.5t179 133q207 217 207 588q0 373 -207 590q-78 84 -177 126t-208 60.5t-223.5 19.5t-223.5 1v-738h216v-98h-216v-751z" />
<glyph unicode="&#xd1;" horiz-adv-x="1492" d="M-2 1628h242l1112 -1366v1112q0 92 -11.5 145.5t-35.5 82.5q-6 8 -13.5 13t-13.5 13h172q-20 -16 -43 -45q-16 -27 -25.5 -76t-9.5 -133v-1370l-1171 1434v-1180q0 -176 43 -225q8 -8 14 -14.5t16 -10.5h-172q25 16 41 41q35 49 35 209v1204l-10 15q-76 90 -121 120 q-10 10 -22.5 16.5t-26.5 14.5zM424 1903q4 4 6 8t6 10q53 59 133 59q45 0 78 -12q27 -10 65 -31.5t87 -52.5q59 -41 103 -59.5t79 -18.5q39 0 66 19q-27 -37 -65 -61.5t-83 -24.5q-90 0 -223 94q-55 39 -81 52l-36 18q-16 6 -33.5 11t-36.5 5q-18 0 -33.5 -5t-31.5 -11z " />
<glyph unicode="&#xd2;" d="M41 821q0 195 65.5 353.5t196.5 279.5q115 106 245 158.5t290 52.5q158 0 299 -59.5t258 -180.5q117 -119 173 -268t56 -330q0 -373 -231 -616q-115 -119 -262.5 -181.5t-305.5 -62.5q-160 0 -302 60.5t-255 177.5q-227 237 -227 616zM242 829q0 -145 25.5 -295.5 t91 -272.5t179 -199.5t287.5 -77.5q178 0 295 69.5t184.5 183t95 259t27.5 297.5q0 451 -184 682q-74 94 -173 134t-232 40q-176 0 -292 -72t-183.5 -187.5t-94 -262t-26.5 -298.5zM662 2023h149l86 -278z" />
<glyph unicode="&#xd3;" d="M41 821q0 195 65.5 353.5t196.5 279.5q115 106 245 158.5t290 52.5q158 0 299 -59.5t258 -180.5q117 -119 173 -268t56 -330q0 -373 -231 -616q-115 -119 -262.5 -181.5t-305.5 -62.5q-160 0 -302 60.5t-255 177.5q-227 238 -227 616zM242 829q0 -145 25.5 -295.5 t91 -272.5t179 -199.5t287.5 -77.5q178 0 295 69.5t184.5 183t95 259t27.5 297.5q0 451 -184 682q-74 94 -173 134t-232 40q-176 0 -292 -72t-183.5 -187.5t-94 -262t-26.5 -298.5zM850 1735l86 276h149z" />
<glyph unicode="&#xd4;" d="M41 821q0 195 65.5 353.5t196.5 279.5q115 106 245 158.5t290 52.5q158 0 299 -59.5t258 -180.5q117 -119 173 -268t56 -330q0 -373 -231 -616q-115 -119 -262.5 -181.5t-305.5 -62.5q-160 0 -302 60.5t-255 177.5q-227 238 -227 616zM242 829q0 -145 25.5 -295.5 t91 -272.5t179 -199.5t287.5 -77.5q178 0 295 69.5t184.5 183t95 259t27.5 297.5q0 451 -184 682q-74 94 -173 134t-232 40q-176 0 -292 -72t-183.5 -187.5t-94 -262t-26.5 -298.5zM641 1737l123 217h180l143 -254l-264 209z" />
<glyph unicode="&#xd5;" d="M41 821q0 195 65.5 353.5t196.5 279.5q115 106 245 158.5t290 52.5q158 0 299 -59.5t258 -180.5q117 -119 173 -268t56 -330q0 -373 -231 -616q-115 -119 -262.5 -181.5t-305.5 -62.5q-160 0 -302 60.5t-255 177.5q-227 237 -227 616zM242 829q0 -145 25.5 -295.5 t91 -272.5t179 -199.5t287.5 -77.5q178 0 295 69.5t184.5 183t95 259t27.5 297.5q0 451 -184 682q-74 94 -173 134t-232 40q-176 0 -292 -72t-183.5 -187.5t-94 -262t-26.5 -298.5zM590 1907q4 10 12 18q53 63 131 64q23 0 42.5 -4.5t35.5 -10.5q53 -20 154 -86 q59 -39 102 -58.5t78 -19.5q18 0 33.5 5.5t31.5 13.5q-23 -35 -63.5 -59.5t-83.5 -24.5q-88 0 -221 92q-57 39 -82 53.5t-35 18.5q-35 14 -72 14q-39 0 -63 -16z" />
<glyph unicode="&#xd6;" d="M41 821q0 195 65.5 353.5t196.5 279.5q115 106 245 158.5t290 52.5q158 0 299 -59.5t258 -180.5q117 -119 173 -268t56 -330q0 -373 -231 -616q-115 -119 -262.5 -181.5t-305.5 -62.5q-160 0 -302 60.5t-255 177.5q-227 237 -227 616zM242 829q0 -145 25.5 -295.5 t91 -272.5t179 -199.5t287.5 -77.5q178 0 295 69.5t184.5 183t95 259t27.5 297.5q0 451 -184 682q-74 94 -173 134t-232 40q-176 0 -292 -72t-183.5 -187.5t-94 -262t-26.5 -298.5zM594 1843q0 39 26.5 66.5t65.5 27.5t66.5 -27.5t27.5 -66.5t-27.5 -64.5t-66.5 -25.5 t-65.5 25.5t-26.5 64.5zM860 1843q0 39 27.5 66.5t66.5 27.5t64.5 -27.5t25.5 -66.5q0 -41 -24.5 -65.5t-65.5 -24.5q-39 0 -66.5 25.5t-27.5 64.5z" />
<glyph unicode="&#xd7;" horiz-adv-x="966" d="M29 414l446 446l-444 445l10 8l442 -443l447 443l6 -6l-444 -447l446 -446l-8 -8l-447 446l-444 -446z" />
<glyph unicode="&#xd8;" d="M41 821q0 195 65.5 353.5t196.5 279.5q115 106 245 158.5t290 52.5q137 0 268 -47l18 57h86l-28 -90q109 -55 190.5 -135t138 -178t85 -211t28.5 -234q0 -373 -231 -616q-115 -119 -262.5 -181.5t-305.5 -62.5q-49 0 -94 6.5t-90 16.5l-20 -58h-84l26 80 q-129 47 -227 129t-164 188.5t-98.5 232.5t-32.5 259zM242 829q0 -100 14 -216.5t51 -227.5t101.5 -203t164.5 -143l525 1556q-104 53 -260 54q-176 0 -292 -72t-183.5 -187.5t-94 -262t-26.5 -298.5zM647 10q41 -16 86 -21t92 -5q178 0 295 69.5t184.5 183t95 259 t27.5 297.5q0 102 -10 206.5t-38.5 202.5t-79 187.5t-130.5 160.5z" />
<glyph unicode="&#xd9;" horiz-adv-x="1472" d="M35 1628h311q-59 -51 -70.5 -116.5t-11.5 -141.5v-745q0 -127 18.5 -243t73 -204t149.5 -140t249 -52q178 0 321 80q92 51 143.5 116.5t76 143t29.5 166t5 184.5v694q0 176 -47 229q-8 8 -14 14.5t-17 14.5h191q-66 -51 -78 -121.5t-12 -148.5v-692q0 -92 -6.5 -177.5 t-29 -162t-69.5 -143t-129 -122.5q-137 -96 -379 -96q-94 0 -185 14.5t-170 52.5t-138.5 101.5t-93.5 161.5q-41 106 -41 405v670q0 90 -12.5 146.5t-41.5 87.5q-8 12 -22 24zM526 2017h152l86 -278z" />
<glyph unicode="&#xda;" horiz-adv-x="1472" d="M35 1628h311q-59 -51 -70.5 -116.5t-11.5 -141.5v-745q0 -127 18.5 -243t73 -204t149.5 -140t249 -52q178 0 321 80q92 51 143.5 116.5t76 143t29.5 166t5 184.5v694q0 176 -47 229q-8 8 -14 14.5t-17 14.5h191q-66 -51 -78 -121.5t-12 -148.5v-692q0 -92 -6.5 -177.5 t-29 -162t-69.5 -143t-129 -122.5q-137 -96 -379 -96q-94 0 -185 14.5t-170 52.5t-138.5 101.5t-93.5 161.5q-41 106 -41 405v670q0 90 -12.5 146.5t-41.5 87.5q-8 12 -22 24zM725 1724l86 277h150z" />
<glyph unicode="&#xdb;" horiz-adv-x="1472" d="M35 1628h311q-59 -51 -70.5 -116.5t-11.5 -141.5v-745q0 -127 18.5 -243t73 -204t149.5 -140t249 -52q178 0 321 80q92 51 143.5 116.5t76 143t29.5 166t5 184.5v694q0 176 -47 229q-8 8 -14 14.5t-17 14.5h191q-66 -51 -78 -121.5t-12 -148.5v-692q0 -92 -6.5 -177.5 t-29 -162t-69.5 -143t-129 -122.5q-137 -96 -379 -96q-94 0 -185 14.5t-170 52.5t-138.5 101.5t-93.5 161.5q-41 106 -41 405v670q0 90 -12.5 146.5t-41.5 87.5q-8 12 -22 24zM571 1731l123 215h180l148 -252l-268 204z" />
<glyph unicode="&#xdc;" horiz-adv-x="1472" d="M35 1628h311q-59 -51 -70.5 -116.5t-11.5 -141.5v-745q0 -127 18.5 -243t73 -204t149.5 -140t249 -52q178 0 321 80q92 51 143.5 116.5t76 143t29.5 166t5 184.5v694q0 176 -47 229q-8 8 -14 14.5t-17 14.5h191q-66 -51 -78 -121.5t-12 -148.5v-692q0 -92 -6.5 -177.5 t-29 -162t-69.5 -143t-129 -122.5q-137 -96 -379 -96q-94 0 -185 14.5t-170 52.5t-138.5 101.5t-93.5 161.5q-41 106 -41 405v670q0 90 -12.5 146.5t-41.5 87.5q-8 12 -22 24zM573 1827q0 41 26 67.5t67 26.5t67.5 -26.5t26.5 -67.5q0 -35 -29 -64q-31 -27 -65 -26 q-33 0 -64 26q-29 29 -29 64zM840 1827q0 41 26 67q29 27 68 27q37 0 65 -27q10 -14 17.5 -29.5t7.5 -37.5q0 -39 -25 -64q-33 -27 -65 -26q-23 0 -38 7t-30 19q-26 27 -26 64z" />
<glyph unicode="&#xdd;" horiz-adv-x="1415" d="M-37 1628h404q-57 -43 -58 -115q0 -20 14.5 -61t69.5 -127l395 -610l373 588q82 131 82 200q0 76 -59 125h270q-39 -20 -73.5 -51t-63.5 -66.5t-54.5 -74.5t-50.5 -76l-417 -662v-440q0 -176 47 -225q10 -12 26 -25h-301q18 12 39 41q20 27 27.5 77t7.5 132v418l-475 727 q-45 66 -72.5 106.5t-44.5 57.5q-14 14 -35.5 28.5t-50.5 32.5zM713 1741l84 278h153z" />
<glyph unicode="&#xdf;" horiz-adv-x="1191" d="M39 0q39 31 55 76q6 16 12.5 57t6.5 139v1061q0 86 8 168t32.5 155t68.5 132t116 98q53 29 112.5 45.5t124.5 16.5q92 0 174 -31t143.5 -87t97.5 -134t36 -174q0 -129 -50 -202t-151 -126q-53 -35 -88 -54.5t-59 -29.5l110 -33q96 -27 164 -77t110 -117.5t61.5 -150.5 t19.5 -179q0 -68 -15.5 -146.5t-46 -152.5t-79 -135.5t-113.5 -95.5q35 37 57.5 80.5t34.5 93t17.5 100.5t5.5 100q0 104 -16.5 215t-58.5 208.5t-116 171t-188 104.5q-8 0 -11 2h2l7 8q10 -2 28 4q16 4 44 17.5t73 39.5q8 8 15.5 14.5t15.5 14.5q88 102 88 332 q0 84 -14.5 156.5t-51.5 127t-98 86t-154 31.5q-113 0 -177 -43t-96 -112.5t-39 -158.5t-7 -179v-1436h-211z" />
<glyph unicode="&#xe0;" horiz-adv-x="940" d="M43 256q0 78 46 140.5t112.5 112.5t142.5 87t135 63q45 16 84 35t72 41q23 16 38 50t13 65q-2 55 -13 104.5t-36 86t-68 58t-108 21.5q-41 0 -85 -8t-81 -27.5t-61.5 -52.5t-24.5 -80l2 -73q0 -33 -14.5 -54.5t-49.5 -21.5q-33 0 -46 24.5t-13 53.5q0 61 34 108t88 79 t120.5 49.5t130.5 17.5q49 0 99 -6.5t93 -24t78 -47t55 -76.5q4 -12 12.5 -56t8.5 -149v-393v-95t1 -61.5t2 -36t3 -18.5q8 -41 29.5 -70.5t68.5 -29.5h13q-35 -31 -77 -51.5t-91 -20.5q-33 0 -59.5 11.5t-53.5 25.5q-39 23 -68.5 31t-52.5 8q-33 0 -58.5 -11.5t-53 -25.5 t-59.5 -25.5t-79 -11.5q-113 0 -171 74t-58 180zM155.5 298q-2.5 -79 75.5 -165q31 -35 68 -54.5t78 -19.5q31 0 61 13q47 20 88 20q37 0 67 -12t58 -29q16 -10 36 -18t38 -15q-4 2 -5 5.5t-5 7.5q-10 10 -18.5 37.5t-10.5 81.5v608q-37 -37 -88 -62.5t-111 -52.5 q-76 -33 -154.5 -84t-126.5 -116.5t-50.5 -144.5zM324 1473h151l86 -277z" />
<glyph unicode="&#xe1;" horiz-adv-x="940" d="M43 256q0 78 46 140.5t112.5 112.5t142.5 87t135 63q45 16 84 35t72 41q23 16 38 50t13 65q-2 55 -13 104.5t-36 86t-68 58t-108 21.5q-41 0 -85 -8t-81 -27.5t-61.5 -52.5t-24.5 -80l2 -73q0 -33 -14.5 -54.5t-49.5 -21.5q-33 0 -46 24.5t-13 53.5q0 61 34 108t88 79 t120.5 49.5t130.5 17.5q49 0 99 -6.5t93 -24t78 -47t55 -76.5q4 -12 12.5 -56t8.5 -149v-393v-95t1 -61.5t2 -36t3 -18.5q8 -41 29.5 -70.5t68.5 -29.5h13q-35 -31 -77 -51.5t-91 -20.5q-33 0 -59.5 11.5t-53.5 25.5q-39 23 -68.5 31t-52.5 8q-33 0 -58.5 -11.5t-53 -25.5 t-59.5 -25.5t-79 -11.5q-113 0 -171 74t-58 180zM155.5 298q-2.5 -79 75.5 -165q31 -35 68 -54.5t78 -19.5q31 0 61 13q47 20 88 20q37 0 67 -12t58 -29q16 -10 36 -18t38 -15q-4 2 -5 5.5t-5 7.5q-10 10 -18.5 37.5t-10.5 81.5v608q-37 -37 -88 -62.5t-111 -52.5 q-76 -33 -154.5 -84t-126.5 -116.5t-50.5 -144.5zM539 1194l82 279h153z" />
<glyph unicode="&#xe2;" horiz-adv-x="940" d="M43 256q0 78 46 140.5t112.5 112.5t142.5 87t135 63q45 16 84 35t72 41q23 16 38 50t13 65q-2 55 -13 104.5t-36 86t-68 58t-108 21.5q-41 0 -85 -8t-81 -27.5t-61.5 -52.5t-24.5 -80l2 -73q0 -33 -14.5 -54.5t-49.5 -21.5q-33 0 -46 24.5t-13 53.5q0 61 34 108t88 79 t120.5 49.5t130.5 17.5q49 0 99 -6.5t93 -24t78 -47t55 -76.5q4 -12 12.5 -56t8.5 -149v-393v-95t1 -61.5t2 -36t3 -18.5q8 -41 29.5 -70.5t68.5 -29.5h13q-35 -31 -77 -51.5t-91 -20.5q-33 0 -59.5 11.5t-53.5 25.5q-39 23 -68.5 31t-52.5 8q-33 0 -58.5 -11.5t-53 -25.5 t-59.5 -25.5t-79 -11.5q-113 0 -171 74t-58 180zM155.5 298q-2.5 -79 75.5 -165q31 -35 68 -54.5t78 -19.5q31 0 61 13q47 20 88 20q37 0 67 -12t58 -29q16 -10 36 -18t38 -15q-4 2 -5 5.5t-5 7.5q-10 10 -18.5 37.5t-10.5 81.5v608q-37 -37 -88 -62.5t-111 -52.5 q-76 -33 -154.5 -84t-126.5 -116.5t-50.5 -144.5zM358 1169l123 217h183l143 -253l-264 206z" />
<glyph unicode="&#xe3;" horiz-adv-x="940" d="M43 256q0 78 46 140.5t112.5 112.5t142.5 87t135 63q45 16 84 35t72 41q23 16 38 50t13 65q-2 55 -13 104.5t-36 86t-68 58t-108 21.5q-41 0 -85 -8t-81 -27.5t-61.5 -52.5t-24.5 -80l2 -73q0 -33 -14.5 -54.5t-49.5 -21.5q-33 0 -46 24.5t-13 53.5q0 61 34 108t88 79 t120.5 49.5t130.5 17.5q49 0 99 -6.5t93 -24t78 -47t55 -76.5q4 -12 12.5 -56t8.5 -149v-393v-95t1 -61.5t2 -36t3 -18.5q8 -41 29.5 -70.5t68.5 -29.5h13q-35 -31 -77 -51.5t-91 -20.5q-33 0 -59.5 11.5t-53.5 25.5q-39 23 -68.5 31t-52.5 8q-33 0 -58.5 -11.5t-53 -25.5 t-59.5 -25.5t-79 -11.5q-113 0 -171 74t-58 180zM155.5 298q-2.5 -79 75.5 -165q31 -35 68 -54.5t78 -19.5q31 0 61 13q47 20 88 20q37 0 67 -12t58 -29q16 -10 36 -18t38 -15q-4 2 -5 5.5t-5 7.5q-10 10 -18.5 37.5t-10.5 81.5v608q-37 -37 -88 -62.5t-111 -52.5 q-76 -33 -154.5 -84t-126.5 -116.5t-50.5 -144.5zM287 1329q4 4 7 9.5t7 9.5q53 61 133 61q43 0 78 -14q27 -8 64.5 -30t87.5 -54q119 -78 178 -78q20 0 36.5 5t32.5 13q-29 -35 -65.5 -59.5t-83.5 -24.5q-88 0 -221 95q-57 39 -82 51t-35 18q-39 14 -72 15q-37 0 -65 -17z " />
<glyph unicode="&#xe4;" horiz-adv-x="940" d="M43 256q0 78 46 140.5t112.5 112.5t142.5 86.5t135 63.5q45 16 84 35t72 41q23 16 38 50t13 65q-2 55 -13 104.5t-36 86t-68 58t-108 21.5q-41 0 -85 -8t-81 -27.5t-61.5 -52.5t-24.5 -80l2 -73q0 -33 -14.5 -54.5t-49.5 -21.5q-33 0 -46 24.5t-13 53.5q0 61 34 108 t88 79t120.5 49.5t130.5 17.5q49 0 99 -6.5t93 -24t78 -47t55 -76.5q4 -12 12.5 -56t8.5 -149v-393v-95t1 -61.5t2 -36t3 -18.5q8 -41 29.5 -70.5t68.5 -29.5h13q-35 -31 -77 -51.5t-91 -20.5q-33 0 -59.5 11.5t-53.5 25.5q-39 23 -68.5 31t-52.5 8q-33 0 -58.5 -11.5 t-53 -25.5t-59.5 -25.5t-79 -11.5q-113 0 -171 74t-58 180zM155.5 298q-2.5 -79 75.5 -165q31 -35 68 -54.5t78 -19.5q31 0 61 13q47 20 88 20q37 0 67 -12t58 -29q16 -10 36 -18t38 -15q-4 2 -5 5.5t-5 7.5q-10 10 -18.5 37.5t-10.5 81.5v608q-37 -37 -88 -62.5t-111 -52.5 q-76 -33 -154.5 -84t-126.5 -116.5t-50.5 -144.5zM303 1280q0 41 26.5 66.5t65.5 25.5q41 0 67.5 -25.5t26.5 -66.5q0 -39 -28 -63q-27 -27 -66 -27q-37 0 -63 27q-29 25 -29 63zM569 1280q0 41 27 66.5t68 25.5q39 0 63 -24q27 -25 27 -68q0 -41 -24.5 -65.5t-65.5 -24.5 q-39 0 -66 27q-29 24 -29 63z" />
<glyph unicode="&#xe5;" horiz-adv-x="940" d="M43 256q0 78 46 140.5t112.5 112.5t142.5 87t135 63q45 16 84 35t72 41q23 16 38 50t13 65q-2 55 -13 104.5t-36 86t-68 58t-108 21.5q-41 0 -85 -8t-81 -27.5t-61.5 -52.5t-24.5 -80l2 -73q0 -33 -14.5 -54.5t-49.5 -21.5q-33 0 -46 24.5t-13 53.5q0 61 34 108t88 79 t120.5 49.5t130.5 17.5h41q-84 20 -134.5 84.5t-50.5 150.5q0 51 18.5 95t51.5 77t77 51.5t95 18.5t95 -18.5t77 -51.5t51.5 -77t18.5 -95q0 -98 -70 -172q-37 -35 -78 -52.5t-92 -17.5q74 -10 134.5 -43.5t90.5 -103.5q4 -12 12.5 -56t8.5 -149v-393v-95t1 -61.5t2 -36 t3 -18.5q8 -41 29.5 -70.5t68.5 -29.5h13q-35 -31 -77 -51.5t-91 -20.5q-33 0 -59.5 11.5t-53.5 25.5q-39 23 -68.5 31t-52.5 8q-33 0 -58.5 -11.5t-53 -25.5t-59.5 -25.5t-79 -11.5q-113 0 -171 74t-58 180zM155.5 298q-2.5 -79 75.5 -165q31 -35 68 -54.5t78 -19.5 q31 0 61 13q47 20 88 20q37 0 67 -12t58 -29q16 -10 36 -18t38 -15q-4 2 -5 5.5t-5 7.5q-10 10 -18.5 37.5t-10.5 81.5v608q-37 -37 -88 -62.5t-111 -52.5q-76 -33 -154.5 -84t-126.5 -116.5t-50.5 -144.5zM403 1370q0 -66 45 -109.5t111 -43.5t110 44t44 109q0 66 -44 110 t-110 44t-111 -44t-45 -110z" />
<glyph unicode="&#xe6;" horiz-adv-x="1536" d="M43 256q0 78 46 140.5t112.5 112.5t142.5 87t135 63q45 16 82 35t72 39q10 39 22.5 76t28.5 72q-4 51 -16.5 95t-38 75.5t-66.5 50t-102 18.5q-41 0 -85 -8t-81 -27.5t-61.5 -52.5t-24.5 -80l2 -73q0 -33 -14.5 -54.5t-49.5 -21.5q-33 0 -46 24.5t-13 53.5q0 61 34 108 t88 79t120.5 49.5t130.5 17.5q45 0 91 -6.5t88 -20.5t77 -39t57 -63q68 63 144.5 95t173.5 32q86 0 158.5 -29t126 -80t85 -122t37.5 -157h-240.5t-238.5 -20q-152 -27 -213 -98q-10 -10 -19 -23q-43 -66 -32.5 -146.5t51.5 -146.5q8 -12 14 -22t17 -19q137 -164 329 -164 q125 0 191.5 49.5t101.5 161.5q2 8 10 9q10 -4 7 -13q-20 -68 -59.5 -126t-92.5 -102t-117.5 -69.5t-136.5 -25.5q-113 0 -194 47q-29 -16 -57.5 -26.5t-63.5 -10.5q-33 0 -59.5 11.5t-53.5 25.5q-39 23 -68.5 31t-52.5 8q-33 0 -58.5 -11.5t-53 -25.5t-59.5 -25.5 t-79 -11.5q-113 0 -171 74t-58 180zM155.5 298q-2.5 -79 75.5 -165q31 -35 68 -54.5t78 -19.5q31 0 61 13q47 20 88 20q37 0 67 -12t58 -29q16 -10 36 -18t38 -15q-4 2 -5 5.5t-5 7.5q-10 10 -18.5 37.5t-10.5 81.5v71q-74 133 -74 322q0 43 3 85t14 85q-33 -18 -68 -36 t-74 -34q-76 -33 -154.5 -84t-126.5 -116.5t-50.5 -144.5zM690 733q-4 -74 9 -151.5t40 -153.5q-2 16 -2 30.5v28.5q0 70 31 116t80 77t112.5 47t129 24.5t128 9.5t109.5 1l-2 16q-4 117 -29 172q-37 86 -100 124t-137 38q-35 0 -74 -9t-77 -24.5t-69.5 -38t-54.5 -51.5 q-43 -51 -66.5 -116.5t-27.5 -139.5z" />
<glyph unicode="&#xe7;" horiz-adv-x="935" d="M47 557q0 98 32 196.5t89 178.5t140 134t184 62q76 10 164.5 -11t150.5 -70q92 -76 92 -152q0 -35 -16 -47q-14 -16 -56 -17q-37 0 -53 10.5t-22 20.5q-4 4 -10.5 19.5t-12.5 58.5q-10 115 -74.5 149.5t-169.5 20.5q-92 -12 -153.5 -51t-98 -97.5t-53 -134t-16.5 -161.5 q0 -96 25.5 -197.5t77.5 -184.5t133 -136.5t194 -53.5q94 0 174 53.5t115 169.5q4 6 12 7q10 -4 4 -11q-23 -76 -63.5 -136t-95 -101t-117 -62.5t-127.5 -21.5q-47 0 -82 8l-19 -25q23 -4 47.5 -11t38.5 -27q8 -8 13.5 -23.5t-0.5 -38.5q-16 -47 -54 -72q-18 -10 -36.5 -15 t-34.5 -1h-7q-39 10 -34 51l34 -2q0 -6 1.5 -9t11.5 -5q16 -4 45 11t39 50q6 25 -6 33q-6 8 -17.5 13t-26 8.5t-27.5 3.5h-20q-12 0 -16 8q-6 8 0 18l31 43q-88 29 -150.5 85.5t-102.5 130t-58.5 158.5t-18.5 173z" />
<glyph unicode="&#xe8;" horiz-adv-x="974" d="M49 543q0 115 28.5 220t87 188t150 132.5t213.5 49.5q86 0 159 -28t127 -79t86 -123t36 -158h-240t-237 -20q-176 -37 -234 -121q-25 -39 -31 -84t2.5 -89t30 -86t47.5 -75q137 -164 332 -164q125 0 191.5 49.5t101.5 161.5q0 10 10 7q10 0 4 -11q-20 -68 -58 -126 t-91 -102t-117.5 -69.5t-136.5 -25.5q-188 0 -324 147q-137 154 -137 406zM133 615.5q12 -95.5 47 -187.5q-4 16 -5 30.5t-1 28.5q0 68 31 115t80 78t112.5 47t129 24.5t128 9.5t109.5 1v16q-4 59 -9 102.5t-18 69.5q-39 86 -102.5 124t-138.5 38q-94 0 -189 -53 q-74 -39 -115.5 -108.5t-56 -154.5t-2.5 -180.5zM262 1460h154l84 -276z" />
<glyph unicode="&#xe9;" horiz-adv-x="974" d="M49 543q0 115 28.5 220t87 188t150 132.5t213.5 49.5q86 0 159 -28t127 -79t86 -123t36 -158h-240t-237 -20q-176 -37 -234 -121q-25 -39 -31 -84t2.5 -89t30 -86t47.5 -75q137 -164 332 -164q125 0 191.5 49.5t101.5 161.5q0 10 10 7q10 0 4 -11q-20 -68 -58 -126 t-91 -102t-117.5 -69.5t-136.5 -25.5q-188 0 -324 147q-137 154 -137 406zM133 615.5q12 -95.5 47 -187.5q-4 16 -5 30.5t-1 28.5q0 68 31 115t80 78t112.5 47t129 24.5t128 9.5t109.5 1v16q-4 59 -9 102.5t-18 69.5q-39 86 -102.5 124t-138.5 38q-94 0 -189 -53 q-74 -39 -115.5 -108.5t-56 -154.5t-2.5 -180.5zM485 1186l84 276h154z" />
<glyph unicode="&#xea;" horiz-adv-x="974" d="M49 543q0 115 28.5 220t87 188t149.5 132.5t214 49.5q86 0 159 -28t127 -79t86 -123t36 -158h-240t-237 -20q-176 -37 -234 -121q-25 -39 -31 -84t2.5 -89t30 -86t47.5 -75q137 -164 332 -164q125 0 191.5 49.5t101.5 161.5q0 10 10 7q10 0 4 -11q-20 -68 -58 -126 t-91 -102t-117.5 -69.5t-136.5 -25.5q-188 0 -324 147q-137 154 -137 406zM133 615.5q12 -95.5 47 -187.5q-4 16 -5 30.5t-1 28.5q0 68 31 115t80 78t112.5 47t129 24.5t128 9.5t109.5 1v16q-4 59 -9 102.5t-18 69.5q-39 86 -102.5 124t-138.5 38q-94 0 -189 -53 q-74 -39 -115.5 -108.5t-56 -154.5t-2.5 -180.5zM303 1165l123 217h180l144 -254l-265 207z" />
<glyph unicode="&#xeb;" horiz-adv-x="974" d="M49 543q0 115 28.5 220t87 188t149.5 132.5t214 49.5q86 0 159 -28t127 -79t86 -123t36 -158h-240t-237 -20q-176 -37 -234 -121q-25 -39 -31 -84t2.5 -89t30 -86t47.5 -75q137 -164 332 -164q125 0 191.5 49.5t101.5 161.5q0 10 10 7q10 0 4 -11q-20 -68 -58 -126 t-91 -102t-117.5 -69.5t-136.5 -25.5q-188 0 -324 147q-137 154 -137 406zM133 615.5q12 -95.5 47 -187.5q-4 16 -5 30.5t-1 28.5q0 68 31 115t80 78t112.5 47t129 24.5t128 9.5t109.5 1v16q-4 59 -9 102.5t-18 69.5q-39 86 -102.5 124t-138.5 38q-94 0 -189 -53 q-74 -39 -115.5 -108.5t-56 -154.5t-2.5 -180.5zM289 1268q0 41 25.5 66.5t66.5 25.5t67.5 -25.5t26.5 -66.5t-27.5 -65.5t-66.5 -24.5q-41 0 -66.5 24.5t-25.5 65.5zM555 1268q0 41 26.5 66.5t67.5 25.5q39 0 62 -25q29 -29 28 -67q0 -35 -26 -66q-25 -25 -64 -24 q-41 0 -67.5 24.5t-26.5 65.5z" />
<glyph unicode="&#xec;" horiz-adv-x="344" d="M-86 1499h152l86 -278zM31 1042l209 84h2v-884q0 -78 7 -113t11 -49q16 -37 39 -53h-233q20 18 31.5 44.5t16.5 56.5t6 59.5t1 54.5v446q0 98 -2 160.5t-10 91.5q-8 33 -25.5 62.5t-52.5 39.5z" />
<glyph unicode="&#xed;" horiz-adv-x="344" d="M31 1042l209 84h2v-884q0 -78 7 -113t11 -49q16 -35 41 -53h-235q23 18 34 53q20 41 21 162v446q0 98 -2 160.5t-8 91.5q-16 59 -45 82q-14 14 -35 20zM63 1221l84 276h154z" />
<glyph unicode="&#xee;" horiz-adv-x="344" d="M-59 1243l122 215h183l145 -254l-266 207zM31 1042l209 84h2v-884q0 -78 7 -113t13 -49q12 -33 39 -53h-235q23 18 34 53q20 41 21 162v446q0 98 -2 160.5t-8 91.5q-16 59 -45 82q-14 14 -35 20z" />
<glyph unicode="&#xef;" horiz-adv-x="342" d="M-72 1333q0 41 23.5 66.5t66.5 25.5t68 -24q27 -31 27 -68q0 -35 -27 -65q-31 -25 -66 -25q-41 0 -67 25q-25 25 -25 65zM31 1042l209 84h2v-884q0 -78 7 -113t11 -49q14 -33 39 -53h-233q20 18 31.5 44.5t16.5 56.5t6 59.5t1 54.5v446q0 98 -2 160.5t-10 91.5 q-8 33 -25.5 62.5t-52.5 39.5zM193 1333q0 41 26.5 66.5t67.5 25.5q39 0 65.5 -25.5t26.5 -66.5q0 -37 -29 -65q-27 -25 -63 -25q-37 0 -66 25q-28 28 -28 65z" />
<glyph unicode="&#xf1;" horiz-adv-x="1024" d="M31 1042l209 84h2v-385q10 35 24.5 71t34.5 71q29 49 71 94t93 79t105.5 53t107.5 19q72 0 131 -40.5t94 -135.5q25 -68 25 -217v-493q0 -123 22 -168q10 -29 35 -47h-231q35 31 47 86q4 10 6 34.5t2 94.5v473q0 51 -7 112.5t-28.5 113.5t-62.5 88t-109 36 q-82 0 -162 -55.5t-127 -137.5q-29 -47 -45 -98t-26 -98v-434q0 -84 6 -117t12 -47q16 -35 37 -51h-231q4 4 9 8t9 12q37 51 37 195v430q0 72 -1 119t-2 75.5t-2 44t-3 23.5q-14 61 -45 88q-18 16 -37 20zM256 1346q4 4 7 9t7 9q55 61 131 61q49 0 80 -14q53 -18 154 -86 q117 -76 178 -76q37 0 68 19q-23 -35 -66 -60.5t-84 -25.5q-84 0 -221 96q-57 39 -80.5 51t-34.5 19q-37 12 -71 12q-39 0 -68 -14z" />
<glyph unicode="&#xf2;" horiz-adv-x="1118" d="M45 549q0 111 38 216t106.5 187t165 132.5t212.5 50.5q109 0 201 -46.5t159.5 -123t105.5 -176t38 -207.5q0 -113 -37 -221.5t-105.5 -191.5t-164.5 -134t-217 -51q-109 0 -201 47t-158.5 124.5t-104.5 180t-38 213.5zM188 655q0 -61 8.5 -133.5t27 -145.5t48 -139.5 t72.5 -118.5t100.5 -83t130.5 -31q45 0 105 16q86 25 135 70t73.5 105.5t31 134t6.5 153.5q0 94 -17.5 205t-60.5 206t-114.5 158.5t-182.5 63.5q-16 0 -35.5 -2t-40.5 -6q-92 -18 -148.5 -61t-87 -102.5t-41 -134.5t-10.5 -155zM344 1481h152l86 -279z" />
<glyph unicode="&#xf3;" horiz-adv-x="1118" d="M45 549q0 111 38 216t106.5 187t165 132.5t212.5 50.5q109 0 201 -46.5t159.5 -123t105.5 -176t38 -207.5q0 -113 -37 -221.5t-105.5 -191.5t-164.5 -134t-217 -51q-109 0 -201 47t-158.5 124.5t-104.5 180t-38 213.5zM188 655q0 -61 8.5 -133.5t27 -145.5t48 -139.5 t72.5 -118.5t100.5 -83t130.5 -31q45 0 105 16q86 25 135 70t73.5 105.5t31 134t6.5 153.5q0 94 -17.5 205t-60.5 206t-114.5 158.5t-182.5 63.5q-16 0 -35.5 -2t-40.5 -6q-92 -18 -148.5 -61t-87 -102.5t-41 -134.5t-10.5 -155zM537 1176l84 276h153z" />
<glyph unicode="&#xf4;" horiz-adv-x="1118" d="M45 549q0 111 38 216t106.5 187t165 132.5t212.5 50.5q109 0 201 -46.5t159.5 -123t105.5 -176t38 -207.5q0 -113 -37 -221.5t-105.5 -191.5t-164.5 -134t-217 -51q-109 0 -201 47t-158.5 124.5t-104.5 180t-38 213.5zM188 655q0 -61 8.5 -133.5t27 -145.5t48 -139.5 t72.5 -118.5t100 -83t131 -31q45 0 105 16q86 25 135 70t73.5 105.5t31 134t6.5 153.5q0 94 -17.5 205t-60.5 206t-114.5 158.5t-182.5 63.5q-16 0 -35.5 -2t-40.5 -6q-92 -18 -148.5 -61t-87 -102.5t-41 -134.5t-10.5 -155zM362 1169l123 217h183l143 -253l-264 206z" />
<glyph unicode="&#xf5;" horiz-adv-x="1118" d="M45 549q0 111 38 216t106.5 187t165 132.5t212.5 50.5q109 0 201 -46.5t159.5 -123t105.5 -176t38 -207.5q0 -113 -37 -221.5t-105.5 -191.5t-164.5 -134t-217 -51q-109 0 -201 47t-158.5 124.5t-104.5 180t-38 213.5zM188 655q0 -61 8.5 -133.5t27 -145.5t48 -139.5 t72.5 -118.5t100 -83t131 -31q45 0 105 16q86 25 135 70t73.5 105.5t31 134t6.5 153.5q0 94 -17.5 205t-60.5 206t-114.5 158.5t-182.5 63.5q-16 0 -35.5 -2t-40.5 -6q-92 -18 -148.5 -61t-87 -102.5t-41 -134.5t-10.5 -155zM317 1335l13 19q29 29 60.5 45t72.5 16 q23 0 42 -4t38 -10q27 -10 64.5 -31.5t86.5 -54.5q113 -74 180 -74q16 0 34 4t34 15q-20 -37 -57 -58q-41 -29 -92 -28q-43 0 -99.5 22.5t-124.5 69.5q-55 39 -79.5 52t-32.5 17q-37 14 -72 15q-39 -1 -68 -15z" />
<glyph unicode="&#xf6;" horiz-adv-x="1118" d="M45 549q0 111 38 216t106.5 187t165 132.5t212.5 50.5q109 0 201 -46.5t159.5 -123t105.5 -176t38 -207.5q0 -113 -37 -221.5t-105.5 -191.5t-164.5 -134t-217 -51q-109 0 -201 47t-158.5 124.5t-104.5 180t-38 213.5zM188 655q0 -61 8.5 -133.5t27 -145.5t48 -139.5 t72.5 -118.5t100 -83t131 -31q45 0 105 16q86 25 135 70t73.5 105.5t31 134t6.5 153.5q0 94 -17.5 205t-60.5 206t-114.5 158.5t-182.5 63.5q-16 0 -35.5 -2t-40.5 -6q-92 -18 -148.5 -61t-87 -102.5t-41 -134.5t-10.5 -155zM311 1270q0 41 27 67.5t68 26.5q37 0 65 -27 q27 -27 27 -67q0 -37 -27 -64q-33 -27 -65 -26q-35 0 -66 26q-29 29 -29 64zM580 1270q0 41 24.5 67.5t67.5 26.5q39 0 63 -27q27 -27 27 -67q0 -35 -25 -64q-31 -27 -65 -26q-37 0 -68 26q-25 25 -24 64z" />
<glyph unicode="&#xf8;" horiz-adv-x="1118" d="M45 549q0 111 38 216t106.5 187t165 131.5t212.5 49.5q94 0 172 -33l119 350h86l-131 -387q117 -74 187.5 -204t70.5 -277q0 -115 -37 -222.5t-105.5 -190.5t-165.5 -133t-218 -50q-53 0 -94 8l-97 -287h-86l105 311q-74 31 -134.5 85.5t-103.5 124t-66.5 152.5 t-23.5 169zM188 655q0 -70 10.5 -152.5t35 -163.5t63.5 -150.5t94 -116.5l334 987q-35 27 -79 42t-97 15q-39 0 -74 -8q-92 -18 -148.5 -61t-87 -102.5t-41 -134.5t-10.5 -155zM463 27q51 -23 112 -23q45 0 105 16q86 25 135 70t73.5 105.5t31 134t6.5 153.5q0 61 -7.5 130 t-23.5 136.5t-42 131t-65 112.5z" />
<glyph unicode="&#xf9;" horiz-adv-x="1021" d="M39 1094h174l2 -691q0 -51 7 -112.5t28.5 -113.5t62.5 -87t109 -35q82 0 162 55.5t127 135.5q27 47 44 99t27 99v435q0 84 -6 116.5t-12 46.5q-16 33 -37 52h174v-645q0 -37 -1 -93.5t6 -114t26.5 -102.5t60.5 -59l-209 -86h-2v385q-10 -35 -24.5 -71t-34.5 -68 q-29 -51 -71 -95.5t-93 -78t-105.5 -53t-107.5 -19.5q-80 0 -130 37t-76.5 94t-36 125.5t-9.5 132.5v496q0 119 -20 165q-4 14 -14.5 26.5t-20.5 23.5zM219 1438h152l86 -279z" />
<glyph unicode="&#xfa;" horiz-adv-x="1021" d="M39 1094h174l2 -691q0 -51 7 -112.5t28.5 -113.5t62.5 -87t109 -35q82 0 162 55.5t127 135.5q27 47 44 99t27 99v435q0 84 -6 116.5t-12 46.5q-16 33 -37 52h174v-645q0 -37 -1 -93.5t6 -114t26.5 -102.5t60.5 -59l-209 -86h-2v385q-10 -35 -24.5 -71t-34.5 -68 q-29 -51 -71 -95.5t-93 -78t-105.5 -53t-107.5 -19.5q-80 0 -130 37t-76.5 94t-36 125.5t-9.5 132.5v496q0 119 -20 165q-4 14 -14.5 26.5t-20.5 23.5zM422 1155l84 275h153z" />
<glyph unicode="&#xfb;" horiz-adv-x="1021" d="M39 1094h174l2 -691q0 -51 7 -112.5t28.5 -113.5t62.5 -87t109 -35q82 0 162 55.5t127 135.5q27 47 44 99t27 99v435q0 84 -6 116.5t-12 46.5q-16 33 -37 52h174v-645q0 -37 -1 -93.5t6 -114t26.5 -102.5t60.5 -59l-209 -86h-2v385q-10 -35 -24.5 -71t-34.5 -68 q-29 -51 -71 -95.5t-93 -78t-105.5 -53t-107.5 -19.5q-80 0 -130 37t-76.5 94t-36 125.5t-9.5 132.5v496q0 119 -20 165q-4 14 -14.5 27t-20.5 23zM217 1186l123 217h180l146 -254l-267 207z" />
<glyph unicode="&#xfc;" horiz-adv-x="1021" d="M39 1094h174l2 -691q0 -51 7 -112.5t28.5 -113.5t62.5 -87t109 -35q82 0 162 55.5t127 135.5q27 47 44 99t27 99v435q0 84 -6 116.5t-12 46.5q-16 33 -37 52h174v-645q0 -37 -1 -93.5t6 -114t26.5 -102.5t60.5 -59l-209 -86h-2v385q-10 -35 -24.5 -71t-34.5 -68 q-29 -51 -71 -95.5t-93 -78t-105.5 -53t-107.5 -19.5q-80 0 -130 37t-76.5 94t-36 125.5t-9.5 132.5v496q0 119 -20 165q-4 14 -14.5 27t-20.5 23zM229 1266q0 36 29 65q25 27 61 27q41 0 68 -25.5t27 -66.5t-27 -66q-27 -27 -65 -26q-37 0 -64 26q-29 25 -29 66zM494 1266 q0 39 27.5 65.5t66.5 26.5q37 0 64.5 -27.5t27.5 -64.5q0 -41 -29 -66q-25 -27 -63 -26q-39 0 -66 26q-29 25 -28 66z" />
<glyph unicode="&#xfd;" horiz-adv-x="1003" d="M-31 -438q0 41 24.5 56t61.5 15q23 0 45.5 -7t45 -16t44 -16.5t41.5 -7.5q29 0 57.5 13.5t52.5 34t42 45t27 49.5l120 305l-419 882q-8 16 -22.5 41t-32 50.5t-36 48t-34.5 35.5h272q-27 -25 -33 -55.5t-2 -63.5t17.5 -65t25.5 -58l324 -672l319 805q10 20 4 54t-18 50 q-4 4 -4 5h121q-41 -35 -58.5 -73t-35.5 -85l-492 -1208q-18 -47 -51 -94.5t-75 -84.5t-94 -59.5t-112 -22.5q-20 0 -41.5 6.5t-40 18.5t-31 30.5t-12.5 43.5zM485 1133l84 278h152z" />
<glyph unicode="&#xff;" horiz-adv-x="1003" d="M-31 -438q0 41 24.5 56t61.5 15q23 0 45.5 -7t45 -16t44 -16.5t41.5 -7.5q29 0 57.5 13.5t52.5 34t42 45t27 49.5l120 305l-419 882q-8 16 -22.5 41t-32 50.5t-36 48t-34.5 35.5h272q-27 -25 -33 -55.5t-2 -63.5t17.5 -65t25.5 -58l324 -672l319 805q10 20 4 54t-18 50 q-4 4 -4 5h121q-41 -35 -58.5 -73t-35.5 -85l-492 -1208q-18 -47 -51 -94.5t-75 -84.5t-94 -59.5t-112 -22.5q-20 0 -41.5 6.5t-40 18.5t-31 30.5t-12.5 43.5zM350 1233q0 35 29 67q29 25 63 25q39 0 66 -25q29 -33 29 -67q0 -41 -28 -65.5t-67 -24.5t-65.5 25.5t-26.5 64.5 zM616 1233q0 39 28 65.5t67 26.5q37 0 63 -25q27 -27 27 -67q0 -41 -27 -66q-25 -25 -63 -24q-43 0 -68 24q-27 31 -27 66z" />
<glyph unicode="&#x152;" horiz-adv-x="1916" d="M39 825q0 369 250 602q106 98 226 147.5t265 53.5h1053l8 -151q-4 10 -8 17t-8 13q-27 43 -55.5 63.5t-61.5 30t-71 9.5h-81h-557v-744h406h69.5t73.5 6q53 12 84 33t58 68v-230q-20 39 -58.5 66t-81.5 37q-35 6 -69.5 5t-75.5 -1h-406v-821h603q61 0 104 11t77 32.5 t63.5 55.5t64.5 77l-68 -195h-1073q-147 4 -279.5 59.5t-236.5 166.5q-215 224 -215 589zM229 829q0 -92 10.5 -187t35 -185t66.5 -169t103.5 -138.5t146.5 -93t195 -33.5h2q14 12 24.5 28.5t18.5 32.5q4 16 10.5 54t6.5 126v1110q0 59 -4 99t-10.5 67t-14.5 41t-16 23 q-4 8 -6 10q-168 -2 -278.5 -70.5t-174 -179.5t-89.5 -250.5t-26 -284.5z" />
<glyph unicode="&#x153;" horiz-adv-x="1849" d="M45 543q0 111 38 215t106.5 187t164 133t211.5 50q141 0 253 -72.5t177 -189.5q57 125 165 192.5t245 67.5q86 0 158.5 -27.5t127 -78.5t87 -122t37.5 -157q-119 0 -241 -1t-239 -23q-172 -31 -231 -117q-27 -39 -33 -84t3 -91t30.5 -88t48.5 -75q139 -162 330 -162 q125 0 191.5 49.5t101.5 163.5q4 10 10 4q10 0 6 -8q-20 -68 -59 -126t-91.5 -103t-118 -70.5t-137.5 -25.5q-63 0 -123.5 19.5t-112.5 55t-94 83.5t-71 106q-72 -125 -183.5 -196.5t-254.5 -71.5q-109 0 -201 46t-158.5 124.5t-104.5 180t-38 212.5zM190 647 q0 -61 8.5 -134t27 -144.5t48 -138t72.5 -118t99.5 -82t129.5 -30.5q47 0 107 16q84 25 133 70t73.5 105.5t32 134t7.5 153.5q0 61 -7.5 133t-25.5 141.5t-46 135t-71 115t-99 79t-130 29.5q-39 0 -74 -8q-90 -18 -146.5 -61.5t-87 -103.5t-41 -135t-10.5 -157z M1006.5 625.5q11.5 -101.5 48.5 -199.5v2q-2 14 -2 27.5v27.5q0 53 18 92q4 10 9 16.5t10 14.5q33 49 92 80t133 46.5t159 20.5t168 5v16q-6 113 -30 172q-37 86 -100.5 124t-137.5 38q-66 0 -124 -21.5t-105 -59.5t-80 -91t-47 -117q-23 -92 -11.5 -193.5z" />
<glyph unicode="&#x178;" horiz-adv-x="1415" d="M-37 1628h404q-57 -43 -58 -115q0 -20 14.5 -61t69.5 -127l395 -610l373 588q82 131 82 200q0 76 -59 125h270q-39 -20 -73.5 -51t-63.5 -66.5t-54.5 -74.5t-50.5 -76l-417 -662v-440q0 -176 47 -225q10 -12 26 -25h-301q18 12 39 41q20 27 27.5 77t7.5 132v418l-475 727 q-45 66 -72.5 106.5t-44.5 57.5q-14 14 -35.5 28.5t-50.5 32.5zM520 1819q0 39 27.5 65.5t64.5 26.5q39 0 67 -26.5t28 -65.5t-28 -67t-67 -28q-37 0 -64.5 28t-27.5 67zM788 1819q0 41 26 66.5t67 25.5q39 0 65 -27q25 -31 25 -65q0 -23 -6.5 -37.5t-18.5 -28.5 q-29 -29 -65 -29q-41 0 -67 27t-26 68z" />
<glyph unicode="&#x2c6;" horiz-adv-x="507" d="M33 74l123 215h182l143 -252l-264 205z" />
<glyph unicode="&#x2dc;" horiz-adv-x="679" d="M29 170q4 6 7 10t7 8q55 63 131 64q66 0 123 -33t109 -67q115 -76 178 -76q39 0 69 18q-27 -35 -65.5 -60.5t-83.5 -25.5q-84 0 -221 94q-57 39 -82 52.5t-35 17.5q-31 14 -72 14q-38 0 -65 -16z" />
<glyph unicode="&#x2000;" horiz-adv-x="1020" />
<glyph unicode="&#x2001;" horiz-adv-x="2040" />
<glyph unicode="&#x2002;" horiz-adv-x="1020" />
<glyph unicode="&#x2003;" horiz-adv-x="2040" />
<glyph unicode="&#x2004;" horiz-adv-x="680" />
<glyph unicode="&#x2005;" horiz-adv-x="510" />
<glyph unicode="&#x2006;" horiz-adv-x="340" />
<glyph unicode="&#x2007;" horiz-adv-x="340" />
<glyph unicode="&#x2008;" horiz-adv-x="255" />
<glyph unicode="&#x2009;" horiz-adv-x="408" />
<glyph unicode="&#x200a;" horiz-adv-x="113" />
<glyph unicode="&#x2010;" horiz-adv-x="614" d="M25 385v102h565v-102h-565z" />
<glyph unicode="&#x2011;" horiz-adv-x="614" d="M25 385v102h565v-102h-565z" />
<glyph unicode="&#x2012;" horiz-adv-x="614" d="M25 385v102h565v-102h-565z" />
<glyph unicode="&#x2013;" horiz-adv-x="1452" d="M102 473v62h1248v-62h-1248z" />
<glyph unicode="&#x2014;" horiz-adv-x="2748" d="M102 473v62h2542v-62h-2542z" />
<glyph unicode="&#x2018;" horiz-adv-x="313" d="M43 1165q2 41 18.5 76t43 63.5t60.5 49t71 32.5q-20 -12 -43 -36q-41 -37 -46 -78q-6 -47 25 -72q12 -18 43 -31q31 -14 33 -20q23 -23 22 -59q2 -35 -24 -62q-31 -35 -64 -31q-57 4 -94 41q-47 47 -45 127z" />
<glyph unicode="&#x2019;" horiz-adv-x="311" d="M39 1565q0 35 26.5 63.5t63.5 28.5q55 -4 94 -43q45 -49 43 -125q-4 -84 -62.5 -142.5t-133.5 -82.5q14 10 26.5 20t24.5 21q37 37 43 75q4 29 -4 47.5t-19 26.5q-10 10 -20 16.5t-27 14.5q-27 12 -41 29.5t-14 50.5z" />
<glyph unicode="&#x201a;" horiz-adv-x="307" d="M-37 -264q18 57 37.5 125.5t38 142.5t34 146.5t25.5 138.5l174 18q-23 -74 -51 -153.5t-58 -155.5t-59.5 -142.5t-56.5 -111.5z" />
<glyph unicode="&#x201c;" horiz-adv-x="614" d="M45 1212q4 86 65.5 145.5t139.5 82.5q-31 -14 -55 -43q-41 -41 -48 -74q-4 -29 4.5 -46t16.5 -26q14 -16 49 -32q53 -25 53 -82q0 -39 -24 -62q-27 -31 -76 -26q-43 0 -80 36q-47 47 -45 127zM342 1210q2 41 19.5 76t44 64.5t61.5 51t72 34.5q-14 -8 -30.5 -20.5t-30 -28 t-23 -33t-11.5 -33.5q-4 -29 4.5 -45t16.5 -25q18 -18 49 -32q27 -12 43 -32t16 -50q0 -37 -24 -62q-29 -29 -76 -26q-49 0 -88 38q-45 45 -43 123z" />
<glyph unicode="&#x201d;" horiz-adv-x="616" d="M41 1530q0 33 27 59q29 31 75 29q25 0 45.5 -10.5t40.5 -28.5q45 -41 41 -125q-2 -43 -19.5 -79t-46 -65.5t-64.5 -51t-72 -33.5q16 10 30.5 21t28.5 28q35 31 41 69q4 29 -3 46.5t-18 27.5q-6 8 -18 14.5t-31 16.5q-10 4 -17 10t-13 12q-16 12 -21.5 27t-5.5 33z M348 1530q0 43 29 66.5t69 23.5q49 -4 82 -37q49 -49 45 -129q-2 -41 -20 -78t-46 -66.5t-63.5 -51t-74.5 -31.5q31 18 63.5 51t40.5 68q4 29 -4 45t-16 26q-10 10 -22.5 16.5t-29.5 16.5q-53 23 -53 80z" />
<glyph unicode="&#x201e;" horiz-adv-x="548" d="M27 31q0 18 7 32.5t19 28.5q27 27 76 27q25 -2 45.5 -10.5t40.5 -28.5q45 -45 41 -125q-4 -88 -65.5 -144.5t-137.5 -84.5q31 20 62.5 48.5t38.5 67.5q4 31 -3.5 48.5t-17.5 27.5q-14 14 -49 29q-10 6 -17.5 11t-13.5 13q-27 20 -26 60zM301 29q0 38 25 63q35 33 75 27 q23 0 43.5 -8.5t36.5 -28.5q49 -43 45 -127q-2 -43 -19.5 -79t-45 -65.5t-64.5 -50t-75 -32.5q31 14 55 43q43 43 49 77q4 29 -3 44.5t-17 25.5q-10 8 -22.5 16.5t-29.5 16.5q-25 14 -39 30.5t-14 47.5z" />
<glyph unicode="&#x2022;" horiz-adv-x="391" d="M41 610q0 66 44 109t110 43t110.5 -43t44.5 -109t-45 -109.5t-110 -43.5q-63 0 -108.5 43.5t-45.5 109.5z" />
<glyph unicode="&#x2026;" horiz-adv-x="661" d="M33 109q0 41 27.5 67.5t68.5 26.5t67.5 -26.5t26.5 -67.5t-26.5 -69t-67.5 -28t-68.5 28t-27.5 69zM236 109q0 41 26.5 67.5t67.5 26.5t68.5 -26.5t27.5 -67.5t-27.5 -69t-68.5 -28t-67.5 28t-26.5 69zM436 109q0 41 27.5 67.5t68.5 26.5t68 -26.5t27 -67.5t-27 -69 t-68 -28t-68.5 28t-27.5 69z" />
<glyph unicode="&#x202f;" horiz-adv-x="408" />
<glyph unicode="&#x2039;" horiz-adv-x="473" d="M37 494l391 473l-248 -473l248 -476z" />
<glyph unicode="&#x203a;" horiz-adv-x="485" d="M45 8l250 484l-250 485l404 -485z" />
<glyph unicode="&#x205f;" horiz-adv-x="510" />
<glyph unicode="&#x20ac;" horiz-adv-x="1058" d="M37 680l10 37h90v43q0 16 1 35.5t1 40.5l2 26h-104l10 37h98l5 23q16 119 60 230.5t116.5 198.5t174 140t232.5 53q119 0 223 -59q10 -6 2 -19q-6 -6 -14 -2q-16 12 -70.5 35t-140.5 23q-113 0 -187.5 -59.5t-121.5 -148.5t-71.5 -192.5t-35.5 -193.5l-2 -29h586l-10 -37 h-578l-2 -24q-2 -23 -3 -47.5t-1 -47.5v-26h617l-11 -37h-604v-27q4 -88 23.5 -194.5t64.5 -198.5t120 -154.5t188 -62.5q92 0 170.5 29.5t144.5 95.5q-143 -168 -363 -168q-137 0 -231 59.5t-154.5 152.5t-90 210t-38.5 233l-2 25h-104z" />
<glyph unicode="&#x25fc;" horiz-adv-x="1085" d="M0 0v1085h1085v-1085h-1085z" />
</font>
</defs>
</svg>
